<?xml version="1.0" encoding="UTF-8"?>
<svg version="1.1" xmlns="http://www.w3.org/2000/svg" width="200" height="200">
<path d="M0 0 C66 0 132 0 200 0 C200 66 200 132 200 200 C134 200 68 200 0 200 C0 134 0 68 0 0 Z " fill="#F3F3F3" transform="translate(0,0)"/>
<path d="M0 0 C2 2 2 2 2.1953125 4.1640625 C2.17210937 4.97617188 2.14890625 5.78828125 2.125 6.625 C2.10695312 7.44226563 2.08890625 8.25953125 2.0703125 9.1015625 C2.04710937 9.72804688 2.02390625 10.35453125 2 11 C3.93816735 10.8858134 5.87555099 10.75826577 7.8125 10.625 C8.89144531 10.55539063 9.97039062 10.48578125 11.08203125 10.4140625 C14.18626186 10.18804267 14.18626186 10.18804267 17 8 C17.99 8 18.98 8 20 8 C20.33 7.34 20.66 6.68 21 6 C21.99 8.475 21.99 8.475 23 11 C27.29 11 31.58 11 36 11 C35.01 11.66 34.02 12.32 33 13 C32.01 12.67 31.02 12.34 30 12 C30 13.98 30 15.96 30 18 C25.38 18 20.76 18 16 18 C16 18.66 16 19.32 16 20 C15.34 20 14.68 20 14 20 C13.505 19.01 13.505 19.01 13 18 C11.71802734 18.12568359 11.71802734 18.12568359 10.41015625 18.25390625 C9.30542969 18.35574219 8.20070313 18.45757812 7.0625 18.5625 C5.96035156 18.66691406 4.85820313 18.77132812 3.72265625 18.87890625 C2.82417969 18.91886719 1.92570312 18.95882812 1 19 C0.67 18.67 0.34 18.34 0 18 C-4.3409369 18.14158662 -4.3409369 18.14158662 -8 20 C-8.25005386 22.95817107 -8.25005386 22.95817107 -8 26 C-6.04366025 28.41121859 -6.04366025 28.41121859 -2.375 28.125 C-1.26125 28.08375 -0.1475 28.0425 1 28 C2.32 25.69 3.64 23.38 5 21 C5.33 21 5.66 21 6 21 C6.2475 22.11375 6.495 23.2275 6.75 24.375 C7.61005339 28.04615198 7.61005339 28.04615198 10.125 29.4375 C10.74375 29.623125 11.3625 29.80875 12 30 C11.67 30.66 11.34 31.32 11 32 C11.66 32 12.32 32 13 32 C13 32.66 13 33.32 13 34 C13.66 34 14.32 34 15 34 C15 32.68 15 31.36 15 30 C15.56847656 29.87882812 16.13695313 29.75765625 16.72265625 29.6328125 C21.54245464 28.58677946 26.2732934 27.40795516 31 26 C31.33 26.33 31.66 26.66 32 27 C36.52642225 27.15088074 40.58300512 27.10424872 45 26 C45 26.66 45 27.32 45 28 C46.65 28 48.3 28 50 28 C49.67 30.31 49.34 32.62 49 35 C48.34 35 47.68 35 47 35 C47 35.99 47 36.98 47 38 C48.485 38.495 48.485 38.495 50 39 C4.55555556 39 4.55555556 39 -4.7109375 38.12109375 C-7.91125831 37.88485458 -7.91125831 37.88485458 -10.66308594 38.48632812 C-14.70494558 39.10851665 -18.59828095 39.12471988 -22.6796875 39.09765625 C-23.49245148 39.0962413 -24.30521545 39.09482635 -25.14260864 39.09336853 C-27.72011101 39.08780335 -30.2975242 39.0752574 -32.875 39.0625 C-34.63020707 39.0574805 -36.38541552 39.05291838 -38.140625 39.04882812 C-42.42711732 39.03784534 -46.71354357 39.02060492 -51 39 C-51 38.01 -51 37.02 -51 36 C-51.66 36 -52.32 36 -53 36 C-53 36.66 -53 37.32 -53 38 C-53.66 38 -54.32 38 -55 38 C-55 36.68 -55 35.36 -55 34 C-55.99 34 -56.98 34 -58 34 C-57.625 32.0625 -57.625 32.0625 -57 30 C-54.6379099 28.81895495 -52.68254264 28.57317707 -50.0625 28.25 C-49.18722656 28.13140625 -48.31195313 28.0128125 -47.41015625 27.890625 C-45 28 -45 28 -43.18359375 29.484375 C-42.79300781 29.98453125 -42.40242188 30.4846875 -42 31 C-41.67 30.34 -41.34 29.68 -41 29 C-33.87262081 27.02145805 -27.24834552 26.79194241 -20 28 C-20 27.34 -20 26.68 -20 26 C-19.34 26 -18.68 26 -18 26 C-18 26.66 -18 27.32 -18 28 C-17.01 28 -16.02 28 -15 28 C-14.67 25.69 -14.34 23.38 -14 21 C-14.99 21 -15.98 21 -17 21 C-17.495 19.515 -17.495 19.515 -18 18 C-18.71285156 18.02320312 -19.42570312 18.04640625 -20.16015625 18.0703125 C-25.88360394 18.17815674 -30.59838814 17.92057311 -36 16 C-35.25 14.0625 -35.25 14.0625 -34 12 C-31.06517036 10.97023521 -28.33960328 10.89206466 -25.25 10.9375 C-24.45078125 10.94652344 -23.6515625 10.95554687 -22.828125 10.96484375 C-22.22484375 10.97644531 -21.6215625 10.98804687 -21 11 C-21 9.68 -21 8.36 -21 7 C-23.64 7 -26.28 7 -29 7 C-29 5.68 -29 4.36 -29 3 C-25.7 3 -22.4 3 -19 3 C-19 4.65 -19 6.3 -19 8 C-18.505 9.485 -18.505 9.485 -18 11 C-16.35 11 -14.7 11 -13 11 C-13 8.69 -13 6.38 -13 4 C-10.6875 4.1875 -10.6875 4.1875 -8 5 C-6.98812105 6.65948148 -5.9873454 8.32580562 -5 10 C-3.68 10 -2.36 10 -1 10 C-1.495 8.515 -1.495 8.515 -2 7 C-1.40206327 4.64811553 -0.74118205 2.31074405 0 0 Z " fill="#F9F8F9" transform="translate(101,90)"/>
<path d="M0 0 C9.1796875 -0.1953125 9.1796875 -0.1953125 12 0 C12.66 0.66 13.32 1.32 14 2 C14.69480469 1.67257813 15.38960937 1.34515625 16.10546875 1.0078125 C19.36368828 -0.12662831 21.87449502 -0.20056055 25.3125 -0.125 C26.38113281 -0.10695313 27.44976562 -0.08890625 28.55078125 -0.0703125 C29.35902344 -0.04710938 30.16726562 -0.02390625 31 0 C31 0.99 31 1.98 31 3 C28.69 3 26.38 3 24 3 C24 4.65 24 6.3 24 8 C26.31 8 28.62 8 31 8 C31 8.99 31 9.98 31 11 C28.69 11 26.38 11 24 11 C24 12.65 24 14.3 24 16 C26.64 16 29.28 16 32 16 C32 17.32 32 18.64 32 20 C27.71 20.66 23.42 21.32 19 22 C19 22.99 19 23.98 19 25 C20.155 25.144375 21.31 25.28875 22.5 25.4375 C23.22316406 25.5303125 23.94632813 25.623125 24.69140625 25.71875 C26.21782522 25.90470967 27.74668415 26.07172266 29.27734375 26.21875 C31.19279346 26.41271959 33.0983134 26.69973369 35 27 C35.495 27.99 35.495 27.99 36 29 C37.65 28.67 39.3 28.34 41 28 C40.01 30.97 39.02 33.94 38 37 C37.01 37 36.02 37 35 37 C35 36.34 35 35.68 35 35 C34.34 35 33.68 35 33 35 C33 35.66 33 36.32 33 37 C32.3709375 36.98839844 31.741875 36.97679687 31.09375 36.96484375 C23.34120402 36.8831151 16.3502115 37.24367069 9 40 C8.34 39.34 7.68 38.68 7 38 C4.72720185 37.65929591 2.48577736 37.55858171 0.19140625 37.44140625 C-2.41856841 36.91568943 -3.32663364 36.01772471 -5 34 C-5 34.99 -5 35.98 -5 37 C-6.485 36.505 -6.485 36.505 -8 36 C-8.6875 33.9375 -8.6875 33.9375 -9 32 C-9.495 34.475 -9.495 34.475 -10 37 C-10.99 37 -11.98 37 -13 37 C-13 34.69 -13 32.38 -13 30 C-13.66 30 -14.32 30 -15 30 C-14.938125 31.175625 -14.938125 31.175625 -14.875 32.375 C-15 35 -15 35 -17 37 C-19.5625 36.75 -19.5625 36.75 -22 36 C-22.33 35.34 -22.66 34.68 -23 34 C-21.35 34.33 -19.7 34.66 -18 35 C-18 34.34 -18 33.68 -18 33 C-19.32 32.67 -20.64 32.34 -22 32 C-22 30.02 -22 28.04 -22 26 C-20.89140625 26.01160156 -19.7828125 26.02320312 -18.640625 26.03515625 C-17.17708502 26.04453792 -15.71354322 26.05363771 -14.25 26.0625 C-13.52039062 26.07087891 -12.79078125 26.07925781 -12.0390625 26.08789062 C-8.51329442 26.10391684 -5.38965084 25.95292713 -2 25 C-2 24.34 -2 23.68 -2 23 C0.31 23.66 2.62 24.32 5 25 C5 24.34 5 23.68 5 23 C3.68 23 2.36 23 1 23 C1 22.34 1 21.68 1 21 C0.34 20.67 -0.32 20.34 -1 20 C-0.67 13.4 -0.34 6.8 0 0 Z " fill="#FAF3F7" transform="translate(48,81)"/>
<path d="M0 0 C3.96 0 7.92 0 12 0 C12 0.99 12 1.98 12 3 C9.36 3 6.72 3 4 3 C4 4.32 4 5.64 4 7 C6.64 7 9.28 7 12 7 C12 8.32 12 9.64 12 11 C12.99 11.33 13.98 11.66 15 12 C15 14.97 15 17.94 15 21 C14.01 21.495 14.01 21.495 13 22 C12.505 23.485 12.505 23.485 12 25 C12.53625 24.649375 13.0725 24.29875 13.625 23.9375 C16.78590853 22.68977295 18.71617294 23.26281433 22 24 C25.47624637 24.74473783 25.47624637 24.74473783 29 25 C29 25.66 29 26.32 29 27 C29.804375 26.79375 30.60875 26.5875 31.4375 26.375 C35.95778317 25.89918072 39.65114526 26.83064128 44 28 C44 28.99 44 29.98 44 31 C45.32 31 46.64 31 48 31 C48 30.01 48 29.02 48 28 C48.66 28 49.32 28 50 28 C50 30.97 50 33.94 50 37 C49.34 37 48.68 37 48 37 C48 35.68 48 34.36 48 33 C47.01 33 46.02 33 45 33 C45 34.32 45 35.64 45 37 C39.86989328 38.64163415 34.13769077 38.56984996 29 37 C27.1875 35.4375 27.1875 35.4375 26 34 C26 34.99 26 35.98 26 37 C24.35 37 22.7 37 21 37 C21 36.34 21 35.68 21 35 C20.01 35.495 20.01 35.495 19 36 C15.11651516 37.29449495 12.09302664 37.13203312 8 37 C4.51971731 37 1.25617483 37.49450645 -2.1875 38 C-3.45980469 38.185625 -4.73210937 38.37125 -6.04296875 38.5625 C-7.01878906 38.706875 -7.99460937 38.85125 -9 39 C-9 40.32 -9 41.64 -9 43 C-9.66 43 -10.32 43 -11 43 C-11 42.34 -11 41.68 -11 41 C-11.66 41 -12.32 41 -13 41 C-13 40.34 -13 39.68 -13 39 C-13.61875 38.79375 -14.2375 38.5875 -14.875 38.375 C-17.84653645 36.45224112 -18.13024659 34.33405473 -19 31 C-19.7115625 32.4540625 -19.7115625 32.4540625 -20.4375 33.9375 C-22 37 -22 37 -23 38 C-29.2080292 38.45985401 -29.2080292 38.45985401 -31.9375 36.875 C-33.52225401 34.07837528 -33.45947423 32.1506804 -33 29 C-30.91229561 26.68032846 -29.66234355 26.06793267 -26.5625 25.75 C-24 26 -24 26 -21.75 26.5625 C-17.75113354 27.1986833 -13.98632981 26.56451294 -10 26 C-10 26.99 -10 27.98 -10 29 C-9.34 29 -8.68 29 -8 29 C-8 28.34 -8 27.68 -8 27 C-3.38 27 1.24 27 6 27 C6 25.02 6 23.04 6 21 C4.02 20.67 2.04 20.34 0 20 C0 13.4 0 6.8 0 0 Z " fill="#FBF1EE" transform="translate(125,81)"/>
<path d="M0 0 C3.99886646 0.6361833 7.76367019 0.00201294 11.75 -0.5625 C11.75 0.4275 11.75 1.4175 11.75 2.4375 C12.41 2.4375 13.07 2.4375 13.75 2.4375 C13.75 1.7775 13.75 1.1175 13.75 0.4375 C23.16002278 0.0684795 23.16002278 0.0684795 27.75 2.4375 C27.09 2.7675 26.43 3.0975 25.75 3.4375 C24.76 3.1075 23.77 2.7775 22.75 2.4375 C22.75 3.0975 22.75 3.7575 22.75 4.4375 C25.225 4.9325 25.225 4.9325 27.75 5.4375 C27.42 7.0875 27.09 8.7375 26.75 10.4375 C22.13 11.0975 17.51 11.7575 12.75 12.4375 C12.75 13.7575 12.75 15.0775 12.75 16.4375 C12.09 16.4375 11.43 16.4375 10.75 16.4375 C10.75 15.7775 10.75 15.1175 10.75 14.4375 C10.09 14.4375 9.43 14.4375 8.75 14.4375 C8.75 13.7775 8.75 13.1175 8.75 12.4375 C8.13125 12.23125 7.5125 12.025 6.875 11.8125 C3.90346355 9.88974112 3.61975341 7.77155473 2.75 4.4375 C2.0384375 5.8915625 2.0384375 5.8915625 1.3125 7.375 C-0.25 10.4375 -0.25 10.4375 -1.25 11.4375 C-7.4580292 11.89735401 -7.4580292 11.89735401 -10.1875 10.3125 C-11.77225401 7.51587528 -11.70947423 5.5881804 -11.25 2.4375 C-7.93188031 -1.24929966 -4.59373837 -1.14843459 0 0 Z " fill="#FCF0ED" transform="translate(103.25,107.5625)"/>
<path d="M0 0 C10.18215613 -0.49070632 10.18215613 -0.49070632 14.125 1.875 C16.5734674 4.64992972 16.96678834 5.55994549 17.25 9.3125 C16.984656 13.22632394 16.36680088 14.93192479 14 18 C9.43362969 21.04424687 5.43284541 20.12783166 0 20 C0 13.4 0 6.8 0 0 Z " fill="#421748" transform="translate(104,81)"/>
<path d="M0 0 C11.46587206 -0.36986684 11.46587206 -0.36986684 13.8671875 1.29296875 C15.74703815 4.12570921 15.29361846 6.7114732 15 10 C14.01 11.485 14.01 11.485 13 13 C14.32 15.31 15.64 17.62 17 20 C14.75 20.375 14.75 20.375 12 20 C10.61876037 18.03277992 9.28511874 16.03131672 8 14 C5.87880872 13.04768403 5.87880872 13.04768403 4 13 C4 15.31 4 17.62 4 20 C2.68 20 1.36 20 0 20 C0 13.4 0 6.8 0 0 Z " fill="#36063D" transform="translate(84,81)"/>
<path d="M0 0 C0.99 0 1.98 0 3 0 C3 6.27 3 12.54 3 19 C7.29 19 11.58 19 16 19 C16 17.68 16 16.36 16 15 C16.66 15 17.32 15 18 15 C18.33 14.34 18.66 13.68 19 13 C19 14.98 19 16.96 19 19 C20.98 19 22.96 19 25 19 C25 18.01 25 17.02 25 16 C26.65 15.67 28.3 15.34 30 15 C30.495 16.98 30.495 16.98 31 19 C29.35 19.33 27.7 19.66 26 20 C26 20.66 26 21.32 26 22 C25.34 22 24.68 22 24 22 C23.7525 22.639375 23.505 23.27875 23.25 23.9375 C22 26 22 26 20 26.8125 C18 27 18 27 16 26 C16 25.34 16 24.68 16 24 C14.6078125 24.309375 14.6078125 24.309375 13.1875 24.625 C10 25 10 25 7 23 C4.93089407 22.97250522 4.93089407 22.97250522 2.8125 23.375 C1.554375 23.58125 0.29625 23.7875 -1 24 C-0.67 22.68 -0.34 21.36 0 20 C0.66 20 1.32 20 2 20 C1.88637738 18.5199159 1.75877092 17.04089926 1.625 15.5625 C1.55539063 14.73878906 1.48578125 13.91507813 1.4140625 13.06640625 C1.20910156 12.04353516 1.20910156 12.04353516 1 11 C0.34 10.67 -0.32 10.34 -1 10 C-1 8.68 -1 7.36 -1 6 C-3.64 6 -6.28 6 -9 6 C-9 5.01 -9 4.02 -9 3 C-6.03 3.33 -3.06 3.66 0 4 C0 2.68 0 1.36 0 0 Z " fill="#F9F4F9" transform="translate(138,82)"/>
<path d="M0 0 C1.69752187 0.25245197 3.38471545 0.57645775 5.0625 0.9375 C5.98160156 1.13214844 6.90070313 1.32679687 7.84765625 1.52734375 C8.91306641 1.76130859 8.91306641 1.76130859 10 2 C10 2.99 10 3.98 10 5 C11.32 5 12.64 5 14 5 C14 4.01 14 3.02 14 2 C14.66 2 15.32 2 16 2 C16 4.97 16 7.94 16 11 C15.34 11 14.68 11 14 11 C14 9.68 14 8.36 14 7 C13.01 7 12.02 7 11 7 C11 8.32 11 9.64 11 11 C5.86989328 12.64163415 0.13769077 12.56984996 -5 11 C-6.8125 9.4375 -6.8125 9.4375 -8 8 C-8 8.99 -8 9.98 -8 11 C-8.66 11 -9.32 11 -10 11 C-10 7.7 -10 4.4 -10 1 C-8.535625 1.020625 -7.07125 1.04125 -5.5625 1.0625 C-4.04167482 1.08392007 -2.51928038 1.07179964 -1 1 C-0.67 0.67 -0.34 0.34 0 0 Z " fill="#F5D4CE" transform="translate(159,107)"/>
<path d="M0 0 C3.49353838 1.74676919 5.13945763 2.91405215 7.75 5.625 C8.67039063 6.57246094 8.67039063 6.57246094 9.609375 7.5390625 C10.29773438 8.26222656 10.29773438 8.26222656 11 9 C11.33 6.03 11.66 3.06 12 0 C13.65 0 15.3 0 17 0 C17 6.6 17 13.2 17 20 C13.33228155 18.16614077 11.53165004 16.74937171 8.75 13.875 C8.04359375 13.15054688 7.3371875 12.42609375 6.609375 11.6796875 C6.07828125 11.12539062 5.5471875 10.57109375 5 10 C4.67 13.3 4.34 16.6 4 20 C2.68 20 1.36 20 0 20 C0 13.4 0 6.8 0 0 Z " fill="#441B4A" transform="translate(158,81)"/>
<path d="M0 0 C0.99 0 1.98 0 3 0 C4.34277732 2.7663534 5.67255228 5.53876211 7 8.3125 C7.3815625 9.09818359 7.763125 9.88386719 8.15625 10.69335938 C8.5171875 11.45068359 8.878125 12.20800781 9.25 12.98828125 C9.58515625 13.68477783 9.9203125 14.38127441 10.265625 15.09887695 C11 17 11 17 11 20 C9.68 20 8.36 20 7 20 C6.67 19.34 6.34 18.68 6 18 C3.03 18 0.06 18 -3 18 C-3.33 18.66 -3.66 19.32 -4 20 C-5.65 20 -7.3 20 -9 20 C-7.32073668 15.63221913 -5.36694083 11.41834992 -3.375 7.1875 C-2.88773438 6.14819336 -2.88773438 6.14819336 -2.390625 5.08789062 C-1.59500115 3.39133977 -0.79767301 1.69558835 0 0 Z " fill="#3E1044" transform="translate(34,81)"/>
<path d="M0 0 C11.48312994 -0.37042355 11.48312994 -0.37042355 13.875 1.34375 C15.41566389 3.61194961 15.21715415 5.32176545 15 8 C13.125 7.6875 13.125 7.6875 11 7 C10.34 6.01 9.68 5.02 9 4 C6.43717258 3.27034634 6.43717258 3.27034634 4 3 C4 4.65 4 6.3 4 8 C5.32 8.33 6.64 8.66 8 9 C8 9.66 8 10.32 8 11 C6.68 11 5.36 11 4 11 C4 12.65 4 14.3 4 16 C7.465 15.505 7.465 15.505 11 15 C11.33 13.35 11.66 11.7 12 10 C13.32 10.66 14.64 11.32 16 12 C15.6875 14.875 15.6875 14.875 15 18 C10.25368713 21.16420858 5.63243123 20.12112755 0 20 C0 13.4 0 6.8 0 0 Z " fill="#36043E" transform="translate(48,81)"/>
<path d="M0 0 C14.78132118 -0.3690205 14.78132118 -0.3690205 21 2 C21.91058531 5.07322544 22.08886184 7.80097361 22 11 C20 11 20 11 18.375 9.5 C17.92125 9.005 17.4675 8.51 17 8 C17 8.99 17 9.98 17 11 C16.01 10.67 15.02 10.34 14 10 C13.3125 7.9375 13.3125 7.9375 13 6 C12.67 7.65 12.34 9.3 12 11 C11.01 11 10.02 11 9 11 C9 8.69 9 6.38 9 4 C8.34 4 7.68 4 7 4 C7.061875 5.175625 7.061875 5.175625 7.125 6.375 C7 9 7 9 5 11 C2.4375 10.75 2.4375 10.75 0 10 C-0.33 9.34 -0.66 8.68 -1 8 C1.475 8.495 1.475 8.495 4 9 C4 8.34 4 7.68 4 7 C2.68 6.67 1.36 6.34 0 6 C0 4.02 0 2.04 0 0 Z " fill="#F9D4CE" transform="translate(26,107)"/>
<path d="M0 0 C3.96 0 7.92 0 12 0 C12 0.99 12 1.98 12 3 C9.69 3 7.38 3 5 3 C5 4.65 5 6.3 5 8 C7.31 8 9.62 8 12 8 C12 8.99 12 9.98 12 11 C9.69 11 7.38 11 5 11 C5 12.65 5 14.3 5 16 C7.64 16 10.28 16 13 16 C13 17.32 13 18.64 13 20 C8.71 20 4.42 20 0 20 C0 13.4 0 6.8 0 0 Z " fill="#522857" transform="translate(67,81)"/>
<path d="M0 0 C3.96 0 7.92 0 12 0 C12 0.99 12 1.98 12 3 C9.36 3 6.72 3 4 3 C4 4.65 4 6.3 4 8 C6.64 8 9.28 8 12 8 C12 8.99 12 9.98 12 11 C9.36 11 6.72 11 4 11 C4 12.65 4 14.3 4 16 C6.97 16 9.94 16 13 16 C13 17.32 13 18.64 13 20 C8.71 20 4.42 20 0 20 C0 13.4 0 6.8 0 0 Z " fill="#401346" transform="translate(141,81)"/>
<path d="M0 0 C3.96 0 7.92 0 12 0 C12 0.99 12 1.98 12 3 C9.36 3 6.72 3 4 3 C4 4.65 4 6.3 4 8 C6.31 8 8.62 8 11 8 C11 8.99 11 9.98 11 11 C8.69 11 6.38 11 4 11 C4 12.65 4 14.3 4 16 C6.64 16 9.28 16 12 16 C12 17.32 12 18.64 12 20 C8.04 20 4.08 20 0 20 C0 13.4 0 6.8 0 0 Z " fill="#37073D" transform="translate(125,81)"/>
<path d="M0 0 C4.16138263 -0.08159574 7.9472484 0.01751476 12 1 C12 1.99 12 2.98 12 4 C11.34 4 10.68 4 10 4 C10 5.65 10 7.3 10 9 C10.66 9 11.32 9 12 9 C11.3125 10.9375 11.3125 10.9375 10 13 C7.5 13.875 7.5 13.875 5 14 C4.34 13.34 3.68 12.68 3 12 C1.01178687 11.60235737 -0.98944339 11.26224651 -3 11 C-2.01 7.37 -1.02 3.74 0 0 Z " fill="#FAE6E2" transform="translate(52,107)"/>
<path d="M0 0 C9.57142857 -0.28571429 9.57142857 -0.28571429 14 2 C13.01 2.495 13.01 2.495 12 3 C11.01 2.67 10.02 2.34 9 2 C9 2.66 9 3.32 9 4 C10.65 4.33 12.3 4.66 14 5 C13.67 6.65 13.34 8.3 13 10 C8.37078475 11.0161692 4.65537393 10.83796731 0 10 C0 6.7 0 3.4 0 0 Z " fill="#F9DAD4" transform="translate(117,108)"/>
<path d="M0 0 C1.8125 1.0625 1.8125 1.0625 3 3 C3.3125 6.5625 3.3125 6.5625 3 10 C1 12 1 12 -2.4375 12.3125 C-6 12 -6 12 -7.9375 10.875 C-9.52225401 8.07837528 -9.45947423 6.1506804 -9 3 C-6.30254095 0.00282328 -3.95012118 -0.60771095 0 0 Z " fill="#47164A" transform="translate(101,107)"/>
<path d="M0 0 C2 1.0625 2 1.0625 4 3 C4.46913089 7.37855495 4.46943529 9.29584707 2 13 C3.32 15.31 4.64 17.62 6 20 C3.6875 20.3125 3.6875 20.3125 1 20 C-1.63560713 16.72821183 -2 15.27931853 -2 11 C-3.65 10.67 -5.3 10.34 -7 10 C-7 7.69 -7 5.38 -7 3 C-5.02 3 -3.04 3 -1 3 C-0.67 2.01 -0.34 1.02 0 0 Z " fill="#3C0C44" transform="translate(95,81)"/>
<path d="M0 0 C2.31309705 0.11341637 4.62550185 0.24103807 6.9375 0.375 C8.86916016 0.47941406 8.86916016 0.47941406 10.83984375 0.5859375 C12.40412109 0.79089844 12.40412109 0.79089844 14 1 C14.33 1.66 14.66 2.32 15 3 C13.35 3 11.7 3 10 3 C10 4.32 10 5.64 10 7 C10.99 7 11.98 7 13 7 C12.67 6.34 12.34 5.68 12 5 C13.32 5 14.64 5 16 5 C15.34 6.65 14.68 8.3 14 10 C9.38 10 4.76 10 0 10 C0 6.7 0 3.4 0 0 Z " fill="#F6D2CD" transform="translate(65,108)"/>
<path d="M0 0 C4.29 0 8.58 0 13 0 C13 1.65 13 3.3 13 5 C10.36 5 7.72 5 5 5 C5 5.99 5 6.98 5 8 C7.64 8 10.28 8 13 8 C13.33 7.34 13.66 6.68 14 6 C16.30441554 9.45662331 16.25860135 10.94857881 16 15 C15.67 15.66 15.34 16.32 15 17 C11.37 17 7.74 17 4 17 C4 15.35 4 13.7 4 12 C6.64 12 9.28 12 12 12 C12 11.01 12 10.02 12 9 C9.36 9 6.72 9 4 9 C4 7.35 4 5.7 4 4 C6.64 4 9.28 4 12 4 C12 3.01 12 2.02 12 1 C8.04 1 4.08 1 0 1 C0 0.67 0 0.34 0 0 Z " fill="#D5C7D6" transform="translate(141,80)"/>
<path d="M0 0 C0.99 0.66 1.98 1.32 3 2 C3.99 1.67 4.98 1.34 6 1 C6.67354499 2.43429001 7.33859701 3.87257057 8 5.3125 C8.556875 6.51326172 8.556875 6.51326172 9.125 7.73828125 C10 10 10 10 10 13 C8.68 13 7.36 13 6 13 C5.67 12.34 5.34 11.68 5 11 C2.03 11 -0.94 11 -4 11 C-4.33 11.66 -4.66 12.32 -5 13 C-6.65 13 -8.3 13 -10 13 C-9.34 11.35 -8.68 9.7 -8 8 C-3.71 8.33 0.58 8.66 5 9 C4.67 8.34 4.34 7.68 4 7 C0.97065509 6.34227572 0.97065509 6.34227572 -2 6 C-1.34 4.02 -0.68 2.04 0 0 Z " fill="#401147" transform="translate(35,88)"/>
<path d="M0 0 C6 0 6 0 7.9375 1.0625 C9.6490104 4.18348955 8.79291991 6.64533884 8 10 C7.34 10.66 6.68 11.32 6 12 C4.02 12 2.04 12 0 12 C0 8.04 0 4.08 0 0 Z " fill="#F7F0F8" transform="translate(108,85)"/>
<path d="M0 0 C4.22267908 2.11133954 4.94354615 2.98501867 7 7 C7.33 7.99 7.66 8.98 8 10 C7.01 10 6.02 10 5 10 C4.67 13.3 4.34 16.6 4 20 C2.68 20 1.36 20 0 20 C0 13.4 0 6.8 0 0 Z " fill="#38063F" transform="translate(158,81)"/>
<path d="M0 0 C6.15234375 0.5859375 6.15234375 0.5859375 8 1 C8.33 1.66 8.66 2.32 9 3 C10.65 2.67 12.3 2.34 14 2 C13.01 4.97 12.02 7.94 11 11 C10.01 11 9.02 11 8 11 C8 10.34 8 9.68 8 9 C7.34 9 6.68 9 6 9 C6 9.66 6 10.32 6 11 C5.34 10.67 4.68 10.34 4 10 C4.66 8.68 5.32 7.36 6 6 C5.5875 6.515625 5.175 7.03125 4.75 7.5625 C4.1725 8.036875 3.595 8.51125 3 9 C0.8125 8.6875 0.8125 8.6875 -1 8 C-0.67 6.35 -0.34 4.7 0 3 C1.32 3 2.64 3 4 3 C2.68 2.67 1.36 2.34 0 2 C0 1.34 0 0.68 0 0 Z " fill="#FBDBD6" transform="translate(75,107)"/>
<path d="M0 0 C2.1875 -0.375 2.1875 -0.375 5 0 C6.99022836 1.83961648 8.38989899 3.79186148 10 6 C9.01 8.31 8.02 10.62 7 13 C4.69 13 2.38 13 0 13 C-0.1875 10.625 -0.1875 10.625 0 8 C0.99 7.34 1.98 6.68 3 6 C2.01 5.67 1.02 5.34 0 5 C0 3.35 0 1.7 0 0 Z " fill="#522459" transform="translate(52,84)"/>
<path d="M0 0 C3.63 0 7.26 0 11 0 C11 0.99 11 1.98 11 3 C8.69 3 6.38 3 4 3 C4 4.65 4 6.3 4 8 C6.31 8 8.62 8 11 8 C11 8.99 11 9.98 11 11 C4.375 11.25 4.375 11.25 1 9 C1 11.64 1 14.28 1 17 C0.67 17 0.34 17 0 17 C0 11.39 0 5.78 0 0 Z " fill="#35053C" transform="translate(68,81)"/>
<path d="M0 0 C1.98 0 3.96 0 6 0 C6 0.99 6 1.98 6 3 C5.34 3 4.68 3 4 3 C4.14109986 5.10448938 4.28804175 7.2085877 4.4375 9.3125 C4.51871094 10.48425781 4.59992188 11.65601562 4.68359375 12.86328125 C4.8867371 16.02590958 4.8867371 16.02590958 6 19 C4.02 19 2.04 19 0 19 C0 12.73 0 6.46 0 0 Z " fill="#3B0243" transform="translate(104,81)"/>
<path d="M0 0 C1.65 0 3.3 0 5 0 C4.01 0.33 3.02 0.66 2 1 C2 1.66 2 2.32 2 3 C2.99 3 3.98 3 5 3 C5 3.66 5 4.32 5 5 C4.01 5 3.02 5 2 5 C2 5.66 2 6.32 2 7 C3.65 7 5.3 7 7 7 C7.268125 6.030625 7.53625 5.06125 7.8125 4.0625 C8.4003125 2.5465625 8.4003125 2.5465625 9 1 C9.99 0.67 10.98 0.34 12 0 C12.99 2.97 13.98 5.94 15 9 C14.34 9 13.68 9 13 9 C13 8.34 13 7.68 13 7 C12.01 7.495 12.01 7.495 11 8 C7.13938967 9.28687011 4.05849717 9.13757618 0 9 C0 6.03 0 3.06 0 0 Z " fill="#C26965" transform="translate(133,109)"/>
<path d="M0 0 C2.64 0 5.28 0 8 0 C8 1.32 8 2.64 8 4 C8.99 4.33 9.98 4.66 11 5 C11 7.97 11 10.94 11 14 C10.01 14.33 9.02 14.66 8 15 C8 13.02 8 11.04 8 9 C5.36 9 2.72 9 0 9 C0 7.35 0 5.7 0 4 C2.31 4 4.62 4 7 4 C7 3.01 7 2.02 7 1 C4.69 1 2.38 1 0 1 C0 0.67 0 0.34 0 0 Z " fill="#E3D5E4" transform="translate(129,88)"/>
<path d="M0 0 C2.97 0.33 5.94 0.66 9 1 C9.02688151 2.64574566 9.04634123 4.29161413 9.0625 5.9375 C9.07410156 6.85402344 9.08570313 7.77054687 9.09765625 8.71484375 C9 11 9 11 8 12 C5.32941149 12.14115161 2.67567762 12.04247107 0 12 C0.66 11.67 1.32 11.34 2 11 C2 9.68 2 8.36 2 7 C2.99 7 3.98 7 5 7 C5 8.32 5 9.64 5 11 C5.66 11 6.32 11 7 11 C7 8.03 7 5.06 7 2 C6.34 2 5.68 2 5 2 C5 2.99 5 3.98 5 5 C3.68 5 2.36 5 1 5 C0.67 3.35 0.34 1.7 0 0 Z " fill="#FDE9E4" transform="translate(168,107)"/>
<path d="M0 0 C0.33 0 0.66 0 1 0 C1 6.6 1 13.2 1 20 C0.67 20 0.34 20 0 20 C-0.09087891 19.04287109 -0.09087891 19.04287109 -0.18359375 18.06640625 C-0.26738281 17.24011719 -0.35117188 16.41382812 -0.4375 15.5625 C-0.51871094 14.73878906 -0.59992188 13.91507813 -0.68359375 13.06640625 C-0.78930815 11.01337975 -0.78930815 11.01337975 -2 10 C-2.33 11.98 -2.66 13.96 -3 16 C-3.99 15.67 -4.98 15.34 -6 15 C-6.33 14.01 -6.66 13.02 -7 12 C-6.34 11.34 -5.68 10.68 -5 10 C-4.60235737 8.01178687 -4.26224651 6.01055661 -4 4 C-3.01 4.66 -2.02 5.32 -1 6 C-0.67 4.02 -0.34 2.04 0 0 Z " fill="#E1D3E4" transform="translate(103,81)"/>
<path d="M0 0 C1.32 0.66 2.64 1.32 4 2 C3.6875 4.875 3.6875 4.875 3 8 C-0.52679099 10.35119399 -2.02879485 10.21443452 -6.1875 10.125 C-7.27417969 10.10695313 -8.36085937 10.08890625 -9.48046875 10.0703125 C-10.72763672 10.03550781 -10.72763672 10.03550781 -12 10 C-12 9.67 -12 9.34 -12 9 C-8.7 8.67 -5.4 8.34 -2 8 C-4.97 7.505 -4.97 7.505 -8 7 C-8 6.67 -8 6.34 -8 6 C-4.535 5.505 -4.535 5.505 -1 5 C-0.67 3.35 -0.34 1.7 0 0 Z " fill="#401849" transform="translate(60,91)"/>
<path d="M0 0 C1.98 0 3.96 0 6 0 C6.70074844 3.153368 7 5.72724974 7 9 C5 9 5 9 3.375 7.5 C2.92125 7.005 2.4675 6.51 2 6 C2 6.99 2 7.98 2 9 C1.34 9 0.68 9 0 9 C0 6.03 0 3.06 0 0 Z " fill="#B96C64" transform="translate(149,109)"/>
<path d="M0 0 C1.98 0 3.96 0 6 0 C6.91058531 3.07322544 7.08886184 5.80097361 7 9 C5 9 5 9 3.375 7.5 C2.92125 7.005 2.4675 6.51 2 6 C2 6.99 2 7.98 2 9 C1.34 9 0.68 9 0 9 C0 6.03 0 3.06 0 0 Z " fill="#B86964" transform="translate(41,109)"/>
<path d="M0 0 C2.3125 0.125 2.3125 0.125 5 1 C6.8125 4.0625 6.8125 4.0625 8 7 C5.29120665 8.35439668 2.99066732 8.06501451 0 8 C0 5.36 0 2.72 0 0 Z " fill="#EEE1EE" transform="translate(88,94)"/>
<path d="M0 0 C0.33 0 0.66 0 1 0 C1.33 4.62 1.66 9.24 2 14 C1.01 14.66 0.02 15.32 -1 16 C-6 10.375 -6 10.375 -6 7 C-5.67 6.34 -5.34 5.68 -5 5 C-3.68 6.32 -2.36 7.64 -1 9 C-0.67 6.03 -0.34 3.06 0 0 Z " fill="#562A5D" transform="translate(170,81)"/>
<path d="M0 0 C1.99954746 -0.04254356 4.00041636 -0.04080783 6 0 C7 1 7 1 7.125 3.5 C7 6 7 6 6 7 C4.00041636 7.04080783 1.99954746 7.04254356 0 7 C0 4.69 0 2.38 0 0 Z " fill="#F8F3F9" transform="translate(88,84)"/>
<path d="M0 0 C0.33 0 0.66 0 1 0 C1 6.6 1 13.2 1 20 C0.01 18.68 -0.98 17.36 -2 16 C-2.99 16 -3.98 16 -5 16 C-4.34 12.7 -3.68 9.4 -3 6 C-2.67 6 -2.34 6 -2 6 C-2 7.98 -2 9.96 -2 12 C-1.34 12 -0.68 12 0 12 C0 8.04 0 4.08 0 0 Z " fill="#E5D3E7" transform="translate(124,81)"/>
<path d="M0 0 C3 1 3 1 4 3 C6.02463255 3.65213292 6.02463255 3.65213292 8 4 C8.33 5.65 8.66 7.3 9 9 C9.99 9.33 10.98 9.66 12 10 C12 10.66 12 11.32 12 12 C10.02 12 8.04 12 6 12 C6 10.02 6 8.04 6 6 C4.68 6 3.36 6 2 6 C2 5.34 2 4.68 2 4 C1.34 4 0.68 4 0 4 C0 2.68 0 1.36 0 0 Z " fill="#F8E4E3" transform="translate(18,104)"/>
<path d="M0 0 C1.65 0 3.3 0 5 0 C5.144375 0.7425 5.28875 1.485 5.4375 2.25 C5.90187492 4.52027739 6.41863569 6.75759479 7 9 C5 8 3 7 1 6 C0.67 6.66 0.34 7.32 0 8 C0 5.36 0 2.72 0 0 Z " fill="#BD6D67" transform="translate(109,109)"/>
<path d="M0 0 C0.99 0 1.98 0 3 0 C4.32 2.31 5.64 4.62 7 7 C6.01 7.66 5.02 8.32 4 9 C1.5 7.8125 1.5 7.8125 -1 6 C-1.375 3.375 -1.375 3.375 -1 1 C-0.67 0.67 -0.34 0.34 0 0 Z " fill="#906994" transform="translate(97,110)"/>
<path d="M0 0 C1.98 0 3.96 0 6 0 C6 0.99 6 1.98 6 3 C5.01 3.33 4.02 3.66 3 4 C3 3.34 3 2.68 3 2 C2.34 2 1.68 2 1 2 C1 7.28 1 12.56 1 18 C1.99 18 2.98 18 4 18 C4.33 17.34 4.66 16.68 5 16 C5.33 16.99 5.66 17.98 6 19 C4.02 19 2.04 19 0 19 C0 12.73 0 6.46 0 0 Z " fill="#32063A" transform="translate(104,81)"/>
<path d="M0 0 C1.4540625 0.0309375 1.4540625 0.0309375 2.9375 0.0625 C3.2675 1.0525 3.5975 2.0425 3.9375 3.0625 C2.2875 2.7325 0.6375 2.4025 -1.0625 2.0625 C-1.3925 3.3825 -1.7225 4.7025 -2.0625 6.0625 C-0.0825 5.7325 1.8975 5.4025 3.9375 5.0625 C3.2775 6.3825 2.6175 7.7025 1.9375 9.0625 C-2.8125 8.3125 -2.8125 8.3125 -5.0625 6.0625 C-4.33395709 0.0884481 -4.33395709 0.0884481 0 0 Z " fill="#B35F5C" transform="translate(162.0625,108.9375)"/>
<path d="M0 0 C0 0.99 0 1.98 0 3 C-1.65 2.67 -3.3 2.34 -5 2 C-4.67 4.97 -4.34 7.94 -4 11 C-4.66 11 -5.32 11 -6 11 C-6.66 9.02 -7.32 7.04 -8 5 C-8.66 5.99 -9.32 6.98 -10 8 C-10.33 6.02 -10.66 4.04 -11 2 C-5.555 1.01 -5.555 1.01 0 0 Z " fill="#ECCBCA" transform="translate(114,107)"/>
<path d="M0 0 C0 0.33 0 0.66 0 1 C-1.65 1 -3.3 1 -5 1 C-5 3.64 -5 6.28 -5 9 C-5.66 8.67 -6.32 8.34 -7 8 C-7 7.01 -7 6.02 -7 5 C-8.65 4.67 -10.3 4.34 -12 4 C-12 3.34 -12 2.68 -12 2 C-10.68 2 -9.36 2 -8 2 C-9.32 1.34 -10.64 0.68 -12 0 C-7.74433453 -1.16063604 -4.3164922 -0.76173392 0 0 Z " fill="#FACDC7" transform="translate(138,108)"/>
<path d="M0 0 C0.99 0 1.98 0 3 0 C3 2.31 3 4.62 3 7 C2.34 6.34 1.68 5.68 1 5 C0.67 5.33 0.34 5.66 0 6 C-2.67058851 6.14115161 -5.32432238 6.04247107 -8 6 C-8 5.01 -8 4.02 -8 3 C-5.36 3 -2.72 3 0 3 C0 2.01 0 1.02 0 0 Z " fill="#FCF2FC" transform="translate(154,82)"/>
<path d="M0 0 C0.78375 0.04125 1.5675 0.0825 2.375 0.125 C2.705 0.785 3.035 1.445 3.375 2.125 C1.725 2.125 0.075 2.125 -1.625 2.125 C-1.625 3.445 -1.625 4.765 -1.625 6.125 C-0.635 6.125 0.355 6.125 1.375 6.125 C1.045 5.465 0.715 4.805 0.375 4.125 C1.695 4.125 3.015 4.125 4.375 4.125 C3.715 5.775 3.055 7.425 2.375 9.125 C-0.595 8.63 -0.595 8.63 -3.625 8.125 C-4.25 5.25 -4.25 5.25 -4.625 2.125 C-2.625 0.125 -2.625 0.125 0 0 Z " fill="#AF5652" transform="translate(76.625,108.875)"/>
<path d="M0 0 C2.31 0.33 4.62 0.66 7 1 C7.33 2.65 7.66 4.3 8 6 C4.38970831 6 1.44193324 5.03907418 -2 4 C-1.34 3.67 -0.68 3.34 0 3 C0 2.01 0 1.02 0 0 Z " fill="#431949" transform="translate(110,81)"/>
<path d="M0 0 C1.65 0 3.3 0 5 0 C5.33 0.66 5.66 1.32 6 2 C4.35 1.67 2.7 1.34 1 1 C1 1.66 1 2.32 1 3 C2.65 3.33 4.3 3.66 6 4 C5.67 5.65 5.34 7.3 5 9 C2.5625 8.625 2.5625 8.625 0 8 C-0.33 7.34 -0.66 6.68 -1 6 C1.475 6.495 1.475 6.495 4 7 C4 6.34 4 5.68 4 5 C2.35 4.67 0.7 4.34 -1 4 C-0.67 2.68 -0.34 1.36 0 0 Z " fill="#B05B59" transform="translate(125,109)"/>
<path d="M0 0 C0.99 0.33 1.98 0.66 3 1 C4.1875 4.5625 4.1875 4.5625 5 8 C2.03 7.505 2.03 7.505 -1 7 C-1 7.66 -1 8.32 -1 9 C-1.66 9 -2.32 9 -3 9 C-2.01 6.03 -1.02 3.06 0 0 Z " fill="#BC5F5A" transform="translate(52,109)"/>
<path d="M0 0 C1.42944945 2.35438733 2.08661261 3.48032433 1.625 6.25 C1.41875 6.8275 1.2125 7.405 1 8 C0.34 8 -0.32 8 -1 8 C-1.33 9.65 -1.66 11.3 -2 13 C-2.33 13 -2.66 13 -3 13 C-2.67 10.69 -2.34 8.38 -2 6 C-2.99 6 -3.98 6 -5 6 C-5.33 5.34 -5.66 4.68 -6 4 C-5.34 4 -4.68 4 -4 4 C-4 3.34 -4 2.68 -4 2 C-2.68 2 -1.36 2 0 2 C0 1.34 0 0.68 0 0 Z " fill="#FBE8E6" transform="translate(89,105)"/>
<path d="M0 0 C1.98 0 3.96 0 6 0 C4.68 0.33 3.36 0.66 2 1 C2 1.66 2 2.32 2 3 C2.99 3 3.98 3 5 3 C5 3.66 5 4.32 5 5 C4.01 5 3.02 5 2 5 C2 5.66 2 6.32 2 7 C3.32 7 4.64 7 6 7 C6 7.66 6 8.32 6 9 C4.02 9 2.04 9 0 9 C0 6.03 0 3.06 0 0 Z " fill="#B55D5A" transform="translate(117,109)"/>
<path d="M0 0 C3.63 0 7.26 0 11 0 C11 0.33 11 0.66 11 1 C7.7 1 4.4 1 1 1 C1 7.6 1 14.2 1 21 C0.01 21 -0.98 21 -2 21 C-2 20.34 -2 19.68 -2 19 C-1.34 19 -0.68 19 0 19 C0 12.73 0 6.46 0 0 Z " fill="#E3D2E5" transform="translate(47,80)"/>
<path d="M0 0 C1.65 0 3.3 0 5 0 C5.33 0.66 5.66 1.32 6 2 C4.68 2 3.36 2 2 2 C3.32 2.66 4.64 3.32 6 4 C5.67 5.65 5.34 7.3 5 9 C2.5625 8.625 2.5625 8.625 0 8 C-0.33 7.34 -0.66 6.68 -1 6 C1.475 6.495 1.475 6.495 4 7 C4 6.34 4 5.68 4 5 C2.68 4.67 1.36 4.34 0 4 C0 2.68 0 1.36 0 0 Z " fill="#B15957" transform="translate(26,109)"/>
<path d="M0 0 C1.65 0 3.3 0 5 0 C4.01 0.33 3.02 0.66 2 1 C2 1.66 2 2.32 2 3 C2.99 3 3.98 3 5 3 C5 3.66 5 4.32 5 5 C4.01 5 3.02 5 2 5 C2 5.66 2 6.32 2 7 C3.32 7 4.64 7 6 7 C6 7.66 6 8.32 6 9 C4.02 9 2.04 9 0 9 C0 6.03 0 3.06 0 0 Z " fill="#B15C57" transform="translate(65,109)"/>
<path d="M0 0 C2.31 0 4.62 0 7 0 C7 0.66 7 1.32 7 2 C6.34 2 5.68 2 5 2 C5 4.31 5 6.62 5 9 C4.01 9 3.02 9 2 9 C2 6.69 2 4.38 2 2 C1.34 2 0.68 2 0 2 C0 1.34 0 0.68 0 0 Z " fill="#C5817C" transform="translate(57,109)"/>
<path d="M0 0 C3.84345809 1.45786341 5.15079935 3.38965588 7 7 C7.33 7.99 7.66 8.98 8 10 C5.03824877 9.38722388 3.61941217 8.74627478 1 7 C0.3125 3.375 0.3125 3.375 0 0 Z " fill="#3E0B46" transform="translate(158,81)"/>
<path d="M0 0 C0.66 0 1.32 0 2 0 C2.3125 3.3125 2.3125 3.3125 2 7 C-0.5 8.9375 -0.5 8.9375 -3 10 C-3 9.34 -3 8.68 -3 8 C-4.32 8.33 -5.64 8.66 -7 9 C-7.33 7.68 -7.66 6.36 -8 5 C-5.03 5.495 -5.03 5.495 -2 6 C-1.34 4.02 -0.68 2.04 0 0 Z " fill="#FBE9E7" transform="translate(33,111)"/>
<path d="M0 0 C0.33 0.99 0.66 1.98 1 3 C2.32 3 3.64 3 5 3 C5 2.01 5 1.02 5 0 C5.66 0 6.32 0 7 0 C7 2.97 7 5.94 7 9 C6.34 9 5.68 9 5 9 C5 7.68 5 6.36 5 5 C3.68 5 2.36 5 1 5 C0.67 5.99 0.34 6.98 0 8 C0 5.36 0 2.72 0 0 Z " fill="#AC5451" transform="translate(168,109)"/>
<path d="M0 0 C1.5 1.125 1.5 1.125 3 3 C3.1875 6.1875 3.1875 6.1875 3 9 C2.34 9 1.68 9 1 9 C0.67 9.99 0.34 10.98 0 12 C-1.49498913 9.01002175 -1.11577446 6.29957225 -1 3 C-0.67 2.01 -0.34 1.02 0 0 Z " fill="#37093E" transform="translate(118,84)"/>
<path d="M0 0 C2.31 0 4.62 0 7 0 C6.34 2.97 5.68 5.94 5 9 C4.01 9 3.02 9 2 9 C2 6.36 2 3.72 2 1 C1.34 0.67 0.68 0.34 0 0 Z " fill="#C17B76" transform="translate(33,109)"/>
<path d="M0 0 C2.1875 1.125 2.1875 1.125 4 3 C4.25 5.6875 4.25 5.6875 4 8 C2.1875 7.875 2.1875 7.875 0 7 C-1.75 3.9375 -1.75 3.9375 -3 1 C-2.01 0.67 -1.02 0.34 0 0 Z " fill="#44184B" transform="translate(59,81)"/>
<path d="M0 0 C0.33 0 0.66 0 1 0 C1.12375 0.804375 1.2475 1.60875 1.375 2.4375 C1.684375 3.7059375 1.684375 3.7059375 2 5 C2.66 5.33 3.32 5.66 4 6 C4 5.01 4 4.02 4 3 C4.99 3.33 5.98 3.66 7 4 C5 7 5 7 2.8359375 7.51171875 C2.02382813 7.56972656 1.21171875 7.62773438 0.375 7.6875 C-0.85089844 7.78611328 -0.85089844 7.78611328 -2.1015625 7.88671875 C-2.72804687 7.92410156 -3.35453125 7.96148437 -4 8 C-4 7.34 -4 6.68 -4 6 C-3.01 6 -2.02 6 -1 6 C-1.020625 5.195625 -1.04125 4.39125 -1.0625 3.5625 C-1 1 -1 1 0 0 Z " fill="#FAEDE7" transform="translate(39,112)"/>
<path d="M0 0 C4.29 0.33 8.58 0.66 13 1 C13 1.33 13 1.66 13 2 C12.04287109 2.07347656 12.04287109 2.07347656 11.06640625 2.1484375 C10.24011719 2.22320312 9.41382813 2.29796875 8.5625 2.375 C7.32693359 2.47941406 7.32693359 2.47941406 6.06640625 2.5859375 C5.38449219 2.72257812 4.70257812 2.85921875 4 3 C3.67 3.66 3.34 4.32 3 5 C1.35 5 -0.3 5 -2 5 C-1.34 3.35 -0.68 1.7 0 0 Z " fill="#5C345E" transform="translate(27,96)"/>
<path d="M0 0 C1.65 0 3.3 0 5 0 C5.66 1.32 6.32 2.64 7 4 C6 5 6 5 2.9375 5.0625 C1.4834375 5.0315625 1.4834375 5.0315625 0 5 C0 3.35 0 1.7 0 0 Z " fill="#E1CFE3" transform="translate(52,84)"/>
<path d="M0 0 C0.680625 0.309375 1.36125 0.61875 2.0625 0.9375 C5.36965912 2.13370649 8.51545878 2.59005397 12 3 C11.67 3.66 11.34 4.32 11 5 C9.54176788 5.0270043 8.08339325 5.04639787 6.625 5.0625 C5.81289062 5.07410156 5.00078125 5.08570312 4.1640625 5.09765625 C2 5 2 5 0 4 C0 2.68 0 1.36 0 0 Z " fill="#F1E5F1" transform="translate(90,116)"/>
<path d="M0 0 C4.16138263 -0.08159574 7.9472484 0.01751476 12 1 C12 1.33 12 1.66 12 2 C9.69 2 7.38 2 5 2 C5 2.66 5 3.32 5 4 C5.66 4.33 6.32 4.66 7 5 C6.34 5 5.68 5 5 5 C4.67 5.99 4.34 6.98 4 8 C3.71125 7.195625 3.4225 6.39125 3.125 5.5625 C2.26737432 2.8673532 2.26737432 2.8673532 0 2 C0 1.34 0 0.68 0 0 Z " fill="#FADCD9" transform="translate(52,107)"/>
<path d="M0 0 C1.65 0 3.3 0 5 0 C4.01 0.33 3.02 0.66 2 1 C2 1.66 2 2.32 2 3 C2.99 3 3.98 3 5 3 C5 3.66 5 4.32 5 5 C4.01 5 3.02 5 2 5 C2 5.66 2 6.32 2 7 C2.99 7.33 3.98 7.66 5 8 C3.35 8 1.7 8 0 8 C0 5.36 0 2.72 0 0 Z " fill="#AC4F49" transform="translate(133,109)"/>
<path d="M0 0 C0.66 0.33 1.32 0.66 2 1 C1.01 3.97 0.02 6.94 -1 10 C-3 8 -3 8 -3.125 4.375 C-3.08375 3.26125 -3.0425 2.1475 -3 1 C-2.01 0.67 -1.02 0.34 0 0 Z " fill="#FBE1DB" transform="translate(50,108)"/>
<path d="M0 0 C0.66 0 1.32 0 2 0 C3.32 2.31 4.64 4.62 6 7 C3.6875 7.3125 3.6875 7.3125 1 7 C-0.8125 4.5 -0.8125 4.5 -2 2 C-1.34 2 -0.68 2 0 2 C0 1.34 0 0.68 0 0 Z " fill="#431947" transform="translate(95,94)"/>
<path d="M0 0 C2.31 0 4.62 0 7 0 C7 1.32 7 2.64 7 4 C4.69 4 2.38 4 0 4 C0 2.68 0 1.36 0 0 Z " fill="#F6E6F6" transform="translate(52,93)"/>
<path d="M0 0 C1.1446875 0.2475 1.1446875 0.2475 2.3125 0.5 C5.03596236 1.09145396 5.03596236 1.09145396 8 1 C7.01 2.485 7.01 2.485 6 4 C5.61500109 5.65549531 5.27206865 7.3222433 5 9 C4.34 9 3.68 9 3 9 C2 6 1 3 0 0 Z " fill="#B45952" transform="translate(81,109)"/>
<path d="M0 0 C1.65 0.33 3.3 0.66 5 1 C4.34 2.65 3.68 4.3 3 6 C1.68 5.67 0.36 5.34 -1 5 C-0.67 3.35 -0.34 1.7 0 0 Z " fill="#F6CAC4" transform="translate(75,110)"/>
<path d="M0 0 C0.99 0 1.98 0 3 0 C3.433125 0.9590625 3.433125 0.9590625 3.875 1.9375 C4.82823451 4.15206079 4.82823451 4.15206079 7 5 C7.33 4.01 7.66 3.02 8 2 C8 4.31 8 6.62 8 9 C6.84775972 8.07038578 5.70340824 7.1309875 4.5625 6.1875 C3.60537109 5.40439453 3.60537109 5.40439453 2.62890625 4.60546875 C1 3 1 3 0 0 Z " fill="#F9E8F8" transform="translate(162,82)"/>
<path d="M0 0 C3.63 0 7.26 0 11 0 C11 0.99 11 1.98 11 3 C8.69 3 6.38 3 4 3 C4 2.34 4 1.68 4 1 C2.68 1.33 1.36 1.66 0 2 C0 1.34 0 0.68 0 0 Z " fill="#330639" transform="translate(68,81)"/>
<path d="M0 0 C0.33 0.99 0.66 1.98 1 3 C1.66 3 2.32 3 3 3 C2.67 4.32 2.34 5.64 2 7 C0.35 7 -1.3 7 -3 7 C-3 6.34 -3 5.68 -3 5 C-2.01 5 -1.02 5 0 5 C0 4.34 0 3.68 0 3 C-0.99 3 -1.98 3 -3 3 C-3 2.34 -3 1.68 -3 1 C-2.01 0.67 -1.02 0.34 0 0 Z " fill="#F9DFDB" transform="translate(138,109)"/>
<path d="M0 0 C2.64 0 5.28 0 8 0 C8 0.33 8 0.66 8 1 C6.35 1 4.7 1 3 1 C3 1.99 3 2.98 3 4 C4.65 4 6.3 4 8 4 C8 4.33 8 4.66 8 5 C5.36 5 2.72 5 0 5 C0 3.35 0 1.7 0 0 Z " fill="#D0B7D2" transform="translate(145,92)"/>
<path d="M0 0 C0.99 0 1.98 0 3 0 C3 2.97 3 5.94 3 9 C2.01 8.67 1.02 8.34 0 8 C0 5.36 0 2.72 0 0 Z " fill="#36043D" transform="translate(171,81)"/>
<path d="M0 0 C2.375 -0.125 2.375 -0.125 5 0 C7 2 7 2 7 5 C4.61435923 4.42415568 2.33317216 3.77772405 0 3 C0 2.01 0 1.02 0 0 Z " fill="#FEF5FE" transform="translate(109,85)"/>
<path d="M0 0 C0.99 0.33 1.98 0.66 3 1 C2.67 2.65 2.34 4.3 2 6 C0.68 5.67 -0.64 5.34 -2 5 C-1.125 1.125 -1.125 1.125 0 0 Z " fill="#F9DAD6" transform="translate(161,110)"/>
<path d="M0 0 C1.32 0 2.64 0 4 0 C4 0.66 4 1.32 4 2 C2.68 2.33 1.36 2.66 0 3 C0 3.66 0 4.32 0 5 C-0.66 5 -1.32 5 -2 5 C-2 4.34 -2 3.68 -2 3 C-3.98 3 -5.96 3 -8 3 C-8 2.67 -8 2.34 -8 2 C-6.865625 1.855625 -5.73125 1.71125 -4.5625 1.5625 C-1.19222799 1.38828522 -1.19222799 1.38828522 0 0 Z " fill="#FCE6E4" transform="translate(142,116)"/>
<path d="M0 0 C0.2475 0.61875 0.495 1.2375 0.75 1.875 C2.20628639 4.35068687 3.37812506 4.95125002 6 6 C6 6.33 6 6.66 6 7 C4.02 7 2.04 7 0 7 C-0.66 5.68 -1.32 4.36 -2 3 C-1.34 2.01 -0.68 1.02 0 0 Z " fill="#350A39" transform="translate(95,112)"/>
<path d="M0 0 C1.98 0 3.96 0 6 0 C5.67 1.65 5.34 3.3 5 5 C3.68 5 2.36 5 1 5 C0.67 3.35 0.34 1.7 0 0 Z " fill="#F9DCDC" transform="translate(168,107)"/>
<path d="M0 0 C1.32 0.66 2.64 1.32 4 2 C4 3.98 4 5.96 4 8 C1.47411298 5.63707344 0.11179163 4.33537489 -1 1 C-0.67 0.67 -0.34 0.34 0 0 Z " fill="#380840" transform="translate(100,108)"/>
<path d="M0 0 C2.64 0 5.28 0 8 0 C7.67 0.99 7.34 1.98 7 3 C4.36 3 1.72 3 -1 3 C-0.67 2.01 -0.34 1.02 0 0 Z " fill="#330838" transform="translate(72,97)"/>
<path d="M0 0 C2.31 0 4.62 0 7 0 C7.33 0.99 7.66 1.98 8 3 C5.36 3 2.72 3 0 3 C0 2.01 0 1.02 0 0 Z " fill="#34043D" transform="translate(32,94)"/>
<path d="M0 0 C1.99954746 -0.04254356 4.00041636 -0.04080783 6 0 C7 1 7 1 7.125 3.5 C7 6 7 6 6 7 C4.00041636 7.04080783 1.99954746 7.04254356 0 7 C0 6.67 0 6.34 0 6 C1.65 6 3.3 6 5 6 C4.80528889 4.05000871 4.80528889 4.05000871 4 2 C2.0162233 0.71563266 2.0162233 0.71563266 0 0 Z " fill="#CEB6D1" transform="translate(88,84)"/>
<path d="M0 0 C0.99 0 1.98 0 3 0 C1.125 5.75 1.125 5.75 0 8 C-0.66 8 -1.32 8 -2 8 C-3 5 -3 5 -1.75 2.3125 C-1.1725 1.549375 -0.595 0.78625 0 0 Z " fill="#EDE2EE" transform="translate(31,81)"/>
<path d="M0 0 C1.9375 0.3125 1.9375 0.3125 4 1 C4.33 1.99 4.66 2.98 5 4 C1.25 5.125 1.25 5.125 -1 4 C-0.67 2.68 -0.34 1.36 0 0 Z " fill="#F2EDF4" transform="translate(91,97)"/>
<path d="M0 0 C2.31 0 4.62 0 7 0 C7 0.99 7 1.98 7 3 C4.69 3 2.38 3 0 3 C0 2.01 0 1.02 0 0 Z " fill="#35063A" transform="translate(146,97)"/>
<path d="M0 0 C2.97 0 5.94 0 9 0 C9 0.99 9 1.98 9 3 C7.02 3 5.04 3 3 3 C3 2.34 3 1.68 3 1 C2.01 0.67 1.02 0.34 0 0 Z " fill="#320738" transform="translate(144,81)"/>
<path d="M0 0 C1.4540625 0.0309375 1.4540625 0.0309375 2.9375 0.0625 C3.2675 1.0525 3.5975 2.0425 3.9375 3.0625 C3.174375 2.876875 2.41125 2.69125 1.625 2.5 C-1.15217375 1.83430827 -1.15217375 1.83430827 -4.0625 3.0625 C-4.3925 4.0525 -4.7225 5.0425 -5.0625 6.0625 C-3.98897059 0.08140756 -3.98897059 0.08140756 0 0 Z " fill="#B56B65" transform="translate(162.0625,108.9375)"/>
<path d="M0 0 C0.99 0.33 1.98 0.66 3 1 C3 1.66 3 2.32 3 3 C4.65 3 6.3 3 8 3 C6.68 3.99 5.36 4.98 4 6 C3.67 5.34 3.34 4.68 3 4 C2.01 4 1.02 4 0 4 C0 2.68 0 1.36 0 0 Z " fill="#FAEDEA" transform="translate(151,115)"/>
<path d="M0 0 C0.99 0.33 1.98 0.66 3 1 C2.67 2.98 2.34 4.96 2 7 C1.01 7 0.02 7 -1 7 C-0.67 4.69 -0.34 2.38 0 0 Z " fill="#4C1F53" transform="translate(61,92)"/>
<path d="M0 0 C0.99 0.66 1.98 1.32 3 2 C3.1875 4.625 3.1875 4.625 3 7 C2.67 6.34 2.34 5.68 2 5 C1.34 5 0.68 5 0 5 C0 5.66 0 6.32 0 7 C-0.66 6.67 -1.32 6.34 -2 6 C-1.34 4.02 -0.68 2.04 0 0 Z " fill="#FDE8E2" transform="translate(81,111)"/>
<path d="M0 0 C3 3.75 3 3.75 3 6 C1.35 6 -0.3 6 -2 6 C-1.34 4.02 -0.68 2.04 0 0 Z " fill="#F3D7F5" transform="translate(35,88)"/>
<path d="M0 0 C0.66 0 1.32 0 2 0 C2 2.64 2 5.28 2 8 C1.01 7.34 0.02 6.68 -1 6 C-0.67 4.02 -0.34 2.04 0 0 Z " fill="#FBDBD7" transform="translate(115,110)"/>
<path d="M0 0 C0.33 0 0.66 0 1 0 C1 1.65 1 3.3 1 5 C-0.65 5 -2.3 5 -4 5 C-4 4.01 -4 3.02 -4 2 C-2.68 2 -1.36 2 0 2 C0 1.34 0 0.68 0 0 Z " fill="#EDE7ED" transform="translate(116,88)"/>
<path d="M0 0 C0.99 0 1.98 0 3 0 C3 2.31 3 4.62 3 7 C2.67 6.01 2.34 5.02 2 4 C1.01 3.67 0.02 3.34 -1 3 C-0.67 2.01 -0.34 1.02 0 0 Z " fill="#4E1457" transform="translate(69,82)"/>
<path d="M0 0 C2.97 0 5.94 0 9 0 C9 0.99 9 1.98 9 3 C5.85375007 3.26218749 4.38162983 3.24754367 1.6875 1.5 C1.130625 1.005 0.57375 0.51 0 0 Z " fill="#300835" transform="translate(128,81)"/>
</svg>
