<?xml version="1.0" encoding="UTF-8"?>
<svg version="1.1" xmlns="http://www.w3.org/2000/svg" width="200" height="200">
<path d="M0 0 C66 0 132 0 200 0 C200 66 200 132 200 200 C134 200 68 200 0 200 C0 134 0 68 0 0 Z " fill="#02182E" transform="translate(0,0)"/>
<path d="M0 0 C4.70588235 0.70588235 4.70588235 0.70588235 6 2 C6.14746242 4.3500873 6.23486302 6.67466707 6.28125 9.02734375 C6.29965942 9.73145889 6.31806885 10.43557404 6.33703613 11.161026 C6.3959536 13.41976343 6.4486881 15.67857774 6.5 17.9375 C6.5675677 20.9051114 6.64127205 23.87247647 6.71875 26.83984375 C6.73911316 27.86959572 6.73911316 27.86959572 6.7598877 28.92015076 C6.81506678 32.58365483 6.81506678 32.58365483 8 36 C7.67 36.66 7.34 37.32 7 38 C8.65 38.33 10.3 38.66 12 39 C12 38.34 12 37.68 12 37 C12.66 37 13.32 37 14 37 C14 36.34 14 35.68 14 35 C14.66 35 15.32 35 16 35 C15.66484375 34.35417969 15.3296875 33.70835938 14.984375 33.04296875 C13.67332027 28.9901448 13.94313918 25.51934772 14.25 21.3125 C14.28996094 20.54099609 14.32992187 19.76949219 14.37109375 18.97460938 C14.74045139 13.25954861 14.74045139 13.25954861 17 11 C21.55555556 11.55555556 21.55555556 11.55555556 23 13 C23.15655027 14.48638992 23.25066943 15.97949127 23.31640625 17.47265625 C23.35830078 18.37177734 23.40019531 19.27089844 23.44335938 20.19726562 C23.48267578 21.14279297 23.52199219 22.08832031 23.5625 23.0625 C23.60568359 24.01189453 23.64886719 24.96128906 23.69335938 25.93945312 C23.79979276 28.29281353 23.90181008 30.64628354 24 33 C24.61875 32.814375 25.2375 32.62875 25.875 32.4375 C28 32 28 32 30 33 C30 32.01 30 31.02 30 30 C30.99 30 31.98 30 33 30 C33 27.03 33 24.06 33 21 C35.375 20.375 35.375 20.375 38 20 C40 22 40 22 40.4375 24.5 C40.7765556 27.34936529 40.7765556 27.34936529 44 29 C44.33 29.33 44.66 29.66 45 30 C45 27.36 45 24.72 45 22 C45.66 23.32 46.32 24.64 47 26 C47.09087891 24.62714844 47.09087891 24.62714844 47.18359375 23.2265625 C47.26738281 22.03804687 47.35117188 20.84953125 47.4375 19.625 C47.51871094 18.44164063 47.59992188 17.25828125 47.68359375 16.0390625 C48 13 48 13 49 11 C55.875 11.875 55.875 11.875 57 13 C57.97196778 19.69577806 58.11368403 26.24211575 58 33 C61.0745356 32.2236068 61.0745356 32.2236068 63 30 C63.66 30 64.32 30 65 30 C65.01981934 29.16227051 65.03963867 28.32454102 65.06005859 27.46142578 C65.13810612 24.35634166 65.22479635 21.25165461 65.31738281 18.14697266 C65.37454036 16.14113029 65.42168596 14.13501082 65.46875 12.12890625 C65.50742188 10.87207031 65.54609375 9.61523438 65.5859375 8.3203125 C65.63306885 6.57645264 65.63306885 6.57645264 65.68115234 4.79736328 C66 2 66 2 68 0 C69.65 0.33 71.3 0.66 73 1 C73 13.54 73 26.08 73 39 C71.68 39 70.36 39 69 39 C69.66 39.33 70.32 39.66 71 40 C71 40.66 71 41.32 71 42 C67.535 42.495 67.535 42.495 64 43 C63.67 44.32 63.34 45.64 63 47 C62.34 47 61.68 47 61 47 C61.33 47.66 61.66 48.32 62 49 C62.04022391 51.3329866 62.04320247 53.66706666 62 56 C60.01432292 55.93489583 58.02864583 55.86979167 56.04296875 55.8046875 C53.68640281 55.86745538 53.68640281 55.86745538 51 58 C50.58333333 61.5 50.58333333 61.5 51 65 C52.78657757 67.21370051 52.78657757 67.21370051 55.1640625 67.1953125 C55.97617188 67.17210937 56.78828125 67.14890625 57.625 67.125 C58.44226563 67.10695313 59.25953125 67.08890625 60.1015625 67.0703125 C60.72804687 67.04710937 61.35453125 67.02390625 62 67 C62 69.31 62 71.62 62 74 C52.23172628 74.46189736 52.23172628 74.46189736 48 72.875 C43.45078784 68.6101136 42.63650531 63.91107429 42.2109375 57.953125 C42.10640736 55.92232441 42.10640736 55.92232441 41 54 C41.66 54 42.32 54 43 54 C43 53.34 43 52.68 43 52 C41.02 52 39.04 52 37 52 C37.495 54.97 37.495 54.97 38 58 C36.02 58.495 36.02 58.495 34 59 C34 58.34 34 57.68 34 57 C33.01 56.67 32.02 56.34 31 56 C29.65909241 55.34870203 28.32407669 54.68486725 27 54 C27 55.32 27 56.64 27 58 C28.093125 58.2475 29.18625 58.495 30.3125 58.75 C34 60 34 60 36 61.6875 C37.49302187 65.14011307 36.97563232 67.4226815 36 71 C33.65125515 73.39825002 32.35323893 73.96568275 28.984375 74.29296875 C27.91703125 74.25816406 26.8496875 74.22335938 25.75 74.1875 C24.13351563 74.14689453 24.13351563 74.14689453 22.484375 74.10546875 C21.66453125 74.07066406 20.8446875 74.03585938 20 74 C20 72.02 20 70.04 20 68 C22.97 68 25.94 68 29 68 C29.495 66.515 29.495 66.515 30 65 C28.9275 64.773125 27.855 64.54625 26.75 64.3125 C22.54178713 62.83962549 21.18194934 61.84023084 19 58 C18.75 54.6875 18.75 54.6875 19 52 C18.34 51.67 17.68 51.34 17 51 C17.33 50.34 17.66 49.68 18 49 C16.62514468 47.45833358 16.62514468 47.45833358 15 46 C14.34 46 13.68 46 13 46 C13.7763932 49.0745356 13.7763932 49.0745356 16 51 C14.68 51 13.36 51 12 51 C12 58.59 12 66.18 12 74 C9.69 74 7.38 74 5 74 C4.97113249 69.85418113 4.95324673 65.70838784 4.9375 61.5625 C4.92912109 60.37849609 4.92074219 59.19449219 4.91210938 57.97460938 C4.90888672 56.84990234 4.90566406 55.72519531 4.90234375 54.56640625 C4.89710693 53.52427979 4.89187012 52.48215332 4.88647461 51.40844727 C5 49 5 49 6 48 C5.34 47.67 4.68 47.34 4 47 C4 46.34 4 45.68 4 45 C4.66 45 5.32 45 6 45 C5.67 43.35 5.34 41.7 5 40 C4.505 40.495 4.505 40.495 4 41 C2.33382885 41.04063832 0.66611905 41.042721 -1 41 C-1.02464705 35.32169922 -1.04283462 29.64342931 -1.05493164 23.96508789 C-1.05997256 22.03181415 -1.06680519 20.09854424 -1.07543945 18.1652832 C-1.08751565 15.39273128 -1.09323057 12.62022959 -1.09765625 9.84765625 C-1.10281754 8.97786636 -1.10797882 8.10807648 -1.11329651 7.21192932 C-1.11349185 5.14094186 -1.06208168 3.07005676 -1 1 C-0.67 0.67 -0.34 0.34 0 0 Z " fill="#0A1E33" transform="translate(64,63)"/>
<path d="M0 0 C3.58786136 1.89110193 5.55321487 3.48761079 7 7.23828125 C7.5822518 11.46527807 7.44569111 15.15923962 5.8125 19.11328125 C3.06232637 22.33762275 0.9347956 23.94385583 -3.3359375 24.59375 C-7.75861253 24.83945417 -10.97644943 24.79137152 -14.5 21.92578125 C-18.14691651 18.005346 -19.46607677 15.72883193 -19.31640625 10.30078125 C-18.63778085 5.87714898 -16.07908843 3.13752161 -12.75 0.36328125 C-8.38214683 -1.42356778 -4.38882419 -1.67152484 0 0 Z " fill="#F3F7F8" transform="translate(151,112.76171875)"/>
<path d="M0 0 C1 1 1 1 1.0625 4.0625 C1.041875 5.031875 1.02125 6.00125 1 7 C-0.98567708 6.93489583 -2.97135417 6.86979167 -4.95703125 6.8046875 C-7.31359719 6.86745538 -7.31359719 6.86745538 -10 9 C-10.41666667 12.5 -10.41666667 12.5 -10 16 C-8.21342243 18.21370051 -8.21342243 18.21370051 -5.8359375 18.1953125 C-4.61777344 18.16050781 -4.61777344 18.16050781 -3.375 18.125 C-2.55773438 18.10695312 -1.74046875 18.08890625 -0.8984375 18.0703125 C0.04128906 18.03550781 0.04128906 18.03550781 1 18 C1 20.31 1 22.62 1 25 C-9.88406696 25.6249225 -9.88406696 25.6249225 -14.125 23.25 C-17.70368177 18.95558188 -18.3943279 15.67707452 -18.25 10.18359375 C-17.77419046 6.02769477 -15.99800221 3.87703224 -12.9375 1.1875 C-8.68528372 -0.53148105 -4.53669097 -0.43686654 0 0 Z " fill="#F6F9FA" transform="translate(60,112)"/>
<path d="M0 0 C1.50433594 0.01353516 1.50433594 0.01353516 3.0390625 0.02734375 C3.80992188 0.03894531 4.58078125 0.05054687 5.375 0.0625 C5.375 2.3725 5.375 4.6825 5.375 7.0625 C3.38932292 6.99739583 1.40364583 6.93229167 -0.58203125 6.8671875 C-2.93859719 6.92995538 -2.93859719 6.92995538 -5.625 9.0625 C-6.04166667 12.5625 -6.04166667 12.5625 -5.625 16.0625 C-3.83842243 18.27620051 -3.83842243 18.27620051 -1.4609375 18.2578125 C-0.24277344 18.22300781 -0.24277344 18.22300781 1 18.1875 C1.81726563 18.16945312 2.63453125 18.15140625 3.4765625 18.1328125 C4.41628906 18.09800781 4.41628906 18.09800781 5.375 18.0625 C5.375 20.3725 5.375 22.6825 5.375 25.0625 C-4.39327372 25.52439736 -4.39327372 25.52439736 -8.625 23.9375 C-12.37590611 20.42102553 -13.46727417 17.16658081 -14.1875 12.125 C-14.04557539 7.78377676 -12.03039639 5.48271501 -9.1328125 2.41015625 C-6.15872848 -0.24802766 -3.88101675 -0.0451281 0 0 Z " fill="#F0F4F6" transform="translate(120.625,111.9375)"/>
<path d="M0 0 C0 1.98 0 3.96 0 6 C-2.64 5.67 -5.28 5.34 -8 5 C-8 6.32 -8 7.64 -8 9 C-6.3603125 9.37125 -6.3603125 9.37125 -4.6875 9.75 C-1 11 -1 11 1 12.6875 C2.49302187 16.14011307 1.97563232 18.4226815 1 22 C-1.34874485 24.39825002 -2.64676107 24.96568275 -6.015625 25.29296875 C-7.08296875 25.25816406 -8.1503125 25.22335938 -9.25 25.1875 C-10.86648437 25.14689453 -10.86648437 25.14689453 -12.515625 25.10546875 C-13.74539062 25.05326172 -13.74539062 25.05326172 -15 25 C-15 23.02 -15 21.04 -15 19 C-12.03 19 -9.06 19 -6 19 C-5.67 18.01 -5.34 17.02 -5 16 C-6.093125 15.731875 -7.18625 15.46375 -8.3125 15.1875 C-13.53025937 13.50720461 -13.53025937 13.50720461 -15 11 C-15.4783921 7.24120497 -15.49734698 4.9236444 -13.6875 1.5625 C-9.37264684 -0.94613556 -4.87373394 -0.30250762 0 0 Z " fill="#F6F9FA" transform="translate(99,112)"/>
<path d="M0 0 C5.78602824 4.90554568 5.78602824 4.90554568 6.203125 8.98828125 C6.30046929 13.81493582 6.27193341 17.16394014 3 21 C-1.24996508 24.52139964 -4.71872247 24.26853954 -10 24 C-10 23.34 -10 22.68 -10 22 C-10.99 21.67 -11.98 21.34 -13 21 C-11 18 -11 18 -8.8359375 17.26953125 C-8.02382812 17.11871094 -7.21171875 16.96789062 -6.375 16.8125 C-5.55773437 16.65394531 -4.74046875 16.49539062 -3.8984375 16.33203125 C-3.27195313 16.22246094 -2.64546875 16.11289063 -2 16 C-0.82802434 11.45918132 -0.82802434 11.45918132 -2.0625 7.1875 C-4.59101963 5.63776216 -7.15992052 4.8204674 -10 4 C-9.625 2.0625 -9.625 2.0625 -9 0 C-5.77509551 -1.61245225 -3.43772273 -0.81573082 0 0 Z " fill="#F2F5F8" transform="translate(152,113)"/>
<path d="M0 0 C1.65 0.33 3.3 0.66 5 1 C5 12.88 5 24.76 5 37 C2.525 37.495 2.525 37.495 0 38 C-1.78830448 36.21169552 -1.12848711 33.80418848 -1.13894653 31.42358398 C-1.1369223 30.64442627 -1.13489807 29.86526855 -1.1328125 29.0625 C-1.13376923 28.267229 -1.13472595 27.47195801 -1.13571167 26.65258789 C-1.13639343 24.9679354 -1.13453943 23.28328029 -1.13037109 21.59863281 C-1.12502275 19.01100803 -1.13031619 16.42355684 -1.13671875 13.8359375 C-1.13605797 12.20312461 -1.1347768 10.57031184 -1.1328125 8.9375 C-1.13483673 8.15834229 -1.13686096 7.37918457 -1.13894653 6.57641602 C-1.11495105 1.11495105 -1.11495105 1.11495105 0 0 Z " fill="#FDFEFE" transform="translate(132,63)"/>
<path d="M0 0 C1.65 0.33 3.3 0.66 5 1 C5 12.88 5 24.76 5 37 C2.525 37.495 2.525 37.495 0 38 C-1.78830448 36.21169552 -1.12848711 33.80418848 -1.13894653 31.42358398 C-1.1369223 30.64442627 -1.13489807 29.86526855 -1.1328125 29.0625 C-1.13376923 28.267229 -1.13472595 27.47195801 -1.13571167 26.65258789 C-1.13639343 24.9679354 -1.13453943 23.28328029 -1.13037109 21.59863281 C-1.12502275 19.01100803 -1.13031619 16.42355684 -1.13671875 13.8359375 C-1.13605797 12.20312461 -1.1347768 10.57031184 -1.1328125 8.9375 C-1.13483673 8.15834229 -1.13686096 7.37918457 -1.13894653 6.57641602 C-1.11495105 1.11495105 -1.11495105 1.11495105 0 0 Z " fill="#FAFDFE" transform="translate(64,63)"/>
<path d="M0 0 C1.98 0 3.96 0 6 0 C6 8.25 6 16.5 6 25 C4.02 25 2.04 25 0 25 C0 16.75 0 8.5 0 0 Z " fill="#FDFEFE" transform="translate(69,112)"/>
<path d="M0 0 C2.375 1.5625 2.375 1.5625 4 4 C3.9375 7.625 3.9375 7.625 3 11 C-0.47042703 13.31361802 -1.91834173 13.51020728 -6 13 C-7.9375 11.4375 -7.9375 11.4375 -9 9 C-8.875 5.375 -8.875 5.375 -8 2 C-4.75173326 -0.16551116 -3.76905843 -0.55156953 0 0 Z " fill="#04192E" transform="translate(148,118)"/>
<path d="M0 0 C1 1 1 1 1.0625 4.0625 C1.041875 5.031875 1.02125 6.00125 1 7 C-0.98567708 6.93489583 -2.97135417 6.86979167 -4.95703125 6.8046875 C-7.31359719 6.86745538 -7.31359719 6.86745538 -10 9 C-10.73343428 12.06556598 -10.73343428 12.06556598 -11 15 C-11.33 13.68 -11.66 12.36 -12 11 C-12.66 11 -13.32 11 -14 11 C-14.33 9.68 -14.66 8.36 -15 7 C-15.66 8.32 -16.32 9.64 -17 11 C-18 8 -18 8 -16.875 5.5 C-12.33928308 -0.54762257 -7.12016959 -0.68564596 0 0 Z " fill="#E7EDF1" transform="translate(60,112)"/>
<path d="M0 0 C1.65 0.33 3.3 0.66 5 1 C5 7.27 5 13.54 5 20 C3.35 20.33 1.7 20.66 0 21 C-1.55606751 19.44393249 -1.12970769 17.94042629 -1.1328125 15.78125 C-1.13410156 14.93175781 -1.13539062 14.08226563 -1.13671875 13.20703125 C-1.13285156 12.31371094 -1.12898438 11.42039062 -1.125 10.5 C-1.12886719 9.60667969 -1.13273437 8.71335937 -1.13671875 7.79296875 C-1.13542969 6.94347656 -1.13414063 6.09398438 -1.1328125 5.21875 C-1.13168457 4.43435547 -1.13055664 3.64996094 -1.12939453 2.84179688 C-1 1 -1 1 0 0 Z " fill="#FCFDFD" transform="translate(81,74)"/>
<path d="M0 0 C1.65 0.33 3.3 0.66 5 1 C5 7.27 5 13.54 5 20 C3.35 20.33 1.7 20.66 0 21 C-1.55606751 19.44393249 -1.12970769 17.94042629 -1.1328125 15.78125 C-1.13410156 14.93175781 -1.13539062 14.08226563 -1.13671875 13.20703125 C-1.13285156 12.31371094 -1.12898438 11.42039062 -1.125 10.5 C-1.12886719 9.60667969 -1.13273437 8.71335937 -1.13671875 7.79296875 C-1.13542969 6.94347656 -1.13414063 6.09398438 -1.1328125 5.21875 C-1.13168457 4.43435547 -1.13055664 3.64996094 -1.12939453 2.84179688 C-1 1 -1 1 0 0 Z " fill="#FCFEFC" transform="translate(115,74)"/>
<path d="M0 0 C0 6.27 0 12.54 0 19 C-1.65 19.33 -3.3 19.66 -5 20 C-6 19 -6 19 -6.11352539 17.14233398 C-6.10828857 16.35157471 -6.10305176 15.56081543 -6.09765625 14.74609375 C-6.09443359 13.89208984 -6.09121094 13.03808594 -6.08789062 12.15820312 C-6.07951172 11.26037109 -6.07113281 10.36253906 -6.0625 9.4375 C-6.05798828 8.53580078 -6.05347656 7.63410156 -6.04882812 6.70507812 C-6.03700225 4.46998686 -6.0205222 2.23502563 -6 0 C-4 -1 -4 -1 0 0 Z " fill="#FAFDFE" transform="translate(52,75)"/>
<path d="M0 0 C1.32 0.33 2.64 0.66 4 1 C4 7.27 4 13.54 4 20 C2.35 20.33 0.7 20.66 -1 21 C-3.15732833 18.84267167 -2.18520919 14.05201247 -2.1875 11.0625 C-2.19974609 10.22525391 -2.21199219 9.38800781 -2.22460938 8.52539062 C-2.22654297 7.72423828 -2.22847656 6.92308594 -2.23046875 6.09765625 C-2.23457764 5.36039307 -2.23868652 4.62312988 -2.24291992 3.86352539 C-2 2 -2 2 0 0 Z " fill="#FBFCFC" transform="translate(150,74)"/>
<path d="M0 0 C3.3 1.65 6.6 3.3 10 5 C9.67 6.32 9.34 7.64 9 9 C2.25 9.125 2.25 9.125 0 8 C0 9.98 0 11.96 0 14 C4.62 13.67 9.24 13.34 14 13 C11 16 11 16 8.15234375 16.36328125 C7.09144531 16.34652344 6.03054687 16.32976562 4.9375 16.3125 C3.87402344 16.30863281 2.81054688 16.30476563 1.71484375 16.30078125 C-1 16 -1 16 -3 14 C-4.23147292 10.30558125 -3.44298991 9.48015214 -2 6 C-2 4.68 -2 3.36 -2 2 C-1.34 2 -0.68 2 0 2 C0 1.34 0 0.68 0 0 Z " fill="#172839" transform="translate(84,123)"/>
<path d="M0 0 C1.65 0.33 3.3 0.66 5 1 C5 12.88 5 24.76 5 37 C2.525 37.495 2.525 37.495 0 38 C-1.78830448 36.21169552 -1.12848711 33.80418848 -1.13894653 31.42358398 C-1.1369223 30.64442627 -1.13489807 29.86526855 -1.1328125 29.0625 C-1.13376923 28.267229 -1.13472595 27.47195801 -1.13571167 26.65258789 C-1.13639343 24.9679354 -1.13453943 23.28328029 -1.13037109 21.59863281 C-1.12502275 19.01100803 -1.13031619 16.42355684 -1.13671875 13.8359375 C-1.13605797 12.20312461 -1.1347768 10.57031184 -1.1328125 8.9375 C-1.13483673 8.15834229 -1.13686096 7.37918457 -1.13894653 6.57641602 C-1.11495105 1.11495105 -1.11495105 1.11495105 0 0 Z M0 1 C0 12.22 0 23.44 0 35 C0.99 35.33 1.98 35.66 3 36 C4.80823128 34.19176872 4.13038235 31.42207933 4.1328125 28.98828125 C4.13410156 27.75529297 4.13539063 26.52230469 4.13671875 25.25195312 C4.13285156 23.95193359 4.12898437 22.65191406 4.125 21.3125 C4.12886719 20.03181641 4.13273438 18.75113281 4.13671875 17.43164062 C4.13478516 15.57249023 4.13478516 15.57249023 4.1328125 13.67578125 C4.13112061 11.9728894 4.13112061 11.9728894 4.12939453 10.2355957 C4.00303405 7.07586838 3.59081635 4.10339926 3 1 C2.01 1 1.02 1 0 1 Z " fill="#F7FDFE" transform="translate(132,63)"/>
<path d="M0 0 C3.3 0 6.6 0 10 0 C10 2.31 10 4.62 10 7 C8.06318839 7.08107583 6.1254066 7.13922475 4.1875 7.1875 C3.10855469 7.22230469 2.02960937 7.25710937 0.91796875 7.29296875 C-2 7 -2 7 -3.88671875 5.48828125 C-4.43779297 4.75158203 -4.43779297 4.75158203 -5 4 C-4.360625 3.855625 -3.72125 3.71125 -3.0625 3.5625 C-1.02454854 3.18992819 -1.02454854 3.18992819 0 2 C0 1.34 0 0.68 0 0 Z " fill="#E7ECF0" transform="translate(51,130)"/>
<path d="M0 0 C3.3 0 6.6 0 10 0 C10 2.31 10 4.62 10 7 C8.25034642 7.05429959 6.50020213 7.09292823 4.75 7.125 C3.77546875 7.14820313 2.8009375 7.17140625 1.796875 7.1953125 C-1.0196498 6.99862781 -2.60949036 6.44568916 -5 5 C-3 4 -3 4 0 4 C0 2.68 0 1.36 0 0 Z " fill="#DAE2E7" transform="translate(116,130)"/>
<path d="M0 0 C1.67542976 0.28604898 3.34385343 0.61781233 5 1 C5 4.3 5 7.6 5 11 C3.34385343 11.38218767 1.67542976 11.71395102 0 12 C-1 11 -1 11 -1.1328125 8.75 C-1.13023437 7.8425 -1.12765625 6.935 -1.125 6 C-1.12757813 5.0925 -1.13015625 4.185 -1.1328125 3.25 C-1 1 -1 1 0 0 Z " fill="#F1F8FB" transform="translate(166,83)"/>
<path d="M0 0 C1.67542976 0.28604898 3.34385343 0.61781233 5 1 C5 4.3 5 7.6 5 11 C3.34385343 11.38218767 1.67542976 11.71395102 0 12 C-1 11 -1 11 -1.1328125 8.75 C-1.13023438 7.8425 -1.12765625 6.935 -1.125 6 C-1.12757812 5.0925 -1.13015625 4.185 -1.1328125 3.25 C-1 1 -1 1 0 0 Z " fill="#F1F8FC" transform="translate(30,83)"/>
<path d="M0 0 C1.67542976 0.28604898 3.34385343 0.61781233 5 1 C5 4.3 5 7.6 5 11 C3.34385343 11.38218767 1.67542976 11.71395102 0 12 C-1 11 -1 11 -1.1328125 8.75 C-1.13023438 7.8425 -1.12765625 6.935 -1.125 6 C-1.12757812 5.0925 -1.13015625 4.185 -1.1328125 3.25 C-1 1 -1 1 0 0 Z " fill="#F1F7F9" transform="translate(98,83)"/>
<path d="M0 0 C1.98 0 3.96 0 6 0 C6 8.25 6 16.5 6 25 C4.02 25 2.04 25 0 25 C0 16.75 0 8.5 0 0 Z M1 1 C1 7.93 1 14.86 1 22 C1.99 22.33 2.98 22.66 4 23 C5.22784809 21.99440206 5.22784809 21.99440206 5.11352539 19.95874023 C5.10828857 19.08419189 5.10305176 18.20964355 5.09765625 17.30859375 C5.09443359 16.36435547 5.09121094 15.42011719 5.08789062 14.44726562 C5.07951172 13.45404297 5.07113281 12.46082031 5.0625 11.4375 C5.05798828 10.44041016 5.05347656 9.44332031 5.04882812 8.41601562 C5.03700007 5.94395151 5.02051849 3.47200482 5 1 C3.68 1 2.36 1 1 1 Z " fill="#E1EBEE" transform="translate(69,112)"/>
<path d="M0 0 C0.33 0.99 0.66 1.98 1 3 C2.11375 3.309375 3.2275 3.61875 4.375 3.9375 C8 5 8 5 10 6.875 C11 9 11 9 10.6875 11.25 C10.460625 11.8275 10.23375 12.405 10 13 C9.67 11.68 9.34 10.36 9 9 C7.68 10.32 6.36 11.64 5 13 C4.67 12.01 4.34 11.02 4 10 C3.34 9.67 2.68 9.34 2 9 C2.66 9 3.32 9 4 9 C4 8.01 4 7.02 4 6 C3.01 6 2.02 6 1 6 C0.67 4.02 0.34 2.04 0 0 Z " fill="#E8EDEF" transform="translate(90,118)"/>
<path d="M0 0 C0.625 1.875 0.625 1.875 1 4 C0.34 4.66 -0.32 5.32 -1 6 C-3.1640625 5.7578125 -3.1640625 5.7578125 -5.625 5.125 C-6.85089844 4.81949219 -6.85089844 4.81949219 -8.1015625 4.5078125 C-9.04128906 4.25644531 -9.04128906 4.25644531 -10 4 C-9.625 2.0625 -9.625 2.0625 -9 0 C-5.93109813 -1.53445094 -3.29905734 -0.54984289 0 0 Z " fill="#F9FBFC" transform="translate(152,113)"/>
<path d="M0 0 C1.76462683 3.08809695 2 4.23312136 2 8 C-0.8125 8.25 -0.8125 8.25 -4 8 C-5.875 6.1875 -5.875 6.1875 -7 4 C-7 3.01 -7 2.02 -7 1 C-4.53721199 -0.231394 -2.7204945 -0.07159196 0 0 Z " fill="#0A1D30" transform="translate(146,123)"/>
<path d="M0 0 C1.67542976 0.28604898 3.34385343 0.61781233 5 1 C4.34 1.66 3.68 2.32 3 3 C2.34 2.67 1.68 2.34 1 2 C1.33 2.99 1.66 3.98 2 5 C1.67 5.33 1.34 5.66 1 6 C0.67363211 12.10712899 0.67363211 12.10712899 2 18 C2.66 18.33 3.32 18.66 4 19 C4.33 18.34 4.66 17.68 5 17 C4.67 18.32 4.34 19.64 4 21 C2.35 20.67 0.7 20.34 -1 20 C-1.02888514 16.85418577 -1.04675923 13.70840531 -1.0625 10.5625 C-1.07087891 9.66466797 -1.07925781 8.76683594 -1.08789062 7.84179688 C-1.09111328 6.98779297 -1.09433594 6.13378906 -1.09765625 5.25390625 C-1.10551147 4.06776733 -1.10551147 4.06776733 -1.11352539 2.85766602 C-1 1 -1 1 0 0 Z " fill="#F1F8FA" transform="translate(115,74)"/>
<path d="M0 0 C1.98 0.99 1.98 0.99 4 2 C4 4.31 4 6.62 4 9 C4.99 9 5.98 9 7 9 C7.33 10.32 7.66 11.64 8 13 C4.25 14.125 4.25 14.125 2 13 C1.61781233 11.34385343 1.28604898 9.67542976 1 8 C0.67 7.34 0.34 6.68 0 6 C-0.039992 4.00039988 -0.04346799 1.99952758 0 0 Z " fill="#FDFEFD" transform="translate(109,121)"/>
<path d="M0 0 C1.65 0.33 3.3 0.66 5 1 C5 7.27 5 13.54 5 20 C3.35 20.33 1.7 20.66 0 21 C0.66 20.01 1.32 19.02 2 18 C2.66 18 3.32 18 4 18 C4 13.38 4 8.76 4 4 C2.35 3.67 0.7 3.34 -1 3 C-0.67 2.01 -0.34 1.02 0 0 Z " fill="#F6FBFD" transform="translate(81,74)"/>
<path d="M0 0 C0.33 0 0.66 0 1 0 C1 11.22 1 22.44 1 34 C1.99 34.33 2.98 34.66 4 35 C4 35.66 4 36.32 4 37 C2.68 36.67 1.36 36.34 0 36 C0 24.12 0 12.24 0 0 Z " fill="#ECF3FA" transform="translate(131,64)"/>
<path d="M0 0 C1.54571278 2.31856917 2.79618552 4.50638429 4 7 C1 8 1 8 -0.9375 7.5 C-3.332814 6.91931782 -4.65670863 7.3751223 -7 8 C-7.66 7.67 -8.32 7.34 -9 7 C-8.34 5.68 -7.68 4.36 -7 3 C-5.02 3 -3.04 3 -1 3 C-0.67 2.01 -0.34 1.02 0 0 Z " fill="#132537" transform="translate(107,128)"/>
<path d="M0 0 C1.64574566 -0.02688151 3.29161413 -0.04634123 4.9375 -0.0625 C5.85402344 -0.07410156 6.77054688 -0.08570312 7.71484375 -0.09765625 C10 0 10 0 11 1 C11.04080783 2.99958364 11.04254356 5.00045254 11 7 C8.69 6.67 6.38 6.34 4 6 C7 4 7 4 9 4 C8.67 3.34 8.34 2.68 8 2 C7.01 2.66 6.02 3.32 5 4 C3.35 2.68 1.7 1.36 0 0 Z " fill="#E9EAEC" transform="translate(50,112)"/>
<path d="M0 0 C0.33 0 0.66 0 1 0 C1.33 6.6 1.66 13.2 2 20 C0.33333333 20 -1.33333333 20 -3 20 C-4.625 17.5 -4.625 17.5 -6 15 C-4.0625 14.4375 -4.0625 14.4375 -2 14 C-1.67 14.33 -1.34 14.66 -1 15 C-0.67 10.05 -0.34 5.1 0 0 Z " fill="#0C1E31" transform="translate(45,75)"/>
<path d="M0 0 C4.29 0 8.58 0 13 0 C13.33 0.66 13.66 1.32 14 2 C13.67 2.66 13.34 3.32 13 4 C11.35 4 9.7 4 8 4 C8 3.34 8 2.68 8 2 C5.36 2 2.72 2 0 2 C0 1.34 0 0.68 0 0 Z " fill="#152839" transform="translate(141,137)"/>
<path d="M0 0 C0.66 0.33 1.32 0.66 2 1 C2.59355614 3.64860427 2.74209269 6.29197322 3 9 C0.64035727 8.59316505 -0.85934088 8.10185661 -2.8125 6.6875 C-4 5 -4 5 -3.6875 2.8125 C-3.460625 2.214375 -3.23375 1.61625 -3 1 C-2.01 1.33 -1.02 1.66 0 2 C0 1.34 0 0.68 0 0 Z " fill="#02162C" transform="translate(53,121)"/>
<path d="M0 0 C1.98 0 3.96 0 6 0 C5 2 5 2 2 4 C3.32 4.33 4.64 4.66 6 5 C5.67 5.66 5.34 6.32 5 7 C-0.75 7.125 -0.75 7.125 -3 6 C-2.67 4.68 -2.34 3.36 -2 2 C-1.34 2 -0.68 2 0 2 C0 1.34 0 0.68 0 0 Z " fill="#11253A" transform="translate(63,57)"/>
<path d="M0 0 C0.99 0.33 1.98 0.66 3 1 C2.67 1.33 2.34 1.66 2 2 C3.65 2 5.3 2 7 2 C7.33 3.32 7.66 4.64 8 6 C5.69 6 3.38 6 1 6 C1 5.34 1 4.68 1 4 C0.01 3.67 -0.98 3.34 -2 3 C-1.34 2.01 -0.68 1.02 0 0 Z " fill="#FCFEFE" transform="translate(141,131)"/>
<path d="M0 0 C2.64 0 5.28 0 8 0 C8 0.66 8 1.32 8 2 C8.66 2 9.32 2 10 2 C10.33 1.34 10.66 0.68 11 0 C11.99 0.33 12.98 0.66 14 1 C13.67 1.99 13.34 2.98 13 4 C11.02 4.33 9.04 4.66 7 5 C6.67 4.01 6.34 3.02 6 2 C3.03 1.505 3.03 1.505 0 1 C0 0.67 0 0.34 0 0 Z " fill="#172B3F" transform="translate(52,137)"/>
<path d="M0 0 C0 1.65 0 3.3 0 5 C-2.64 5 -5.28 5 -8 5 C-8 3 -8 3 -6.8125 1.375 C-4.44439338 -0.42149467 -2.90102749 -0.23521845 0 0 Z " fill="#F9FDFE" transform="translate(125,132)"/>
<path d="M0 0 C-0.99 0.33 -1.98 0.66 -3 1 C-3 1.66 -3 2.32 -3 3 C-2.34 3.33 -1.68 3.66 -1 4 C-1.78375 4.28875 -2.5675 4.5775 -3.375 4.875 C-6.09671632 5.84912254 -6.09671632 5.84912254 -8 8 C-8.33 6.35 -8.66 4.7 -9 3 C-5.92807025 0.26939578 -4.09590633 -0.34132553 0 0 Z " fill="#152639" transform="translate(123,118)"/>
<path d="M0 0 C0.99 0.33 1.98 0.66 3 1 C2.67 1.33 2.34 1.66 2 2 C1.76298761 4.85877909 1.57780818 7.69883297 1.4375 10.5625 C1.39431641 11.36880859 1.35113281 12.17511719 1.30664062 13.00585938 C1.20024738 15.00368805 1.09959112 17.0018207 1 19 C0.34 18.34 -0.32 17.68 -1 17 C-0.9765625 14.3984375 -0.9765625 14.3984375 -0.625 11.375 C-0.51414063 10.37210938 -0.40328125 9.36921875 -0.2890625 8.3359375 C-0.19367188 7.56507812 -0.09828125 6.79421875 0 6 C-0.66 6 -1.32 6 -2 6 C-1.125 1.125 -1.125 1.125 0 0 Z " fill="#192A3C" transform="translate(147,74)"/>
<path d="M0 0 C0.33 0.99 0.66 1.98 1 3 C-0.98 3 -2.96 3 -5 3 C-5 3.66 -5 4.32 -5 5 C-5.99 5.33 -6.98 5.66 -8 6 C-8.33 5.01 -8.66 4.02 -9 3 C-5.92807025 0.26939578 -4.09590633 -0.34132553 0 0 Z " fill="#152433" transform="translate(58,118)"/>
<path d="M0 0 C2.72727273 4.09090909 2.72727273 4.09090909 3 7 C1.6875 8.75 1.6875 8.75 0 10 C-0.66 10 -1.32 10 -2 10 C-1.85950482 8.52031676 -1.71245174 7.04125484 -1.5625 5.5625 C-1.48128906 4.73878906 -1.40007812 3.91507812 -1.31640625 3.06640625 C-1 1 -1 1 0 0 Z " fill="#FDFDFE" transform="translate(154,117)"/>
<path d="M0 0 C0.66 0.66 1.32 1.32 2 2 C1.67 2.66 1.34 3.32 1 4 C1.66 4.33 2.32 4.66 3 5 C-0.63304928 7.42203285 -2.73839043 7 -7 7 C-6.67 5.68 -6.34 4.36 -6 3 C-5.195625 2.87625 -4.39125 2.7525 -3.5625 2.625 C-2.716875 2.41875 -1.87125 2.2125 -1 2 C-0.67 1.34 -0.34 0.68 0 0 Z " fill="#16283B" transform="translate(70,97)"/>
<path d="M0 0 C0.99 0.99 1.98 1.98 3 3 C2.5359375 4.051875 2.5359375 4.051875 2.0625 5.125 C0.96697322 8.08936657 0.43577008 10.87698108 0 14 C-0.33 14 -0.66 14 -1 14 C-1.54466387 9.915021 -2 6.1274515 -2 2 C-1.34 2 -0.68 2 0 2 C0 1.34 0 0.68 0 0 Z " fill="#15273B" transform="translate(84,123)"/>
<path d="M0 0 C1.875 0.625 1.875 0.625 4 2 C5.25 5.125 5.25 5.125 6 8 C5.34 8 4.68 8 4 8 C3.34 6.68 2.68 5.36 2 4 C1.34 5.32 0.68 6.64 0 8 C-0.99 7.01 -1.98 6.02 -3 5 C-2.505 4.54625 -2.01 4.0925 -1.5 3.625 C0.22609337 2.12364481 0.22609337 2.12364481 0 0 Z " fill="#E7EBF0" transform="translate(152,114)"/>
<path d="M0 0 C2 2 2 2 2.1953125 3.9453125 C2.13020833 5.96354167 2.06510417 7.98177083 2 10 C0.68 10 -0.64 10 -2 10 C-2 8.35 -2 6.7 -2 5 C-1.01 5.33 -0.02 5.66 1 6 C1 5.34 1 4.68 1 4 C0.34 4 -0.32 4 -1 4 C-0.67 2.68 -0.34 1.36 0 0 Z " fill="#FBFDFD" transform="translate(100,85)"/>
<path d="M0 0 C1.65 0 3.3 0 5 0 C5 0.66 5 1.32 5 2 C3.34467377 3.01866229 1.67739862 4.01810813 0 5 C-0.33 5.66 -0.66 6.32 -1 7 C-1.66 7 -2.32 7 -3 7 C-3.33 5.68 -3.66 4.36 -4 3 C-2.68 2.67 -1.36 2.34 0 2 C0 1.34 0 0.68 0 0 Z " fill="#0E1E31" transform="translate(45,111)"/>
<path d="M0 0 C3.3 0 6.6 0 10 0 C10 0.33 10 0.66 10 1 C8.906875 1.103125 7.81375 1.20625 6.6875 1.3125 C3.15095979 1.72205298 3.15095979 1.72205298 1.125 3.25 C-0.29035995 5.45167104 -0.65198447 7.42468508 -1 10 C-1.33 10 -1.66 10 -2 10 C-2 8.02 -2 6.04 -2 4 C-2.66 3.67 -3.32 3.34 -4 3 C-2.68 3 -1.36 3 0 3 C0 2.01 0 1.02 0 0 Z " fill="#162738" transform="translate(85,111)"/>
<path d="M0 0 C2.0625 0.4375 2.0625 0.4375 4 1 C4 2.98 4 4.96 4 7 C3.34 6.67 2.68 6.34 2 6 C2 5.34 2 4.68 2 4 C0.68 4.33 -0.64 4.66 -2 5 C-1.125 1.125 -1.125 1.125 0 0 Z " fill="#ECF3F5" transform="translate(150,74)"/>
<path d="M0 0 C3.63 0 7.26 0 11 0 C11 1.98 11 3.96 11 6 C9.68 5.34 8.36 4.68 7 4 C7.66 3.01 8.32 2.02 9 1 C5.7 1.33 2.4 1.66 -1 2 C-0.67 1.34 -0.34 0.68 0 0 Z " fill="#DCE5EA" transform="translate(88,112)"/>
<path d="M0 0 C2.475 0.495 2.475 0.495 5 1 C5 2.65 5 4.3 5 6 C3.68 6.33 2.36 6.66 1 7 C0.67 4.69 0.34 2.38 0 0 Z " fill="#FDFEFD" transform="translate(29,85)"/>
<path d="M0 0 C0.99 0.33 1.98 0.66 3 1 C3 1.66 3 2.32 3 3 C3.66 3 4.32 3 5 3 C5.33 4.98 5.66 6.96 6 9 C5.67 8.34 5.34 7.68 5 7 C4.01 7.33 3.02 7.66 2 8 C0 2.25 0 2.25 0 0 Z " fill="#0B1E31" transform="translate(155,112)"/>
<path d="M0 0 C2.38564077 0.57584432 4.66682784 1.22227595 7 2 C7.99 1.34 8.98 0.68 10 0 C10 0.99 10 1.98 10 3 C8.02 3.66 6.04 4.32 4 5 C4 4.34 4 3.68 4 3 C2.35 3 0.7 3 -1 3 C-0.67 2.01 -0.34 1.02 0 0 Z " fill="#FDFEFF" transform="translate(49,113)"/>
<path d="M0 0 C1.67542976 0.28604898 3.34385343 0.61781233 5 1 C4.34 1.66 3.68 2.32 3 3 C2.34 2.67 1.68 2.34 1 2 C1.33 2.99 1.66 3.98 2 5 C1.40206327 7.35188447 0.74118205 9.68925595 0 12 C-0.33 12 -0.66 12 -1 12 C-1.02687279 10.18757948 -1.04633715 8.37504767 -1.0625 6.5625 C-1.07410156 5.55316406 -1.08570312 4.54382813 -1.09765625 3.50390625 C-1 1 -1 1 0 0 Z " fill="#E3EBEF" transform="translate(115,74)"/>
<path d="M0 0 C0.99 0 1.98 0 3 0 C3 0.66 3 1.32 3 2 C3.66 2 4.32 2 5 2 C5.33 1.34 5.66 0.68 6 0 C6 1.65 6 3.3 6 5 C4.35 5 2.7 5 1 5 C0.67 3.35 0.34 1.7 0 0 Z " fill="#041728" transform="translate(101,127)"/>
<path d="M0 0 C0.66 0.66 1.32 1.32 2 2 C0 3 0 3 -4 3 C-4.33 4.98 -4.66 6.96 -5 9 C-5.12375 8.360625 -5.2475 7.72125 -5.375 7.0625 C-5.684375 6.0415625 -5.684375 6.0415625 -6 5 C-6.66 4.67 -7.32 4.34 -8 4 C-7.67 3.01 -7.34 2.02 -7 1 C-3.625 0.375 -3.625 0.375 0 0 Z " fill="#142639" transform="translate(170,81)"/>
<path d="M0 0 C0.99 0 1.98 0 3 0 C5.0625 2.375 5.0625 2.375 7 5 C7.66 5.66 8.32 6.32 9 7 C7.125 7.625 7.125 7.625 5 8 C3 6 3 6 2.5 3.4375 C2.335 2.633125 2.17 1.82875 2 1 C1.34 0.67 0.68 0.34 0 0 Z " fill="#182737" transform="translate(131,130)"/>
<path d="M0 0 C0.33 0 0.66 0 1 0 C1.22174933 1.45635371 1.42698698 2.91522956 1.625 4.375 C1.74101562 5.18710938 1.85703125 5.99921875 1.9765625 6.8359375 C1.98429688 7.55007812 1.99203125 8.26421875 2 9 C1.34 9.66 0.68 10.32 0 11 C-1.89885096 9.10114904 -1.12367506 6.42752097 -1.1328125 3.91015625 C-1 2 -1 2 0 0 Z " fill="#D2D9DF" transform="translate(133,119)"/>
<path d="M0 0 C0 0.66 0 1.32 0 2 C-1.65 2 -3.3 2 -5 2 C-5.66 3.32 -6.32 4.64 -7 6 C-7.66 6 -8.32 6 -9 6 C-7.01260984 0.46369883 -5.82303895 -0.15323787 0 0 Z " fill="#273644" transform="translate(148,118)"/>
<path d="M0 0 C1.98 0 3.96 0 6 0 C5.67 1.65 5.34 3.3 5 5 C3.35 4.67 1.7 4.34 0 4 C0 2.68 0 1.36 0 0 Z " fill="#253444" transform="translate(91,117)"/>
<path d="M0 0 C0.99 0 1.98 0 3 0 C3 0.66 3 1.32 3 2 C5.31 2.33 7.62 2.66 10 3 C10 3.66 10 4.32 10 5 C7.03 4.67 4.06 4.34 1 4 C0.67 2.68 0.34 1.36 0 0 Z " fill="#0F2336" transform="translate(141,108)"/>
<path d="M0 0 C0 2.31 0 4.62 0 7 C-0.99 6.67 -1.98 6.34 -3 6 C-2.34 6 -1.68 6 -1 6 C-1.33 5.01 -1.66 4.02 -2 3 C-2.99 3.495 -2.99 3.495 -4 4 C-4.99 3.34 -5.98 2.68 -7 2 C-4 0 -4 0 0 0 Z " fill="#D4DBDD" transform="translate(126,112)"/>
<path d="M0 0 C2.31 0.33 4.62 0.66 7 1 C6.01 1.495 6.01 1.495 5 2 C5 5.63 5 9.26 5 13 C4.34 12.67 3.68 12.34 3 12 C3.03480469 11.30132812 3.06960937 10.60265625 3.10546875 9.8828125 C3.13253906 8.97273438 3.15960938 8.06265625 3.1875 7.125 C3.22230469 6.22007813 3.25710937 5.31515625 3.29296875 4.3828125 C3.14794922 3.20332031 3.14794922 3.20332031 3 2 C2.01 1.34 1.02 0.68 0 0 Z " fill="#203141" transform="translate(31,82)"/>
<path d="M0 0 C0.66 0 1.32 0 2 0 C2 1.98 2 3.96 2 6 C-0.31 5.67 -2.62 5.34 -5 5 C-2 3 -2 3 0 3 C0 2.01 0 1.02 0 0 Z " fill="#D5DEE4" transform="translate(59,113)"/>
<path d="M0 0 C2.64 0 5.28 0 8 0 C8.33 0.99 8.66 1.98 9 3 C7.35 3.33 5.7 3.66 4 4 C3.67 3.34 3.34 2.68 3 2 C2.01 1.34 1.02 0.68 0 0 Z " fill="#273746" transform="translate(117,137)"/>
<path d="M0 0 C0.33 0 0.66 0 1 0 C1.66 3.3 2.32 6.6 3 10 C2.01 10 1.02 10 0 10 C-1.125 3.375 -1.125 3.375 0 0 Z " fill="#1B2B38" transform="translate(41,123)"/>
<path d="M0 0 C-0.25561323 2.3431213 -0.59270772 4.67843403 -1 7 C-1.99 7.495 -1.99 7.495 -3 8 C-3.6875 5.6875 -3.6875 5.6875 -4 3 C-1.72413793 0 -1.72413793 0 0 0 Z " fill="#2A3A4A" transform="translate(152,122)"/>
<path d="M0 0 C1.32 0 2.64 0 4 0 C3.67 2.64 3.34 5.28 3 8 C2.67 6.68 2.34 5.36 2 4 C1.34 4 0.68 4 0 4 C0 2.68 0 1.36 0 0 Z " fill="#E0E4E7" transform="translate(46,119)"/>
<path d="M0 0 C1.65 0.33 3.3 0.66 5 1 C4.67 1.99 4.34 2.98 4 4 C2.35 3.67 0.7 3.34 -1 3 C-0.67 2.01 -0.34 1.02 0 0 Z " fill="#D6DEE4" transform="translate(81,74)"/>
<path d="M0 0 C-2.05233685 2.2477975 -3.00667261 3.0022242 -6 4 C-6 2.68 -6 1.36 -6 0 C-3.50907189 -1.24546405 -2.58919267 -0.7767578 0 0 Z " fill="#DEE6EB" transform="translate(52,75)"/>
<path d="M0 0 C1.32 0.33 2.64 0.66 4 1 C4 1.66 4 2.32 4 3 C3.34 3 2.68 3 2 3 C2.33 3.99 2.66 4.98 3 6 C2.01 6 1.02 6 0 6 C0 4.02 0 2.04 0 0 Z " fill="#FCFDFD" transform="translate(151,128)"/>
<path d="M0 0 C0.33 0 0.66 0 1 0 C1 2.64 1 5.28 1 8 C1.66 8 2.32 8 3 8 C3 8.99 3 9.98 3 11 C1.68 10.34 0.36 9.68 -1 9 C-0.67 6.03 -0.34 3.06 0 0 Z " fill="#182B3D" transform="translate(103,85)"/>
<path d="M0 0 C0.66 0 1.32 0 2 0 C1.67 2.31 1.34 4.62 1 7 C0.34 6.67 -0.32 6.34 -1 6 C-1.042721 4.33388095 -1.04063832 2.66617115 -1 1 C-0.67 0.67 -0.34 0.34 0 0 Z " fill="#FEFEFC" transform="translate(168,86)"/>
</svg>
