<?xml version="1.0" encoding="UTF-8"?>
<svg version="1.1" xmlns="http://www.w3.org/2000/svg" width="200" height="200">
<path d="M0 0 C66 0 132 0 200 0 C200 66 200 132 200 200 C134 200 68 200 0 200 C0 134 0 68 0 0 Z " fill="#981B10" transform="translate(0,0)"/>
<path d="M0 0 C1.49608974 0.17190988 2.99218379 0.34378232 4.48828125 0.515625 C8.66027818 0.99887625 12.83039874 1.49651943 17 2 C17 2.66 17 3.32 17 4 C16.34 4 15.68 4 15 4 C15.14183696 5.75032844 15.28863429 7.50025534 15.4375 9.25 C15.51871094 10.22453125 15.59992188 11.1990625 15.68359375 12.203125 C15.92137175 14.90125845 15.92137175 14.90125845 16.54296875 17.07421875 C17.41133415 20.7332285 17.02544298 24.40411327 16 28 C13.5 29.9375 13.5 29.9375 11 31 C10.505 31.99 10.505 31.99 10 33 C11.98 33.33 13.96 33.66 16 34 C17.125 40.75 17.125 40.75 16 43 C15.960008 44.99960012 15.95653201 47.00047242 16 49 C16.92232422 48.94779297 16.92232422 48.94779297 17.86328125 48.89453125 C18.67152344 48.86746094 19.47976562 48.84039062 20.3125 48.8125 C21.51326172 48.76029297 21.51326172 48.76029297 22.73828125 48.70703125 C25.47851584 49.06198392 26.29171079 49.89366282 28 52 C28.66 51.67 29.32 51.34 30 51 C43.37801685 49.95377048 43.37801685 49.95377048 47.6875 52.75 C49.72591492 54.73332263 51.33860589 56.70569384 53 59 C54.485 59.495 54.485 59.495 56 60 C56.226875 59.4225 56.45375 58.845 56.6875 58.25 C58.91048868 54.43916226 61.85788992 52.38070336 66 51 C72.47305293 50.46057892 75.6083213 51.40554753 81 55 C80.42415568 52.61435923 79.77772405 50.33317216 79 48 C79.66 47.67 80.32 47.34 81 47 C81.65213292 44.97536745 81.65213292 44.97536745 82 43 C81.01 42.67 80.02 42.34 79 42 C79 32.4137931 79 32.4137931 80 30 C82.07421875 29.0234375 82.07421875 29.0234375 84.6875 28.375 C85.58597656 28.13910156 86.48445312 27.90320313 87.41015625 27.66015625 C88.26480469 27.44230469 89.11945313 27.22445312 90 27 C92.00342734 26.34370484 94.00531118 25.68239354 96 25 C96 24.34 96 23.68 96 23 C97.19625 22.566875 98.3925 22.13375 99.625 21.6875 C102.3125129 20.6886014 104.74525192 19.62034336 107.3125 18.3125 C110 17 110 17 113 17 C112.88658509 19.48020497 112.75985314 21.95844969 112.625 24.4375 C112.5940625 25.14455078 112.563125 25.85160156 112.53125 26.58007812 C112.42719371 28.39239188 112.22080108 30.19817988 112 32 C111.01 32.495 111.01 32.495 110 33 C111.65 33.33 113.3 33.66 115 34 C115 34.66 115 35.32 115 36 C114.01 36 113.02 36 112 36 C112 37.32 112 38.64 112 40 C112.721875 39.67 113.44375 39.34 114.1875 39 C117.13158986 37.95321249 118.91635814 37.52559356 122 38 C124.3125 39.625 124.3125 39.625 126 42 C126.25 45.0625 126.25 45.0625 126 48 C126 48.99 126 49.98 126 51 C126 52.32 126 53.64 126 55 C126.33 55.99 126.66 56.98 127 58 C126.67 58.66 126.34 59.32 126 60 C125.34 60 124.68 60 124 60 C124 59.34 124 58.68 124 58 C123.01 57.67 122.02 57.34 121 57 C121.66 57 122.32 57 123 57 C123 55.68 123 54.36 123 53 C121.68 52.67 120.36 52.34 119 52 C118.96261719 52.53625 118.92523438 53.0725 118.88671875 53.625 C118.19557614 61.864504 116.59812469 69.89881448 115 78 C92.47253223 79.79666921 92.47253223 79.79666921 88.28515625 76.75390625 C86.58973466 74.4400938 86.66261651 73.03183263 86.75 70.1875 C86.77578125 69.30707031 86.8015625 68.42664063 86.828125 67.51953125 C87.02510294 64.63201375 87.4037022 61.83241457 88 59 C87.34 59 86.68 59 86 59 C85.67 57.02 85.34 55.04 85 53 C84.01 55.64 83.02 58.28 82 61 C79.36 61 76.72 61 74 61 C73.67 60.34 73.34 59.68 73 59 C70.12635209 58.58253392 70.12635209 58.58253392 67 59 C64.7609351 61.61224239 64.06101778 63.32880445 63.75 66.75 C63.75923212 68.9674638 63.75923212 68.9674638 65 70 C67.45792029 70.33343551 67.45792029 70.33343551 70 70 C70.99 68.515 70.99 68.515 72 67 C74.97 67.33 77.94 67.66 81 68 C80.67 71.3 80.34 74.6 80 78 C78.68 78 77.36 78 76 78 C76 78.99 76 79.98 76 81 C75.01 81.495 75.01 81.495 74 82 C73.67 82.99 73.34 83.98 73 85 C74.65 85 76.3 85 78 85 C78.66 83.35 79.32 81.7 80 80 C80.66 80 81.32 80 82 80 C82 80.66 82 81.32 82 82 C82.92232422 81.87431641 82.92232422 81.87431641 83.86328125 81.74609375 C84.67152344 81.64425781 85.47976562 81.54242188 86.3125 81.4375 C87.51326172 81.28087891 87.51326172 81.28087891 88.73828125 81.12109375 C91 81 91 81 94 82 C94 82.66 94 83.32 94 84 C94.66 84 95.32 84 96 84 C96.33 83.01 96.66 82.02 97 81 C100.25 80.25 100.25 80.25 104 80 C106.0625 81.8125 106.0625 81.8125 108 84 C111.13350717 85.26784124 111.13350717 85.26784124 114 86 C114 86.66 114 87.32 114 88 C114.66 88 115.32 88 116 88 C116.33 89.32 116.66 90.64 117 92 C116.34 92 115.68 92 115 92 C114.67 92.66 114.34 93.32 114 94 C111.36 93.67 108.72 93.34 106 93 C106 93.99 106 94.98 106 96 C105.01 96.33 104.02 96.66 103 97 C102.67 96.34 102.34 95.68 102 95 C99.22270773 94.34508976 99.22270773 94.34508976 96 93.9375 C90.09491059 93.09491059 90.09491059 93.09491059 89 92 C87.37154036 92.06609984 85.74592091 92.20510177 84.125 92.375 C83.14015625 92.47296875 82.1553125 92.5709375 81.140625 92.671875 C80.10421875 92.78015625 79.0678125 92.8884375 78 93 C75.95884158 93.21325536 73.91718896 93.42185031 71.875 93.625 C70.96492187 93.72039062 70.05484375 93.81578125 69.1171875 93.9140625 C68.41851562 93.94242187 67.71984375 93.97078125 67 94 C66 93 66 93 65.9375 90.4375 C65.9684375 89.2309375 65.9684375 89.2309375 66 88 C65.34 88 64.68 88 64 88 C64 89.32 64 90.64 64 92 C63.34 92 62.68 92 62 92 C62 90.68 62 89.36 62 88 C61.34 88 60.68 88 60 88 C59.505 89.98 59.505 89.98 59 92 C59 90.02 59 88.04 59 86 C62 86 65 86 68 86 C64.37 86 60.74 86 57 86 C57.33 87.65 57.66 89.3 58 91 C54.0186217 92.3271261 50.14954773 92.06915913 46 92 C46 90.68 46 89.36 46 88 C45.34 88 44.68 88 44 88 C44 89.32 44 90.64 44 92 C41.33333333 92 38.66666667 92 36 92 C34.39274365 88.78548731 34.94251815 85.56387464 35 82 C33.515 82.495 33.515 82.495 32 83 C32 82.01 32 81.02 32 80 C30.329375 79.690625 30.329375 79.690625 28.625 79.375 C25 78 25 78 23.5625 75.125 C23 72 23 72 23 68 C22.34 68 21.68 68 21 68 C21 67.34 21 66.68 21 66 C18.7763932 64.7018576 18.7763932 64.7018576 15 65 C15 66.98 15 68.96 15 71 C14.01 71.495 14.01 71.495 13 72 C13 73.65 13 75.3 13 77 C15.31 77 17.62 77 20 77 C20.33 78.65 20.66 80.3 21 82 C22.98 82.495 22.98 82.495 25 83 C25 83.99 25 84.98 25 86 C26.65 86.33 28.3 86.66 30 87 C30 87.99 30 88.98 30 90 C30.66 90 31.32 90 32 90 C32 90.66 32 91.32 32 92 C29.69 92 27.38 92 25 92 C24.01 93.98 24.01 93.98 23 96 C21.35 95.67 19.7 95.34 18 95 C18 95.66 18 96.32 18 97 C15.36 97 12.72 97 10 97 C10 95.35 10 93.7 10 92 C9.195625 91.87625 8.39125 91.7525 7.5625 91.625 C6.716875 91.41875 5.87125 91.2125 5 91 C4.67 90.34 4.34 89.68 4 89 C3.01 89 2.02 89 1 89 C0.505 90.485 0.505 90.485 0 92 C0 89.03 0 86.06 0 83 C4.97851214 81.78572875 8.16492468 82.44912678 13 84 C13.99 84 14.98 84 16 84 C15.67 82.35 15.34 80.7 15 79 C14.01 79.495 14.01 79.495 13 80 C11.12137125 79.91255632 9.24544819 79.75824458 7.375 79.5625 C4.714375 79.2840625 4.714375 79.2840625 2 79 C1.67 75.04 1.34 71.08 1 67 C0.34 67 -0.32 67 -1 67 C-1.04898438 67.69867188 -1.09796875 68.39734375 -1.1484375 69.1171875 C-1.22320312 70.02726562 -1.29796875 70.93734375 -1.375 71.875 C-1.44460937 72.77992187 -1.51421875 73.68484375 -1.5859375 74.6171875 C-2 77 -2 77 -4 79 C-6.3828125 79.4140625 -6.3828125 79.4140625 -9.125 79.625 C-10.49011719 79.73714844 -10.49011719 79.73714844 -11.8828125 79.8515625 C-12.58148438 79.90054688 -13.28015625 79.94953125 -14 80 C-14 80.66 -14 81.32 -14 82 C-13.28972656 82.18175781 -12.57945313 82.36351563 -11.84765625 82.55078125 C-10.92855469 82.80214844 -10.00945313 83.05351563 -9.0625 83.3125 C-8.14597656 83.55613281 -7.22945312 83.79976563 -6.28515625 84.05078125 C-5.53105469 84.36402344 -4.77695312 84.67726563 -4 85 C-3 88 -3 88 -3 92 C-4.98 92 -6.96 92 -9 92 C-9 90.68 -9 89.36 -9 88 C-9.66 88 -10.32 88 -11 88 C-11 89.32 -11 90.64 -11 92 C-11.78375 92.309375 -12.5675 92.61875 -13.375 92.9375 C-15.92330128 93.92875038 -15.92330128 93.92875038 -18 95 C-20.00800456 94.71887936 -22.01014051 94.38932033 -24 94 C-24 93.34 -24 92.68 -24 92 C-24.639375 92.165 -25.27875 92.33 -25.9375 92.5 C-29.97586652 93.15932515 -33.91807258 93.08003779 -38 93 C-38 93.66 -38 94.32 -38 95 C-38.66 95 -39.32 95 -40 95 C-40 94.34 -40 93.68 -40 93 C-42.41645782 92.83312552 -42.41645782 92.83312552 -45 93 C-45.99 93.99 -45.99 93.99 -47 95 C-47 94.34 -47 93.68 -47 93 C-47.66 93 -48.32 93 -49 93 C-49 89.04 -49 85.08 -49 81 C-47.515 80.505 -47.515 80.505 -46 80 C-46 80.99 -46 81.98 -46 83 C-44.515 82.505 -44.515 82.505 -43 82 C-40.51953125 82.33984375 -40.51953125 82.33984375 -37.8125 82.9375 C-36.91144531 83.13214844 -36.01039062 83.32679687 -35.08203125 83.52734375 C-34.05142578 83.76130859 -34.05142578 83.76130859 -33 84 C-34.1490712 82.7018576 -34.1490712 82.7018576 -37 82 C-37 81.34 -37 80.68 -37 80 C-38.13888672 79.92652344 -38.13888672 79.92652344 -39.30078125 79.8515625 C-40.29464844 79.77679688 -41.28851563 79.70203125 -42.3125 79.625 C-43.29863281 79.55539063 -44.28476562 79.48578125 -45.30078125 79.4140625 C-48 79 -48 79 -51 77 C-51.99 77.495 -51.99 77.495 -53 78 C-53.99 77.01 -54.98 76.02 -56 75 C-56 75.99 -56 76.98 -56 78 C-56.66 78 -57.32 78 -58 78 C-58.33 78.99 -58.66 79.98 -59 81 C-58.01 81.33 -57.02 81.66 -56 82 C-56 82.66 -56 83.32 -56 84 C-57.98 84 -59.96 84 -62 84 C-62 84.66 -62 85.32 -62 86 C-62.66 86 -63.32 86 -64 86 C-64 63.56 -64 41.12 -64 18 C-62.02 17.67 -60.04 17.34 -58 17 C-58 16.34 -58 15.68 -58 15 C-51.9394075 11.63438409 -46.96050253 9.38669459 -40 9 C-40 8.34 -40 7.68 -40 7 C-27.23850296 2.87410246 -27.23850296 2.87410246 -22.8125 2.375 C-19.86712029 2.27208703 -19.86712029 2.27208703 -18 0 C-11.88259287 -1.43173358 -6.18811049 -0.72545258 0 0 Z " fill="#A02313" transform="translate(64,30)"/>
<path d="M0 0 C66 0 132 0 200 0 C200 15.18 200 30.36 200 46 C197.36 46 194.72 46 192 46 C192 43.03 192 40.06 192 37 C190.906875 37.474375 189.81375 37.94875 188.6875 38.4375 C186.46523745 39.40187809 184.30499515 40.23166828 182 41 C181.67 41.99 181.34 42.98 181 44 C174.84777564 43.56826496 171.18082051 42.34594658 166 39 C166 38.34 166 37.68 166 37 C165.175 36.9175 164.35 36.835 163.5 36.75 C158.07716339 35.58796358 153.65943168 33.15438726 149.125 30 C145.69945212 27.80764936 142.31351121 26.44970695 138.5234375 25.015625 C136.15873599 24.06388755 133.98667075 22.966886 131.75 21.75 C128.31278238 20.00728245 125.90366231 19.41860349 122 20 C120.95457031 20.47179687 119.90914063 20.94359375 118.83203125 21.4296875 C114.88693536 23.16884533 110.98951249 23.89414402 106.75 24.5625 C101.09503567 25.43652408 101.09503567 25.43652408 96 28 C94.51502615 28.56224553 93.01303687 29.08084993 91.5 29.5625 C90.7265625 29.81128906 89.953125 30.06007813 89.15625 30.31640625 C88.4446875 30.54199219 87.733125 30.76757812 87 31 C85.515 31.495 85.515 31.495 84 32 C77.3671044 32.41576459 70.97647805 32.10489295 64.4375 30.9375 C58.21870577 29.87077252 52.20938236 29.7273332 46 31 C45.34 31.66 44.68 32.32 44 33 C42.046875 33.5625 42.046875 33.5625 39.75 34 C36.9582128 34.56372626 34.4540876 35.18896968 31.75 36.125 C28.99303928 37.00221477 26.87094768 37.16887928 24 37 C24 37.66 24 38.32 24 39 C23.34773438 39.18175781 22.69546875 39.36351562 22.0234375 39.55078125 C17.05508972 40.97973083 12.59439194 42.58794423 8 45 C7.34 45 6.68 45 6 45 C6 45.66 6 46.32 6 47 C3.03 47.495 3.03 47.495 0 48 C0 32.16 0 16.32 0 0 Z " fill="#862011" transform="translate(0,0)"/>
<path d="M0 0 C-0.11341491 2.48020497 -0.24014686 4.95844969 -0.375 7.4375 C-0.4059375 8.14455078 -0.436875 8.85160156 -0.46875 9.58007812 C-0.57280629 11.39239188 -0.77919892 13.19817988 -1 15 C-1.66 15.33 -2.32 15.66 -3 16 C-1.35 16.33 0.3 16.66 2 17 C2 17.66 2 18.32 2 19 C1.01 19 0.02 19 -1 19 C-1 20.32 -1 21.64 -1 23 C0.0828125 22.505 0.0828125 22.505 1.1875 22 C4.13158986 20.95321249 5.91635814 20.52559356 9 21 C11.3125 22.625 11.3125 22.625 13 25 C13.25 28.0625 13.25 28.0625 13 31 C13 31.99 13 32.98 13 34 C13 35.32 13 36.64 13 38 C13.33 38.99 13.66 39.98 14 41 C13.505 41.99 13.505 41.99 13 43 C12.34 43 11.68 43 11 43 C11 42.34 11 41.68 11 41 C9.515 40.505 9.515 40.505 8 40 C8.66 40 9.32 40 10 40 C10 38.68 10 37.36 10 36 C8.02 35.505 8.02 35.505 6 35 C5.96261719 35.53625 5.92523438 36.0725 5.88671875 36.625 C5.19557614 44.864504 3.59812469 52.89881448 2 61 C-20.52746777 62.79666921 -20.52746777 62.79666921 -24.71484375 59.75390625 C-26.41026534 57.4400938 -26.33738349 56.03183263 -26.25 53.1875 C-26.22421875 52.30707031 -26.1984375 51.42664063 -26.171875 50.51953125 C-25.97489706 47.63201375 -25.5962978 44.83241457 -25 42 C-25.66 42 -26.32 42 -27 42 C-27.495 39.03 -27.495 39.03 -28 36 C-28.99 38.64 -29.98 41.28 -31 44 C-33.64 44 -36.28 44 -39 44 C-39.33 43.34 -39.66 42.68 -40 42 C-42.87364791 41.58253392 -42.87364791 41.58253392 -46 42 C-48.2390649 44.61224239 -48.93898222 46.32880445 -49.25 49.75 C-49.24076788 51.9674638 -49.24076788 51.9674638 -48 53 C-45.54207971 53.33343551 -45.54207971 53.33343551 -43 53 C-42.34 52.01 -41.68 51.02 -41 50 C-38.03 50.33 -35.06 50.66 -32 51 C-32.495 55.95 -32.495 55.95 -33 61 C-34.32 61 -35.64 61 -37 61 C-37 61.99 -37 62.98 -37 64 C-37.99 64.495 -37.99 64.495 -39 65 C-39.495 66.485 -39.495 66.485 -40 68 C-38.35 68 -36.7 68 -35 68 C-34.34 66.35 -33.68 64.7 -33 63 C-32.34 63 -31.68 63 -31 63 C-31 63.66 -31 64.32 -31 65 C-30.38511719 64.91621094 -29.77023438 64.83242187 -29.13671875 64.74609375 C-27.92435547 64.59333984 -27.92435547 64.59333984 -26.6875 64.4375 C-25.48673828 64.28087891 -25.48673828 64.28087891 -24.26171875 64.12109375 C-22 64 -22 64 -19 65 C-19 65.66 -19 66.32 -19 67 C-18.34 67 -17.68 67 -17 67 C-16.505 65.515 -16.505 65.515 -16 64 C-12.75 63.25 -12.75 63.25 -9 63 C-6.9375 64.8125 -6.9375 64.8125 -5 67 C-1.86649283 68.26784124 -1.86649283 68.26784124 1 69 C1 69.66 1 70.32 1 71 C1.66 71 2.32 71 3 71 C3.33 72.32 3.66 73.64 4 75 C3.34 75 2.68 75 2 75 C1.67 75.66 1.34 76.32 1 77 C-1.64 76.67 -4.28 76.34 -7 76 C-7 76.99 -7 77.98 -7 79 C-8.485 79.495 -8.485 79.495 -10 80 C-10.33 79.34 -10.66 78.68 -11 78 C-13.77729227 77.34508976 -13.77729227 77.34508976 -17 76.9375 C-22.90508941 76.09491059 -22.90508941 76.09491059 -24 75 C-25.62845964 75.06609984 -27.25407909 75.20510177 -28.875 75.375 C-29.85984375 75.47296875 -30.8446875 75.5709375 -31.859375 75.671875 C-32.89578125 75.78015625 -33.9321875 75.8884375 -35 76 C-37.04115842 76.21325536 -39.08281104 76.42185031 -41.125 76.625 C-42.03507812 76.72039062 -42.94515625 76.81578125 -43.8828125 76.9140625 C-44.58148438 76.94242187 -45.28015625 76.97078125 -46 77 C-47 76 -47 76 -47.0625 73.4375 C-47.041875 72.633125 -47.02125 71.82875 -47 71 C-47.66 71 -48.32 71 -49 71 C-49 72.32 -49 73.64 -49 75 C-49.66 75 -50.32 75 -51 75 C-51 73.68 -51 72.36 -51 71 C-51.66 71 -52.32 71 -53 71 C-53.495 72.98 -53.495 72.98 -54 75 C-54 73.02 -54 71.04 -54 69 C-51 69 -48 69 -45 69 C-48.63 69 -52.26 69 -56 69 C-55.67 70.65 -55.34 72.3 -55 74 C-58.9813783 75.3271261 -62.85045227 75.06915913 -67 75 C-67 73.68 -67 72.36 -67 71 C-67.66 71 -68.32 71 -69 71 C-69 72.32 -69 73.64 -69 75 C-71.66666667 75 -74.33333333 75 -77 75 C-78.60725635 71.78548731 -78.05748185 68.56387464 -78 65 C-78.99 65.33 -79.98 65.66 -81 66 C-81 65.01 -81 64.02 -81 63 C-82.11375 62.79375 -83.2275 62.5875 -84.375 62.375 C-88 61 -88 61 -89.4375 58.125 C-90 55 -90 55 -90 51 C-90.66 51 -91.32 51 -92 51 C-92 50.34 -92 49.68 -92 49 C-94.2236068 47.7018576 -94.2236068 47.7018576 -98 48 C-98 49.98 -98 51.96 -98 54 C-98.99 54.495 -98.99 54.495 -100 55 C-100 56.65 -100 58.3 -100 60 C-97.69 60 -95.38 60 -93 60 C-92.67 61.65 -92.34 63.3 -92 65 C-90.68 65.33 -89.36 65.66 -88 66 C-88 66.99 -88 67.98 -88 69 C-86.35 69.33 -84.7 69.66 -83 70 C-83 70.99 -83 71.98 -83 73 C-82.34 73 -81.68 73 -81 73 C-81 73.66 -81 74.32 -81 75 C-83.31 75 -85.62 75 -88 75 C-88.66 76.32 -89.32 77.64 -90 79 C-91.65 78.67 -93.3 78.34 -95 78 C-95 78.66 -95 79.32 -95 80 C-97.64 80 -100.28 80 -103 80 C-103 78.35 -103 76.7 -103 75 C-104.2065625 74.814375 -104.2065625 74.814375 -105.4375 74.625 C-106.283125 74.41875 -107.12875 74.2125 -108 74 C-108.33 73.34 -108.66 72.68 -109 72 C-109.99 72 -110.98 72 -112 72 C-112.33 72.99 -112.66 73.98 -113 75 C-113 72.03 -113 69.06 -113 66 C-108.02148786 64.78572875 -104.83507532 65.44912678 -100 67 C-99.01 67 -98.02 67 -97 67 C-97.495 64.525 -97.495 64.525 -98 62 C-98.99 62.495 -98.99 62.495 -100 63 C-101.87862875 62.91255632 -103.75455181 62.75824458 -105.625 62.5625 C-106.62789063 62.46066406 -107.63078125 62.35882813 -108.6640625 62.25390625 C-109.43492188 62.17011719 -110.20578125 62.08632812 -111 62 C-110.23945318 52.56921949 -108.61328437 43.31443428 -107 34 C-106.20207031 33.87753906 -105.40414062 33.75507812 -104.58203125 33.62890625 C-101.84191647 33.2772507 -101.84191647 33.2772507 -100.6875 30.9375 C-100.460625 30.298125 -100.23375 29.65875 -100 29 C-99.5978125 29.495 -99.195625 29.99 -98.78125 30.5 C-96.49207122 32.4277295 -95.43141142 32.23451291 -92.5 32 C-88.39041096 31.67123288 -88.39041096 31.67123288 -86.21875 33.5 C-85.8165625 33.995 -85.414375 34.49 -85 35 C-84.01 34.505 -84.01 34.505 -83 34 C-69.62198315 32.95377048 -69.62198315 32.95377048 -65.3125 35.75 C-63.27408508 37.73332263 -61.66139411 39.70569384 -60 42 C-59.01 42.33 -58.02 42.66 -57 43 C-56.773125 42.4225 -56.54625 41.845 -56.3125 41.25 C-54.08951132 37.43916226 -51.14211008 35.38070336 -47 34 C-40.52694707 33.46057892 -37.3916787 34.40554753 -32 38 C-32.57584432 35.61435923 -33.22227595 33.33317216 -34 31 C-33.01 30.505 -33.01 30.505 -32 30 C-31.34786708 27.97536745 -31.34786708 27.97536745 -31 26 C-32.485 25.505 -32.485 25.505 -34 25 C-34 15.4137931 -34 15.4137931 -33 13 C-30.92578125 12.0234375 -30.92578125 12.0234375 -28.3125 11.375 C-27.41402344 11.13910156 -26.51554687 10.90320312 -25.58984375 10.66015625 C-24.30787109 10.33337891 -24.30787109 10.33337891 -23 10 C-20.99657266 9.34370484 -18.99468882 8.68239354 -17 8 C-17 7.34 -17 6.68 -17 6 C-15.80375 5.566875 -14.6075 5.13375 -13.375 4.6875 C-10.6874871 3.6886014 -8.25474808 2.62034336 -5.6875 1.3125 C-3 0 -3 0 0 0 Z " fill="#9B2D22" transform="translate(177,47)"/>
<path d="M0 0 C2.7081604 -0.36076355 2.7081604 -0.36076355 6.19384766 -0.34057617 C7.49504547 -0.34034958 8.79624329 -0.34012299 10.13687134 -0.33988953 C11.56260519 -0.32456837 12.98833556 -0.30892037 14.4140625 -0.29296875 C15.86851566 -0.28737443 17.32297447 -0.28310356 18.7774353 -0.28010559 C22.60806855 -0.26864374 26.43836128 -0.23916547 30.26885986 -0.20599365 C34.86347415 -0.16992992 39.45820221 -0.15613796 44.05291748 -0.13863373 C51.03551525 -0.10952842 58.01736567 -0.05205166 65 0 C65 15.18 65 30.36 65 46 C62.36 46 59.72 46 57 46 C57 43.03 57 40.06 57 37 C55.906875 37.474375 54.81375 37.94875 53.6875 38.4375 C51.46523745 39.40187809 49.30499515 40.23166828 47 41 C46.67 41.99 46.34 42.98 46 44 C39.84777564 43.56826496 36.18082051 42.34594658 31 39 C31 38.34 31 37.68 31 37 C30.175 36.9175 29.35 36.835 28.5 36.75 C23.07716339 35.58796358 18.65943168 33.15438726 14.125 30 C11.30764067 28.19689003 8.93040275 27.18602791 5.8125 26.0625 C1.55719796 24.45960596 0.02582476 23.16419533 -2 19 C-4.08533633 18.12177688 -4.08533633 18.12177688 -6 18 C-7.15837626 13.94568308 -6.83691257 11.78187881 -5 8 C-4.34 8 -3.68 8 -3 8 C-2.814375 6.8553125 -2.814375 6.8553125 -2.625 5.6875 C-2 3 -2 3 0 0 Z " fill="#691B12" transform="translate(135,0)"/>
<path d="M0 0 C0.99 0 1.98 0 3 0 C3 0.66 3 1.32 3 2 C4.32 2 5.64 2 7 2 C8.4765625 3.3359375 8.4765625 3.3359375 10 5 C11.42727823 5.92479076 12.88880447 6.79820863 14.375 7.625 C15.50035156 8.26308594 15.50035156 8.26308594 16.6484375 8.9140625 C20.68184458 10.77666577 23.79426082 11.36079144 28.0625 10.0625 C31.01762749 9.17888762 32.76748175 9 36 9 C36 8.34 36 7.68 36 7 C37.76913824 6.77773136 39.54044371 6.57266127 41.3125 6.375 C42.79169922 6.20097656 42.79169922 6.20097656 44.30078125 6.0234375 C47 6 47 6 50 8 C53.12521833 8.16699232 53.12521833 8.16699232 56 8 C56 8.66 56 9.32 56 10 C56.66 10 57.32 10 58 10 C58.495 11.485 58.495 11.485 59 13 C59.60328125 13.04898438 60.2065625 13.09796875 60.828125 13.1484375 C61.62734375 13.22320312 62.4265625 13.29796875 63.25 13.375 C64.03890625 13.44460937 64.8278125 13.51421875 65.640625 13.5859375 C68.085877 14.01507113 69.84836903 14.78600638 72 16 C72 16.66 72 17.32 72 18 C72.78375 18.2475 73.5675 18.495 74.375 18.75 C78.98401329 20.33931493 83.48547716 22.16207173 88 24 C88 24.66 88 25.32 88 26 C89.32 26 90.64 26 92 26 C91.67 29.96 91.34 33.92 91 38 C60.97 38 30.94 38 0 38 C0 25.46 0 12.92 0 0 Z " fill="#89160E" transform="translate(0,162)"/>
<path d="M0 0 C-0.11341491 2.48020497 -0.24014686 4.95844969 -0.375 7.4375 C-0.42140625 8.49807617 -0.42140625 8.49807617 -0.46875 9.58007812 C-0.57280629 11.39239188 -0.77919892 13.19817988 -1 15 C-1.66 15.33 -2.32 15.66 -3 16 C-1.35 16.33 0.3 16.66 2 17 C2 17.66 2 18.32 2 19 C1.01 19 0.02 19 -1 19 C-1 20.32 -1 21.64 -1 23 C-0.278125 22.67 0.44375 22.34 1.1875 22 C4.13158986 20.95321249 5.91635814 20.52559356 9 21 C11.3125 22.625 11.3125 22.625 13 25 C13.25 28.0625 13.25 28.0625 13 31 C13 31.99 13 32.98 13 34 C13 35.32 13 36.64 13 38 C13.33 38.99 13.66 39.98 14 41 C13.505 41.99 13.505 41.99 13 43 C12.34 43 11.68 43 11 43 C11 42.34 11 41.68 11 41 C9.515 40.505 9.515 40.505 8 40 C8.66 40 9.32 40 10 40 C10 38.68 10 37.36 10 36 C8.02 35.505 8.02 35.505 6 35 C5.96261719 35.53625 5.92523438 36.0725 5.88671875 36.625 C5.19557614 44.864504 3.59812469 52.89881448 2 61 C-20.52746777 62.79666921 -20.52746777 62.79666921 -24.71484375 59.75390625 C-26.41026534 57.4400938 -26.33738349 56.03183263 -26.25 53.1875 C-26.22421875 52.30707031 -26.1984375 51.42664063 -26.171875 50.51953125 C-25.97489706 47.63201375 -25.5962978 44.83241457 -25 42 C-25.66 42 -26.32 42 -27 42 C-27.33 40.02 -27.66 38.04 -28 36 C-28.99 38.64 -29.98 41.28 -31 44 C-33.64 44 -36.28 44 -39 44 C-39.33 43.34 -39.66 42.68 -40 42 C-42.87364791 41.58253392 -42.87364791 41.58253392 -46 42 C-48.2390649 44.61224239 -48.93898222 46.32880445 -49.25 49.75 C-49.24076788 51.9674638 -49.24076788 51.9674638 -48 53 C-45.54207971 53.33343551 -45.54207971 53.33343551 -43 53 C-42.34 52.01 -41.68 51.02 -41 50 C-38.03 50.33 -35.06 50.66 -32 51 C-33.30913227 54.92739681 -34.78990195 57.35638984 -38 60 C-43.24793298 61.67933855 -48.92495749 61.97129649 -53.9375 59.625 C-57.93030492 56.4791537 -57.93030492 56.4791537 -58.40625 53.20703125 C-58.69059504 42.91137111 -58.69059504 42.91137111 -55.3125 38.8125 C-50.9745996 34.727391 -47.08894061 33.54963991 -41.0703125 33.6640625 C-37.49375096 34.24441022 -34.99042202 36.00638532 -32 38 C-32.57584432 35.61435923 -33.22227595 33.33317216 -34 31 C-33.34 30.67 -32.68 30.34 -32 30 C-31.34786708 27.97536745 -31.34786708 27.97536745 -31 26 C-31.99 25.67 -32.98 25.34 -34 25 C-34 15.4137931 -34 15.4137931 -33 13 C-30.92578125 12.0234375 -30.92578125 12.0234375 -28.3125 11.375 C-27.41402344 11.13910156 -26.51554687 10.90320312 -25.58984375 10.66015625 C-24.73519531 10.44230469 -23.88054687 10.22445312 -23 10 C-20.99657266 9.34370484 -18.99468882 8.68239354 -17 8 C-17 7.34 -17 6.68 -17 6 C-15.80375 5.566875 -14.6075 5.13375 -13.375 4.6875 C-10.6874871 3.6886014 -8.25474808 2.62034336 -5.6875 1.3125 C-3 0 -3 0 0 0 Z " fill="#9E2011" transform="translate(177,47)"/>
<path d="M0 0 C3.96 0.33 7.92 0.66 12 1 C11.125 7.875 11.125 7.875 10 9 C7.32941149 9.14115161 4.67567762 9.04247107 2 9 C2 9.66 2 10.32 2 11 C4.64 11 7.28 11 10 11 C8.5670802 20.05268156 6.83957765 29.02286105 5 38 C0.05 38.495 0.05 38.495 -5 39 C-5 39.66 -5 40.32 -5 41 C-4.28972656 41.18175781 -3.57945313 41.36351562 -2.84765625 41.55078125 C-1.46900391 41.92783203 -1.46900391 41.92783203 -0.0625 42.3125 C0.85402344 42.55613281 1.77054688 42.79976562 2.71484375 43.05078125 C3.46894531 43.36402344 4.22304688 43.67726562 5 44 C6 47 6 47 6 51 C4.02 51 2.04 51 0 51 C0 49.68 0 48.36 0 47 C-0.66 47 -1.32 47 -2 47 C-2 48.32 -2 49.64 -2 51 C-2.78375 51.309375 -3.5675 51.61875 -4.375 51.9375 C-6.92330128 52.92875038 -6.92330128 52.92875038 -9 54 C-11.00800456 53.71887936 -13.01014051 53.38932033 -15 53 C-15 52.34 -15 51.68 -15 51 C-15.639375 51.165 -16.27875 51.33 -16.9375 51.5 C-20.97586652 52.15932515 -24.91807258 52.08003779 -29 52 C-29 52.66 -29 53.32 -29 54 C-29.66 54 -30.32 54 -31 54 C-31 53.34 -31 52.68 -31 52 C-33.41645782 51.83312552 -33.41645782 51.83312552 -36 52 C-36.66 52.66 -37.32 53.32 -38 54 C-38 53.34 -38 52.68 -38 52 C-38.66 52 -39.32 52 -40 52 C-40 48.04 -40 44.08 -40 40 C-38.515 39.505 -38.515 39.505 -37 39 C-37 39.99 -37 40.98 -37 42 C-35.515 41.505 -35.515 41.505 -34 41 C-31.51953125 41.33984375 -31.51953125 41.33984375 -28.8125 41.9375 C-27.91144531 42.13214844 -27.01039062 42.32679687 -26.08203125 42.52734375 C-25.39496094 42.68332031 -24.70789062 42.83929688 -24 43 C-25.1490712 41.7018576 -25.1490712 41.7018576 -28 41 C-28 40.34 -28 39.68 -28 39 C-31.63 38.67 -35.26 38.34 -39 38 C-39.37747198 30.32473631 -37.95606332 23.09081313 -36.5625 15.5625 C-36.33240234 14.27150391 -36.10230469 12.98050781 -35.86523438 11.65039062 C-34.13686957 2.13686957 -34.13686957 2.13686957 -33 1 C-30.0894353 0.81864714 -27.22532419 0.72171485 -24.3125 0.6875 C-23.50876953 0.65849609 -22.70503906 0.62949219 -21.87695312 0.59960938 C-16.40694571 0.54146539 -13.32803487 1.35048505 -9 5 C-4.50598663 10.55838495 -4.67930437 15.09134264 -5.0546875 22.109375 C-5.25591938 25.1998884 -5.25591938 25.1998884 -3 28 C-2.20592334 23.63257839 -1.97727087 19.56827883 -2.0625 15.125 C-2.12337219 9.7547204 -1.3812351 5.17963161 0 0 Z " fill="#9B261A" transform="translate(55,71)"/>
<path d="M0 0 C-0.11411804 2.75084547 -0.24085949 5.50011947 -0.375 8.25 C-0.4059375 9.02730469 -0.436875 9.80460937 -0.46875 10.60546875 C-0.83381886 17.72431144 -0.83381886 17.72431144 -3 21 C-8.61261684 21.22805215 -13.83937161 20.93244407 -19.375 19.9375 C-25.65872563 18.88648539 -31.72893922 18.71469167 -38 20 C-38.66 20.66 -39.32 21.32 -40 22 C-41.953125 22.5625 -41.953125 22.5625 -44.25 23 C-47.0417872 23.56372626 -49.5459124 24.18896968 -52.25 25.125 C-55.00696072 26.00221477 -57.12905232 26.16887928 -60 26 C-60 26.66 -60 27.32 -60 28 C-63.96 28.495 -63.96 28.495 -68 29 C-67.34 28.67 -66.68 28.34 -66 28 C-65.896875 27.401875 -65.79375 26.80375 -65.6875 26.1875 C-64.6841693 22.99508413 -62.7037837 21.84648643 -60 20 C-59.34 20 -58.68 20 -58 20 C-57.62875 18.824375 -57.62875 18.824375 -57.25 17.625 C-55.79075497 14.56058543 -54.94985044 14.38274239 -52 13 C-50.93283296 11.20067421 -50.93283296 11.20067421 -50 9 C-48 5.75 -48 5.75 -46 3 C-45.34 3 -44.68 3 -44 3 C-44 2.01 -44 1.02 -44 0 C-36.08 0.33 -28.16 0.66 -20 1 C-20 1.66 -20 2.32 -20 3 C-18.02 3 -16.04 3 -14 3 C-14 2.34 -14 1.68 -14 1 C-12.41913952 0.63495397 -10.83516093 0.28339494 -9.25 -0.0625 C-8.36828125 -0.25972656 -7.4865625 -0.45695313 -6.578125 -0.66015625 C-3.97733679 -1.00298742 -2.48151155 -0.70340244 0 0 Z " fill="#922110" transform="translate(84,11)"/>
<path d="M0 0 C0.80373047 -0.02900391 1.60746094 -0.05800781 2.43554688 -0.08789062 C7.88371691 -0.14580249 11.06853564 0.57755685 15.3125 4.3125 C19.5755519 9.74721521 19.03795715 15.7116371 18.3125 22.3125 C16.83991065 27.11540679 14.33448956 31.23686093 10.3125 34.3125 C4.99245334 36.62556377 0.12137224 36.54878063 -5.5625 36.4375 C-6.44164062 36.42847656 -7.32078125 36.41945312 -8.2265625 36.41015625 C-10.3803271 36.38674577 -12.53395014 36.3508801 -14.6875 36.3125 C-14.78945508 31.57140061 -14.46734783 27.20387074 -13.62890625 22.5390625 C-13.40783203 21.30285156 -13.18675781 20.06664062 -12.95898438 18.79296875 C-12.72501953 17.52066406 -12.49105469 16.24835938 -12.25 14.9375 C-12.01990234 13.64199219 -11.78980469 12.34648438 -11.55273438 11.01171875 C-9.57990083 0.1125282 -9.57990083 0.1125282 0 0 Z " fill="#FDFCFB" transform="translate(30.6875,71.6875)"/>
<path d="M0 0 C0.79921875 0.01804688 1.5984375 0.03609375 2.421875 0.0546875 C3.02515625 0.07789063 3.6284375 0.10109375 4.25 0.125 C4.25 1.775 4.25 3.425 4.25 5.125 C3.610625 5.33125 2.97125 5.5375 2.3125 5.75 C-0.09925077 7.02038209 -0.09925077 7.02038209 -0.5 10.25 C-0.5825 11.19875 -0.665 12.1475 -0.75 13.125 C0.2709375 12.3825 0.2709375 12.3825 1.3125 11.625 C4.90750336 9.7892536 7.26290927 9.67363124 11.25 10.125 C12.24 11.61 12.24 11.61 13.25 13.125 C15.56939207 13.8386591 17.90523449 14.4997292 20.25 15.125 C22.25 16.125 24.25 17.125 26.25 18.125 C28.98572585 18.82407414 28.98572585 18.82407414 31.25 19.125 C31.25 18.465 31.25 17.805 31.25 17.125 C33.95879335 15.77060332 36.25933268 16.05998549 39.25 16.125 C39.25 16.785 39.25 17.445 39.25 18.125 C40.33861328 18.04765625 40.33861328 18.04765625 41.44921875 17.96875 C44.66591386 18.148203 46.31615577 18.98539151 49.0625 20.625 C49.85269531 21.0890625 50.64289063 21.553125 51.45703125 22.03125 C52.04871094 22.3921875 52.64039062 22.753125 53.25 23.125 C53.25 23.455 53.25 23.785 53.25 24.125 C30.15 24.125 7.05 24.125 -16.75 24.125 C-16.75 16.535 -16.75 8.945 -16.75 1.125 C-14.11 1.455 -11.47 1.785 -8.75 2.125 C-3.47227357 -0.10212569 -3.47227357 -0.10212569 0 0 Z " fill="#741612" transform="translate(16.75,175.875)"/>
<path d="M0 0 C0.9215538 0.00222061 1.8431076 0.00444122 2.79258728 0.00672913 C3.83359085 0.00680466 4.87459442 0.00688019 5.94714355 0.00695801 C7.07941879 0.01211929 8.21169403 0.01728058 9.37828064 0.02259827 C10.53106003 0.02401321 11.68383942 0.02542816 12.87155151 0.02688599 C16.57043503 0.03250446 20.26925903 0.0450601 23.96812439 0.05775452 C26.46877456 0.06276714 28.96942567 0.06733045 31.47007751 0.07142639 C37.61528027 0.0824799 43.76044808 0.099236 49.90562439 0.12025452 C48.91562439 2.76025452 47.92562439 5.40025452 46.90562439 8.12025452 C46.24562439 8.12025452 45.58562439 8.12025452 44.90562439 8.12025452 C43.89022327 12.22249037 43.89022327 12.22249037 44.90562439 16.12025452 C44.57562439 16.78025452 44.24562439 17.44025452 43.90562439 18.12025452 C44.68937439 18.20275452 45.47312439 18.28525452 46.28062439 18.37025452 C48.90562439 19.12025452 48.90562439 19.12025452 50.21812439 21.18275452 C50.44499939 21.82212952 50.67187439 22.46150452 50.90562439 23.12025452 C45.15562439 21.24525452 45.15562439 21.24525452 42.90562439 20.12025452 C42.90562439 19.46025452 42.90562439 18.80025452 42.90562439 18.12025452 C40.91994731 18.1528066 38.93427022 18.18535868 36.94859314 18.21791077 C34.90562439 18.12025452 34.90562439 18.12025452 31.90562439 17.12025452 C28.62694007 16.72305708 25.34956115 16.35885671 22.06187439 16.04603577 C17.15475402 15.50182505 13.38802984 14.18126004 8.90562439 12.12025452 C8.24562439 12.12025452 7.58562439 12.12025452 6.90562439 12.12025452 C5.23596988 11.80222509 3.56883921 11.470405 1.90562439 11.12025452 C1.90562439 10.46025452 1.90562439 9.80025452 1.90562439 9.12025452 C-3.57155329 7.29039754 -3.57155329 7.29039754 -9.09437561 8.12025452 C-8.11571223 6.97399129 -7.13642974 5.82825664 -6.15687561 4.68275452 C-5.61160217 4.04466858 -5.06632874 3.40658264 -4.50453186 2.74916077 C-2.23569263 0.12836863 -2.23569263 0.12836863 0 0 Z " fill="#791E0F" transform="translate(85.09437561035156,-0.1202545166015625)"/>
<path d="M0 0 C4.75 0.875 4.75 0.875 7 2 C7 3.32 7 4.64 7 6 C6.01 6.66 5.02 7.32 4 8 C4 9.32 4 10.64 4 12 C5.98 11.67 7.96 11.34 10 11 C10 12.98 10 14.96 10 17 C10.66 17 11.32 17 12 17 C12 17.66 12 18.32 12 19 C10.02 19 8.04 19 6 19 C5.67 23.29 5.34 27.58 5 32 C6.32 32.66 7.64 33.32 9 34 C8.01 34 7.02 34 6 34 C6 35.65 6 37.3 6 39 C5.67 38.01 5.34 37.02 5 36 C1.535 36.495 1.535 36.495 -2 37 C-2 36.34 -2 35.68 -2 35 C-2.886875 34.9175 -3.77375 34.835 -4.6875 34.75 C-8 34 -8 34 -10.5 31.875 C-12.9132052 29.65474245 -12.9132052 29.65474245 -16.25 30.125 C-17.1575 30.41375 -18.065 30.7025 -19 31 C-19.33 31.66 -19.66 32.32 -20 33 C-20.66 33 -21.32 33 -22 33 C-22 32.34 -22 31.68 -22 31 C-26.65052872 30.73067479 -26.65052872 30.73067479 -31 32 C-31.99 31.67 -32.98 31.34 -34 31 C-34 30.34 -34 29.68 -34 29 C-36.7839183 30.39195915 -36.97898997 32.15575779 -38 35 C-39.65 34.67 -41.3 34.34 -43 34 C-42.67 32.68 -42.34 31.36 -42 30 C-41.34 30 -40.68 30 -40 30 C-40 29.01 -40 28.02 -40 27 C-38.68 27 -37.36 27 -36 27 C-36.020625 25.72125 -36.04125 24.4425 -36.0625 23.125 C-36.125 19.25 -36.125 19.25 -35 17 C-37.97 16.67 -40.94 16.34 -44 16 C-44.66 17.32 -45.32 18.64 -46 20 C-48.375 20.125 -48.375 20.125 -51 20 C-51.66 19.34 -52.32 18.68 -53 18 C-52.80468763 14.48437733 -52.35925457 11.73741727 -50.8125 8.5625 C-49 7 -49 7 -45.8125 6.75 C-44.884375 6.8325 -43.95625 6.915 -43 7 C-42.67 7.99 -42.34 8.98 -42 10 C-39.36 10 -36.72 10 -34 10 C-33.87625 9.443125 -33.7525 8.88625 -33.625 8.3125 C-32.94023145 5.77885636 -32.00866237 3.42078968 -31 1 C-30.67 1 -30.34 1 -30 1 C-30 3.31 -30 5.62 -30 8 C-29.34 8 -28.68 8 -28 8 C-28 13.94 -28 19.88 -28 26 C-18.96673068 26.72996116 -10.06128492 27.13546771 -1 27 C-0.94392578 26.195625 -0.94392578 26.195625 -0.88671875 25.375 C-0.19557614 17.135496 1.40187531 9.10118552 3 1 C2.01 0.67 1.02 0.34 0 0 Z " fill="#9A1B0E" transform="translate(180,81)"/>
<path d="M0 0 C9.24 0 18.48 0 28 0 C28.06881254 4.52123868 28.12855845 9.04066687 28.16479492 13.56201172 C28.17989711 15.10048574 28.20038046 16.63891661 28.22631836 18.17724609 C28.26264074 20.38650141 28.27971119 22.59518848 28.29296875 24.8046875 C28.30845261 25.49432587 28.32393646 26.18396423 28.33988953 26.89450073 C28.34057617 28.83544922 28.34057617 28.83544922 28 32 C24.79619983 34.13586678 23.98060033 34.23132175 20.3125 34.125 C19.50425781 34.10695312 18.69601563 34.08890625 17.86328125 34.0703125 C17.24839844 34.04710937 16.63351563 34.02390625 16 34 C15 29.25 15 29.25 15 27 C14.34 27 13.68 27 13 27 C10.50716601 23.26074902 10.68085211 20.66637665 10.5390625 16.27734375 C10.36117187 15.52582031 10.18328125 14.77429687 10 14 C8.13985312 12.91861881 8.13985312 12.91861881 6 12 C4.296875 9.94140625 4.296875 9.94140625 2.75 7.5625 C2.22921875 6.78003906 1.7084375 5.99757813 1.171875 5.19140625 C0 3 0 3 0 0 Z " fill="#581B19" transform="translate(172,0)"/>
<path d="M0 0 C2.97 0 5.94 0 9 0 C9.33 0.66 9.66 1.32 10 2 C10.66 1.34 11.32 0.68 12 0 C15.125 -0.125 15.125 -0.125 18 0 C17.47731534 2.76276177 16.89130413 5.3260876 16 8 C14.576875 8.4021875 14.576875 8.4021875 13.125 8.8125 C9.83432362 9.73832945 9.83432362 9.73832945 8.125 12.5625 C6.72676411 16.83488745 6.7330126 20.55021001 7 25 C9.31 25 11.62 25 14 25 C14.33 26.65 14.66 28.3 15 30 C16.32 30.33 17.64 30.66 19 31 C19 31.99 19 32.98 19 34 C20.65 34.33 22.3 34.66 24 35 C24 35.99 24 36.98 24 38 C24.66 38 25.32 38 26 38 C26 38.66 26 39.32 26 40 C23.69 40 21.38 40 19 40 C18.34 41.32 17.68 42.64 17 44 C15.35 43.67 13.7 43.34 12 43 C12 43.66 12 44.32 12 45 C9.36 45 6.72 45 4 45 C4 43.35 4 41.7 4 40 C2.7934375 39.814375 2.7934375 39.814375 1.5625 39.625 C0.716875 39.41875 -0.12875 39.2125 -1 39 C-1.33 38.34 -1.66 37.68 -2 37 C-2.99 37 -3.98 37 -5 37 C-5.33 37.99 -5.66 38.98 -6 40 C-6 37.03 -6 34.06 -6 31 C-1.02148786 29.78572875 2.16492468 30.44912678 7 32 C7.99 32 8.98 32 10 32 C9.67 30.35 9.34 28.7 9 27 C8.34 27.33 7.68 27.66 7 28 C5.12137125 27.91255632 3.24544819 27.75824458 1.375 27.5625 C0.37210937 27.46066406 -0.63078125 27.35882813 -1.6640625 27.25390625 C-2.43492188 27.17011719 -3.20578125 27.08632812 -4 27 C-3.27643663 17.88310149 -1.65707093 8.98361723 0 0 Z " fill="#9B271C" transform="translate(70,82)"/>
<path d="M0 0 C3.10679749 1.33773574 5.44873594 2.89747189 7 6 C7.13677734 9.33736713 7.04283944 12.6585233 7 16 C1.06 16 -4.88 16 -11 16 C-10.34 17.32 -9.68 18.64 -9 20 C-6.44480079 20.81171228 -6.44480079 20.81171228 -4 21 C-4 20.34 -4 19.68 -4 19 C-0.7 19 2.6 19 6 19 C4.10013588 22.79972824 3.3890073 23.84335899 0 26 C-4.98766098 27.66255366 -9.98368448 27.83282597 -14.875 25.8125 C-17.98105182 23.1632205 -19.69533521 21.01004455 -20.3203125 16.88671875 C-20.59519252 11.43493167 -19.71629717 8.20528363 -16 4 C-11.08323806 -0.4484989 -6.37324691 -1.05359997 0 0 Z " fill="#FEF1EE" transform="translate(108,81)"/>
<path d="M0 0 C0.66 0 1.32 0 2 0 C2 0.66 2 1.32 2 2 C2.92232422 1.87431641 2.92232422 1.87431641 3.86328125 1.74609375 C4.67152344 1.64425781 5.47976562 1.54242188 6.3125 1.4375 C7.11300781 1.33308594 7.91351563 1.22867188 8.73828125 1.12109375 C11 1 11 1 14 2 C14 2.66 14 3.32 14 4 C14.66 4 15.32 4 16 4 C16.33 3.01 16.66 2.02 17 1 C20.25 0.25 20.25 0.25 24 0 C26.0625 1.8125 26.0625 1.8125 28 4 C31.13350717 5.26784124 31.13350717 5.26784124 34 6 C34 6.66 34 7.32 34 8 C34.66 8 35.32 8 36 8 C36.495 9.98 36.495 9.98 37 12 C36.34 12 35.68 12 35 12 C34.67 12.66 34.34 13.32 34 14 C31.36 13.67 28.72 13.34 26 13 C26 13.99 26 14.98 26 16 C25.01 16.33 24.02 16.66 23 17 C22.505 16.01 22.505 16.01 22 15 C19.22270773 14.34508976 19.22270773 14.34508976 16 13.9375 C10.09491059 13.09491059 10.09491059 13.09491059 9 12 C7.37154036 12.06609984 5.74592091 12.20510177 4.125 12.375 C2.64773437 12.52195312 2.64773437 12.52195312 1.140625 12.671875 C0.10421875 12.78015625 -0.9321875 12.8884375 -2 13 C-4.04115842 13.21325536 -6.08281104 13.42185031 -8.125 13.625 C-9.49011719 13.76808594 -9.49011719 13.76808594 -10.8828125 13.9140625 C-11.58148438 13.94242188 -12.28015625 13.97078125 -13 14 C-14 13 -14 13 -14.0625 10.4375 C-14.041875 9.633125 -14.02125 8.82875 -14 8 C-14.66 8 -15.32 8 -16 8 C-16 9.32 -16 10.64 -16 12 C-16.66 12 -17.32 12 -18 12 C-18 10.68 -18 9.36 -18 8 C-18.66 8 -19.32 8 -20 8 C-20.33 9.32 -20.66 10.64 -21 12 C-21 10.02 -21 8.04 -21 6 C-18 6 -15 6 -12 6 C-10.2907434 5.84308464 -8.58248679 5.67512685 -6.875 5.5 C-5.96492187 5.4071875 -5.05484375 5.314375 -4.1171875 5.21875 C-3.06917969 5.11046875 -3.06917969 5.11046875 -2 5 C-1.34 3.35 -0.68 1.7 0 0 Z " fill="#962417" transform="translate(144,110)"/>
<path d="M0 0 C3.0625 2.375 3.0625 2.375 4 5.625 C4.020625 6.5325 4.04125 7.44 4.0625 8.375 C1.4225 8.375 -1.2175 8.375 -3.9375 8.375 C-4.2675 7.715 -4.5975 7.055 -4.9375 6.375 C-7.81114791 5.95753392 -7.81114791 5.95753392 -10.9375 6.375 C-13.1765649 8.98724239 -13.87648222 10.70380445 -14.1875 14.125 C-14.17826788 16.3424638 -14.17826788 16.3424638 -12.9375 17.375 C-10.47957971 17.70843551 -10.47957971 17.70843551 -7.9375 17.375 C-7.2775 16.385 -6.6175 15.395 -5.9375 14.375 C-2.9675 14.705 0.0025 15.035 3.0625 15.375 C1.75336773 19.30239681 0.27259805 21.73138984 -2.9375 24.375 C-8.18543298 26.05433855 -13.86245749 26.34629649 -18.875 24 C-22.86780492 20.8541537 -22.86780492 20.8541537 -23.34375 17.58203125 C-23.62809504 7.28637111 -23.62809504 7.28637111 -20.25 3.1875 C-14.50004418 -2.22737681 -7.16437156 -3.53069646 0 0 Z " fill="#FDF9F7" transform="translate(141.9375,82.625)"/>
<path d="M0 0 C1.31223496 3.93670488 0.24296256 6.12488144 -1 10 C0.32 10 1.64 10 3 10 C3 12.31 3 14.62 3 17 C1.02 17 -0.96 17 -3 17 C-3.33 20.96 -3.66 24.92 -4 29 C-2.68 29 -1.36 29 0 29 C0.04254356 30.99954746 0.04080783 33.00041636 0 35 C-1.57922406 36.57922406 -3.19443874 36.207659 -5.375 36.25 C-6.16648438 36.27578125 -6.95796875 36.3015625 -7.7734375 36.328125 C-10 36 -10 36 -11.7734375 34.78515625 C-13.3794744 32.44770765 -13.33652778 31.00397913 -13.25 28.1875 C-13.22421875 27.30707031 -13.1984375 26.42664063 -13.171875 25.51953125 C-12.97489706 22.63201375 -12.5962978 19.83241457 -12 17 C-12.66 17 -13.32 17 -14 17 C-14 14.69 -14 12.38 -14 10 C-12.68 10 -11.36 10 -10 10 C-9.89365234 8.84951172 -9.89365234 8.84951172 -9.78515625 7.67578125 C-9 5 -9 5 -6.93359375 3.41796875 C-6.10988281 3.01191406 -5.28617188 2.60585937 -4.4375 2.1875 C-3.61121094 1.76855469 -2.78492188 1.34960938 -1.93359375 0.91796875 C-1.29550781 0.61503906 -0.65742188 0.31210938 0 0 Z " fill="#FBF2EF" transform="translate(164,72)"/>
<path d="M0 0 C3.96 0.33 7.92 0.66 12 1 C11.125 7.875 11.125 7.875 10 9 C7.32941149 9.14115161 4.67567762 9.04247107 2 9 C2 9.66 2 10.32 2 11 C4.64 11 7.28 11 10 11 C8.63948216 19.73932638 6.91580102 28.36612338 5 37 C2.03 37 -0.94 37 -4 37 C-3.08411215 28.4953271 -3.08411215 28.4953271 -2.4375 24.6875 C-2.04890992 21.41224073 -2.00429748 18.41344235 -2.0625 15.125 C-2.12337219 9.7547204 -1.3812351 5.17963161 0 0 Z " fill="#FEF3F2" transform="translate(55,71)"/>
<path d="M0 0 C0.66 0 1.32 0 2 0 C2 0.66 2 1.32 2 2 C3.65 2.33 5.3 2.66 7 3 C7.33 6.63 7.66 10.26 8 14 C11.81813447 13.72459296 11.81813447 13.72459296 15 12 C16.134375 11.855625 17.26875 11.71125 18.4375 11.5625 C22.04058997 11.35152449 22.04058997 11.35152449 24 9 C25.32 9 26.64 9 28 9 C28 9.66 28 10.32 28 11 C28.66 11 29.32 11 30 11 C30 13.97 30 16.94 30 20 C20.1 20 10.2 20 0 20 C0 13.4 0 6.8 0 0 Z " fill="#541C1D" transform="translate(0,180)"/>
<path d="M0 0 C2.97 0 5.94 0 9 0 C9.33 0.66 9.66 1.32 10 2 C10.66 1.34 11.32 0.68 12 0 C15.125 -0.125 15.125 -0.125 18 0 C17.47731534 2.76276177 16.89130413 5.3260876 16 8 C14.576875 8.4021875 14.576875 8.4021875 13.125 8.8125 C9.844079 9.72421464 9.844079 9.72421464 8.25 12.5 C6.66709649 16.93212983 5.77834331 21.36656808 5 26 C2.03 26 -0.94 26 -4 26 C-3.20376222 17.24138438 -1.57802387 8.64439492 0 0 Z " fill="#F6E3DE" transform="translate(70,82)"/>
<path d="M0 0 C0.33 0 0.66 0 1 0 C1 2.31 1 4.62 1 7 C1.66 7 2.32 7 3 7 C3 12.94 3 18.88 3 25 C6.3 25.33 9.6 25.66 13 26 C13 26.33 13 26.66 13 27 C11.20991533 27.22151549 9.41781838 27.42682213 7.625 27.625 C6.62726563 27.74101563 5.62953125 27.85703125 4.6015625 27.9765625 C3.74304688 27.98429687 2.88453125 27.99203125 2 28 C1.34 27.34 0.68 26.68 0 26 C0 24.68 0 23.36 0 22 C-0.99 22.33 -1.98 22.66 -3 23 C-4.0625 20.625 -4.0625 20.625 -5 18 C-4.67 17.34 -4.34 16.68 -4 16 C-6.97 15.67 -9.94 15.34 -13 15 C-13.66 16.32 -14.32 17.64 -15 19 C-17.375 19.125 -17.375 19.125 -20 19 C-20.66 18.34 -21.32 17.68 -22 17 C-21.80468763 13.48437733 -21.35925457 10.73741727 -19.8125 7.5625 C-18 6 -18 6 -14.8125 5.75 C-13.884375 5.8325 -12.95625 5.915 -12 6 C-11.67 6.99 -11.34 7.98 -11 9 C-8.36 9 -5.72 9 -3 9 C-2.87625 8.443125 -2.7525 7.88625 -2.625 7.3125 C-1.94023145 4.77885636 -1.00866237 2.42078968 0 0 Z " fill="#9A2B1E" transform="translate(149,82)"/>
<path d="M0 0 C0.99 0.66 1.98 1.32 3 2 C2.67 5.3 2.34 8.6 2 12 C1.01 11.67 0.02 11.34 -1 11 C-1.66 12.32 -2.32 13.64 -3 15 C-4.65 15 -6.3 15 -8 15 C-7.9690625 15.98097656 -7.938125 16.96195313 -7.90625 17.97265625 C-7.90625 22.24530515 -8.65200722 26.26247249 -9.5 30.4375 C-9.64308594 31.16904297 -9.78617188 31.90058594 -9.93359375 32.65429688 C-10.28321296 34.43735486 -10.64077688 36.21885203 -11 38 C-11.33 38 -11.66 38 -12 38 C-12.33 35.69 -12.66 33.38 -13 31 C-13.66 31 -14.32 31 -15 31 C-15.04898438 31.71027344 -15.09796875 32.42054687 -15.1484375 33.15234375 C-15.26058594 34.53099609 -15.26058594 34.53099609 -15.375 35.9375 C-15.44460937 36.85402344 -15.51421875 37.77054688 -15.5859375 38.71484375 C-15.72257812 39.46894531 -15.85921875 40.22304687 -16 41 C-16.99 41.495 -16.99 41.495 -18 42 C-17.56901343 33.03547936 -15.30110566 24.62647053 -13 16 C-15.64 16 -18.28 16 -21 16 C-21 15.34 -21 14.68 -21 14 C-19.741875 13.979375 -18.48375 13.95875 -17.1875 13.9375 C-14.98300672 13.76957465 -14.98300672 13.76957465 -13 13 C-11.31016493 10.71019091 -10.81037139 8.78565167 -10 6 C-9.01 6 -8.02 6 -7 6 C-6.67 4.68 -6.34 3.36 -6 2 C-4.68 2 -3.36 2 -2 2 C-1.34 1.34 -0.68 0.68 0 0 Z " fill="#A12419" transform="translate(78,66)"/>
<path d="M0 0 C3.3 0 6.6 0 10 0 C9.31191309 8.8075124 7.70726664 17.34555401 6 26 C2.37 26 -1.26 26 -5 26 C-4.76260641 20.18385713 -3.31600067 17.65725412 0.8203125 13.578125 C1.20960938 13.05734375 1.59890625 12.5365625 2 12 C1.67 11.01 1.34 10.02 1 9 C0.34 8.67 -0.32 8.34 -1 8 C-1.125 2.25 -1.125 2.25 0 0 Z " fill="#FAEEEA" transform="translate(173,82)"/>
<path d="M0 0 C2.3986335 1.09976872 3.95873215 2.2810376 6 4 C5.67 4.66 5.34 5.32 5 6 C3.68 5.67 2.36 5.34 1 5 C-0.4783226 7.95664519 -0.06032783 10.74229737 0 14 C-0.66 14 -1.32 14 -2 14 C-2 13.34 -2 12.68 -2 12 C-4.97 12 -7.94 12 -11 12 C-11 11.01 -11 10.02 -11 9 C-11.66 9 -12.32 9 -13 9 C-13.33 9.99 -13.66 10.98 -14 12 C-15.32 11.34 -16.64 10.68 -18 10 C-18 13.96 -18 17.92 -18 22 C-20.70046918 17.94929623 -20.65153033 14.75617141 -20 10 C-15.79567328 1.42964168 -9.18344695 -1.54543444 0 0 Z " fill="#FAEEE9" transform="translate(108,81)"/>
<path d="M0 0 C2.35083008 -0.38818359 2.35083008 -0.38818359 5.26953125 -0.3984375 C6.32333984 -0.40230469 7.37714844 -0.40617187 8.46289062 -0.41015625 C10.12094727 -0.39275391 10.12094727 -0.39275391 11.8125 -0.375 C12.90626953 -0.38660156 14.00003906 -0.39820312 15.12695312 -0.41015625 C16.7134668 -0.40435547 16.7134668 -0.40435547 18.33203125 -0.3984375 C19.78186401 -0.39336182 19.78186401 -0.39336182 21.26098633 -0.38818359 C24.48585177 0.06885679 26.38669986 1.08235995 29 3 C29.8125 5.1875 29.8125 5.1875 30 7 C30.33 6.34 30.66 5.68 31 5 C31.66 5 32.32 5 33 5 C33.33 4.34 33.66 3.68 34 3 C33.9278125 3.6290625 33.855625 4.258125 33.78125 4.90625 C33.34181597 8.95880828 32.93713468 12.92144829 33.0625 17 C33.15094239 21.79554298 32.06785064 26.3472222 31 31 C28.66403668 26.48380425 27.96370038 23.39431818 28.25 18.3125 C28.30723508 12.41013274 27.17358836 8.28341964 23 4 C20.1069903 2.28062821 18.02240404 1.7568228 14.671875 1.8046875 C13.9509668 1.80968262 13.23005859 1.81467773 12.48730469 1.81982422 C11.13233887 1.84713623 11.13233887 1.84713623 9.75 1.875 C5.41875 1.936875 5.41875 1.936875 1 2 C-0.98 13.55 -2.96 25.1 -5 37 C-5.33 37 -5.66 37 -6 37 C-6.02684679 34.35409986 -6.04676357 31.70846904 -6.0625 29.0625 C-6.07087891 28.30775391 -6.07925781 27.55300781 -6.08789062 26.77539062 C-6.09652441 24.85005687 -6.05224333 22.92464419 -6 21 C-5.67 20.67 -5.34 20.34 -5 20 C-4.835 18.845 -4.67 17.69 -4.5 16.5 C-4 13 -4 13 -3 12 C-2.71710819 9.74584622 -2.5522881 7.49159344 -2.37890625 5.2265625 C-2 3 -2 3 0 0 Z " fill="#9B2A1F" transform="translate(21,71)"/>
<path d="M0 0 C2.29160319 -0.02692484 4.58329546 -0.04636124 6.875 -0.0625 C8.15117187 -0.07410156 9.42734375 -0.08570312 10.7421875 -0.09765625 C14 0 14 0 16 1 C16 5.33333333 16 9.66666667 16 14 C16.33 14.99 16.66 15.98 17 17 C16.67 17.66 16.34 18.32 16 19 C15.34 19 14.68 19 14 19 C14 18.34 14 17.68 14 17 C13.01 16.67 12.02 16.34 11 16 C11.66 16 12.32 16 13 16 C13 14.68 13 13.36 13 12 C8.27685687 11.22887459 3.78478822 10.90235126 -1 11 C-1.0270043 9.54176788 -1.04639787 8.08339325 -1.0625 6.625 C-1.07410156 5.81289062 -1.08570313 5.00078125 -1.09765625 4.1640625 C-1 2 -1 2 0 0 Z " fill="#972012" transform="translate(174,71)"/>
<path d="M0 0 C6.72 0.72 6.72 0.72 8 2 C8.58448496 7.96849063 8.44675669 12.89369379 5 18 C1.5647952 20.29013653 0.014669 20.17842973 -4 20 C-3.39077674 15.53236278 -2.71196847 11.07745952 -2 6.625 C-1.835 5.58601563 -1.67 4.54703125 -1.5 3.4765625 C-1 1 -1 1 0 0 Z " fill="#9D362C" transform="translate(31,80)"/>
<path d="M0 0 C3 0 6 0 9 0 C10.43880242 -0.01167713 11.87760445 -0.02340303 13.31640625 -0.03515625 C15.06510307 -0.04447908 16.81380106 -0.05358456 18.5625 -0.0625 C19.45130859 -0.07087891 20.34011719 -0.07925781 21.25585938 -0.08789062 C22.52333008 -0.09272461 22.52333008 -0.09272461 23.81640625 -0.09765625 C24.59443604 -0.10289307 25.37246582 -0.10812988 26.17407227 -0.11352539 C28 0 28 0 29 1 C29.04063832 2.66617115 29.042721 4.33388095 29 6 C25.52168452 6.362889 22.04226909 6.71384828 18.5625 7.0625 C17.56927734 7.16626953 16.57605469 7.27003906 15.55273438 7.37695312 C14.13637695 7.51713867 14.13637695 7.51713867 12.69140625 7.66015625 C11.37958374 7.79369507 11.37958374 7.79369507 10.04125977 7.92993164 C9.36764404 7.9530542 8.69402832 7.97617676 8 8 C7 7 7 7 6.9375 4.4375 C6.958125 3.633125 6.97875 2.82875 7 2 C6.34 2 5.68 2 5 2 C5 3.32 5 4.64 5 6 C4.34 6 3.68 6 3 6 C3 4.68 3 3.36 3 2 C2.34 2 1.68 2 1 2 C0.67 3.32 0.34 4.64 0 6 C0 4.02 0 2.04 0 0 Z " fill="#923227" transform="translate(123,116)"/>
<path d="M0 0 C0.83724609 -0.01224609 1.67449219 -0.02449219 2.53710938 -0.03710938 C3.73883789 -0.04000977 3.73883789 -0.04000977 4.96484375 -0.04296875 C5.70210693 -0.04707764 6.43937012 -0.05118652 7.19897461 -0.05541992 C9.0625 0.1875 9.0625 0.1875 11.0625 2.1875 C6.58646215 2.85061672 2.30129828 3.24878556 -2.2265625 3.21875 C-3.1129541 3.21423828 -3.9993457 3.20972656 -4.91259766 3.20507812 C-5.58081543 3.19927734 -6.2490332 3.19347656 -6.9375 3.1875 C-6.9876123 3.83823486 -7.03772461 4.48896973 -7.08935547 5.15942383 C-7.32142045 8.10707011 -7.56680221 11.05346009 -7.8125 14 C-7.89113281 15.02416016 -7.96976563 16.04832031 -8.05078125 17.10351562 C-8.13457031 18.08642578 -8.21835937 19.06933594 -8.3046875 20.08203125 C-8.37800293 20.98800049 -8.45131836 21.89396973 -8.52685547 22.82739258 C-8.9375 25.1875 -8.9375 25.1875 -10.9375 28.1875 C-10.9375 30.1675 -10.9375 32.1475 -10.9375 34.1875 C-5.9875 34.5175 -1.0375 34.8475 4.0625 35.1875 C4.0625 35.5175 4.0625 35.8475 4.0625 36.1875 C-2.2075 36.1875 -8.4775 36.1875 -14.9375 36.1875 C-14.9375 31.16161184 -14.74720247 27.24497199 -13.87890625 22.4140625 C-13.65783203 21.17785156 -13.43675781 19.94164062 -13.20898438 18.66796875 C-12.97501953 17.39566406 -12.74105469 16.12335938 -12.5 14.8125 C-12.26990234 13.51699219 -12.03980469 12.22148438 -11.80273438 10.88671875 C-9.83352225 0.00753527 -9.83352225 0.00753527 0 0 Z " fill="#FBEEE9" transform="translate(30.9375,71.8125)"/>
<path d="M0 0 C2 2 2 2 2 4 C3.98 4.99 5.96 5.98 8 7 C7.67 8.65 7.34 10.3 7 12 C3.37 12 -0.26 12 -4 12 C-4 10.68 -4 9.36 -4 8 C-4.66 8 -5.32 8 -6 8 C-6 9.32 -6 10.64 -6 12 C-8.66666667 12 -11.33333333 12 -14 12 C-15.35439668 9.29120665 -15.06501451 6.99066732 -15 4 C-14.34 4 -13.68 4 -13 4 C-13 6.31 -13 8.62 -13 11 C-12.34 10.67 -11.68 10.34 -11 10 C-10.59270772 7.67843403 -10.25561323 5.3431213 -10 3 C-7.69 2.34 -5.38 1.68 -3 1 C-3 1.99 -3 2.98 -3 4 C-2.01 2.68 -1.02 1.36 0 0 Z " fill="#C66C5E" transform="translate(114,110)"/>
<path d="M0 0 C0.33 0 0.66 0 1 0 C1 2.64 1 5.28 1 8 C1.66 6.02 2.32 4.04 3 2 C3.99 2 4.98 2 6 2 C6.33 2.66 6.66 3.32 7 4 C7.33 3.34 7.66 2.68 8 2 C8.99 2 9.98 2 11 2 C11.66 3.65 12.32 5.3 13 7 C13 6.34 13 5.68 13 5 C13 4.01 13 3.02 13 2 C13.99 2 14.98 2 16 2 C16 2.66 16 3.32 16 4 C16.66 4 17.32 4 18 4 C18.33 5.32 18.66 6.64 19 8 C18.34 8 17.68 8 17 8 C16.67 8.66 16.34 9.32 16 10 C13.36 9.67 10.72 9.34 8 9 C8 9.99 8 10.98 8 12 C7.01 12.33 6.02 12.66 5 13 C4.67 12.34 4.34 11.68 4 11 C1.97536745 10.34786708 1.97536745 10.34786708 0 10 C0 9.34 0 8.68 0 8 C-1.32 8 -2.64 8 -4 8 C-4 6.35 -4 4.7 -4 3 C-2.68 2.67 -1.36 2.34 0 2 C0 1.34 0 0.68 0 0 Z " fill="#B55247" transform="translate(162,114)"/>
<path d="M0 0 C1.98 0 3.96 0 6 0 C6 1.32 6 2.64 6 4 C6.66 4.33 7.32 4.66 8 5 C7.525625 5.886875 7.05125 6.77375 6.5625 7.6875 C5.19383155 10.58907711 4.52086028 12.87483833 4 16 C3.67 16.66 3.34 17.32 3 18 C2.9603287 19.66619446 2.95615553 21.33391013 3 23 C1.35 23 -0.3 23 -2 23 C-2 18.71 -2 14.42 -2 10 C-1.34 10 -0.68 10 0 10 C0 6.7 0 3.4 0 0 Z " fill="#FDFDFB" transform="translate(71,84)"/>
<path d="M0 0 C0.33 0.99 0.66 1.98 1 3 C3.97 3 6.94 3 10 3 C10 3.33 10 3.66 10 4 C6.7 4.33 3.4 4.66 0 5 C0 5.66 0 6.32 0 7 C0.71027344 7.18175781 1.42054687 7.36351563 2.15234375 7.55078125 C3.07144531 7.80214844 3.99054687 8.05351563 4.9375 8.3125 C5.85402344 8.55613281 6.77054688 8.79976562 7.71484375 9.05078125 C8.46894531 9.36402344 9.22304688 9.67726563 10 10 C11 13 11 13 11 17 C9.02 17 7.04 17 5 17 C5 15.68 5 14.36 5 13 C4.34 13 3.68 13 3 13 C3 14.32 3 15.64 3 17 C1.02 17 -0.96 17 -3 17 C-3.625 15.125 -3.625 15.125 -4 13 C-3.34 12.34 -2.68 11.68 -2 11 C-3.32 10.34 -4.64 9.68 -6 9 C-5.67 8.01 -5.34 7.02 -5 6 C-5 6.66 -5 7.32 -5 8 C-4.01 7.67 -3.02 7.34 -2 7 C-2 5.68 -2 4.36 -2 3 C-1.34 3 -0.68 3 0 3 C0 2.01 0 1.02 0 0 Z " fill="#A53F33" transform="translate(50,105)"/>
<path d="M0 0 C0.33 0.99 0.66 1.98 1 3 C2.32 3 3.64 3 5 3 C5 5.97 5 8.94 5 12 C3.35 12 1.7 12 0 12 C-0.2165625 13.670625 -0.2165625 13.670625 -0.4375 15.375 C-1 19 -1 19 -2 21 C-1.0925 20.67 -0.185 20.34 0.75 20 C4 19 4 19 8 19 C8.33 16.69 8.66 14.38 9 12 C10.32 12.66 11.64 13.32 13 14 C11.90098758 16.47277795 10.78487714 18.24873581 9 20.3125 C6.58277404 23.56064738 5.92059368 26.08747686 5 30 C3.35 30.33 1.7 30.66 0 31 C0.33 28.36 0.66 25.72 1 23 C-0.32 23 -1.64 23 -3 23 C-3.08159574 18.83861737 -2.98248524 15.0527516 -2 11 C-0.02 11 1.96 11 4 11 C4 8.69 4 6.38 4 4 C2.68 4 1.36 4 0 4 C0 2.68 0 1.36 0 0 Z " fill="#9E3B32" transform="translate(163,78)"/>
<path d="M0 0 C0.33 0 0.66 0 1 0 C1 4.29 1 8.58 1 13 C1.66 11.02 2.32 9.04 3 7 C3.33 7 3.66 7 4 7 C3.45298368 14.44230094 2.45801591 21.68160944 1 29 C0.67 29 0.34 29 0 29 C-0.33 26.69 -0.66 24.38 -1 22 C-1.66 22 -2.32 22 -3 22 C-3.04898438 22.71027344 -3.09796875 23.42054687 -3.1484375 24.15234375 C-3.22320312 25.07144531 -3.29796875 25.99054688 -3.375 26.9375 C-3.44460937 27.85402344 -3.51421875 28.77054688 -3.5859375 29.71484375 C-3.72257812 30.46894531 -3.85921875 31.22304687 -4 32 C-4.99 32.495 -4.99 32.495 -6 33 C-5.56901343 24.03547936 -3.30110566 15.62647053 -1 7 C-3.64 7 -6.28 7 -9 7 C-9 6.34 -9 5.68 -9 5 C-6.36 4.67 -3.72 4.34 -1 4 C-0.67 2.68 -0.34 1.36 0 0 Z " fill="#952E24" transform="translate(66,75)"/>
<path d="M0 0 C2.97 0.33 5.94 0.66 9 1 C7.69086773 4.92739681 6.21009805 7.35638984 3 10 C-2.24793298 11.67933855 -7.92495749 11.97129649 -12.9375 9.625 C-15 8 -15 8 -17 6 C-17.125 3.375 -17.125 3.375 -17 1 C-16.34 2.32 -15.68 3.64 -15 5 C-14.34 5 -13.68 5 -13 5 C-12.67 6.32 -12.34 7.64 -12 9 C-10.54176788 9.0270043 -9.08339325 9.04639787 -7.625 9.0625 C-6.40683594 9.07990234 -6.40683594 9.07990234 -5.1640625 9.09765625 C-2.95062858 9.14466334 -2.95062858 9.14466334 -1 8 C-3.31 7.34 -5.62 6.68 -8 6 C-7.67 5.01 -7.34 4.02 -7 3 C-6.21625 3.061875 -5.4325 3.12375 -4.625 3.1875 C-3.75875 3.125625 -2.8925 3.06375 -2 3 C-1.34 2.01 -0.68 1.02 0 0 Z " fill="#FCF0EC" transform="translate(136,97)"/>
<path d="M0 0 C3.96 0.33 7.92 0.66 12 1 C11.125 7.875 11.125 7.875 10 9 C7.32941149 9.14115161 4.67567762 9.04247107 2 9 C2 9.66 2 10.32 2 11 C4.64 11 7.28 11 10 11 C9.67 11.99 9.34 12.98 9 14 C9 13.34 9 12.68 9 12 C6.03 12 3.06 12 0 12 C0 13.65 0 15.3 0 17 C-1.66047303 14.46045301 -2.02788282 13.25094538 -1.6875 10.1875 C-1.460625 9.135625 -1.23375 8.08375 -1 7 C-0.66140041 4.66742506 -0.3267961 2.33425788 0 0 Z " fill="#B15A52" transform="translate(55,71)"/>
<path d="M0 0 C0.66 0 1.32 0 2 0 C2.23438667 6.32844017 1.37470522 11.81382652 0 18 C-3.63 18 -7.26 18 -11 18 C-11 17.01 -11 16.02 -11 15 C-10.34 15 -9.68 15 -9 15 C-9 14.34 -9 13.68 -9 13 C-8.401875 12.62875 -7.80375 12.2575 -7.1875 11.875 C-4.0305299 9.16902563 -3.22018892 5.89166316 -2 2 C-1.34 2 -0.68 2 0 2 C0 1.34 0 0.68 0 0 Z " fill="#FDFCFB" transform="translate(179,90)"/>
<path d="M0 0 C0.33 0.99 0.66 1.98 1 3 C2.65 3.33 4.3 3.66 6 4 C6 4.99 6 5.98 6 7 C6.66 7 7.32 7 8 7 C8 7.66 8 8.32 8 9 C5.69 9 3.38 9 1 9 C0.34 10.32 -0.32 11.64 -1 13 C-2.98 12.34 -4.96 11.68 -7 11 C-7 8.69 -7 6.38 -7 4 C-6.01 4.99 -5.02 5.98 -4 7 C-4.33 5.68 -4.66 4.36 -5 3 C-4.34 3 -3.68 3 -3 3 C-1.37485532 1.54166642 -1.37485532 1.54166642 0 0 Z " fill="#9A2A20" transform="translate(88,113)"/>
<path d="M0 0 C1.65 0 3.3 0 5 0 C4.67 2.31 4.34 4.62 4 7 C5.32 7 6.64 7 8 7 C8 8.32 8 9.64 8 11 C5.03 11 2.06 11 -1 11 C-1.33 12.32 -1.66 13.64 -2 15 C-2.99 14.67 -3.98 14.34 -5 14 C-4.34 10.7 -3.68 7.4 -3 4 C-2.01 3.67 -1.02 3.34 0 3 C0 2.01 0 1.02 0 0 Z " fill="#FCFCFB" transform="translate(158,77)"/>
<path d="M0 0 C4.95 0 9.9 0 15 0 C15 1.98 15 3.96 15 6 C13.35 6.33 11.7 6.66 10 7 C10.26656572 9.93443402 10.26656572 9.93443402 11 13 C11.99 13.66 12.98 14.32 14 15 C12.0085944 15.38133299 10.00720923 15.71325582 8 16 C6.26043342 14.26043342 6.62809614 11.8063378 6.4375 9.4375 C6.35371094 8.42558594 6.26992187 7.41367188 6.18359375 6.37109375 C6.12300781 5.58863281 6.06242188 4.80617187 6 4 C4.68 3.67 3.36 3.34 2 3 C2 2.34 2 1.68 2 1 C1.34 0.67 0.68 0.34 0 0 Z " fill="#6B1B1A" transform="translate(0,179)"/>
<path d="M0 0 C2.01538086 -0.38818359 2.01538086 -0.38818359 4.46484375 -0.3984375 C5.34720703 -0.40230469 6.22957031 -0.40617187 7.13867188 -0.41015625 C8.5240918 -0.39275391 8.5240918 -0.39275391 9.9375 -0.375 C11.31711914 -0.39240234 11.31711914 -0.39240234 12.72460938 -0.41015625 C13.60826172 -0.40628906 14.49191406 -0.40242188 15.40234375 -0.3984375 C16.21179443 -0.39505371 17.02124512 -0.39166992 17.85522461 -0.38818359 C20.45824738 0.08293834 21.34683103 0.98903827 23 3 C22.42926758 2.83701416 21.85853516 2.67402832 21.27050781 2.50610352 C18.98346733 1.99631481 17.01035544 1.88564032 14.671875 1.90234375 C13.5905127 1.90609009 13.5905127 1.90609009 12.48730469 1.90991211 C11.13233887 1.92356812 11.13233887 1.92356812 9.75 1.9375 C6.8625 1.958125 3.975 1.97875 1 2 C-0.98 13.55 -2.96 25.1 -5 37 C-5.33 37 -5.66 37 -6 37 C-6.02684679 34.35409986 -6.04676357 31.70846904 -6.0625 29.0625 C-6.07087891 28.30775391 -6.07925781 27.55300781 -6.08789062 26.77539062 C-6.09652441 24.85005687 -6.05224333 22.92464419 -6 21 C-5.67 20.67 -5.34 20.34 -5 20 C-4.835 18.845 -4.67 17.69 -4.5 16.5 C-4 13 -4 13 -3 12 C-2.71710819 9.74584622 -2.5522881 7.49159344 -2.37890625 5.2265625 C-2 3 -2 3 0 0 Z " fill="#962E27" transform="translate(21,71)"/>
<path d="M0 0 C0.66 0 1.32 0 2 0 C2 2.64 2 5.28 2 8 C-2.29 8 -6.58 8 -11 8 C-11 6.68 -11 5.36 -11 4 C-11.66 4 -12.32 4 -13 4 C-13.33 5.32 -13.66 6.64 -14 8 C-14 6.02 -14 4.04 -14 2 C-9.33333333 2 -4.66666667 2 0 2 C0 1.34 0 0.68 0 0 Z " fill="#C67B70" transform="translate(32,114)"/>
<path d="M0 0 C3.3 0 6.6 0 10 0 C7.45454545 5.09090909 7.45454545 5.09090909 4 7 C0.1178853 7.88622012 -3.15439857 8.28186714 -7 7 C-7.33 6.01 -7.66 5.02 -8 4 C-5.36 3.67 -2.72 3.34 0 3 C0 2.01 0 1.02 0 0 Z " fill="#FDFCFC" transform="translate(104,100)"/>
<path d="M0 0 C0.99 0 1.98 0 3 0 C3.33 2.31 3.66 4.62 4 7 C-2.6 7 -9.2 7 -16 7 C-11.52777778 2.52777778 -11.52777778 2.52777778 -6.875 2.375 C-2.96577827 2.36793255 -2.96577827 2.36793255 0 0 Z " fill="#661411" transform="translate(52,193)"/>
<path d="M0 0 C0 3.63 0 7.26 0 11 C-2.64 11 -5.28 11 -8 11 C-8 8.03 -8 5.06 -8 2 C-4 0 -4 0 0 0 Z " fill="#661B15" transform="translate(200,35)"/>
<path d="M0 0 C4.75 0.875 4.75 0.875 7 2 C7 3.32 7 4.64 7 6 C6.01 6.66 5.02 7.32 4 8 C3.63702064 9.97747122 3.63702064 9.97747122 3.8125 12.125 C3.874375 13.40375 3.93625 14.6825 4 16 C4.66 16.33 5.32 16.66 6 17 C5.01 17.33 4.02 17.66 3 18 C3.33 19.98 3.66 21.96 4 24 C3.01 24 2.02 24 1 24 C0.67 24.99 0.34 25.98 0 27 C-0.33 27 -0.66 27 -1 27 C-0.38641858 18.19828026 1.29549385 9.64045258 3 1 C2.01 0.67 1.02 0.34 0 0 Z " fill="#9A3028" transform="translate(180,81)"/>
<path d="M0 0 C4.875 1.75 4.875 1.75 6 4 C6.04022391 6.3329866 6.04320247 8.66706666 6 11 C5.34 11 4.68 11 4 11 C3.34 12.32 2.68 13.64 2 15 C-0.45406016 12.54593984 -0.38381215 11.4528512 -0.6875 8.0625 C-0.77386719 7.18722656 -0.86023438 6.31195313 -0.94921875 5.41015625 C-1 3 -1 3 0 0 Z " fill="#FCFBFA" transform="translate(90,91)"/>
<path d="M0 0 C1.32 0 2.64 0 4 0 C4.66 0.66 5.32 1.32 6 2 C9.15691816 2.83076794 11.69699887 3 15 3 C15.33 3.99 15.66 4.98 16 6 C15.67 6.66 15.34 7.32 15 8 C13.6078125 7.7215625 13.6078125 7.7215625 12.1875 7.4375 C8.98656229 6.75876119 8.98656229 6.75876119 6 8 C5.34 7.01 4.68 6.02 4 5 C3.01 5 2.02 5 1 5 C0.67 5.99 0.34 6.98 0 8 C0 5.36 0 2.72 0 0 Z " fill="#D89286" transform="translate(64,114)"/>
<path d="M0 0 C3.3 0 6.6 0 10 0 C9.67 2.31 9.34 4.62 9 7 C5.7 7 2.4 7 -1 7 C-0.67 4.69 -0.34 2.38 0 0 Z " fill="#FAE1DA" transform="translate(175,72)"/>
<path d="M0 0 C2.97 0.495 2.97 0.495 6 1 C6.66 3.97 7.32 6.94 8 10 C7.34 10 6.68 10 6 10 C6 9.34 6 8.68 6 8 C3.03 8 0.06 8 -3 8 C-3.33 6.02 -3.66 4.04 -4 2 C-3.34 1.67 -2.68 1.34 -2 1 C-1.34 1.33 -0.68 1.66 0 2 C0 1.34 0 0.68 0 0 Z " fill="#F2DBD6" transform="translate(100,85)"/>
<path d="M0 0 C0.33 0 0.66 0 1 0 C1 1.98 1 3.96 1 6 C-0.32 6 -1.64 6 -3 6 C-3 6.99 -3 7.98 -3 9 C-3.99 9.495 -3.99 9.495 -5 10 C-5.33 10.99 -5.66 11.98 -6 13 C-4.68 13.33 -3.36 13.66 -2 14 C-3.65 14.33 -5.3 14.66 -7 15 C-7.33 14.01 -7.66 13.02 -8 12 C-8.99 11.34 -9.98 10.68 -11 10 C-11 9.34 -11 8.68 -11 8 C-11.99 7.34 -12.98 6.68 -14 6 C-13.32453125 5.90203125 -12.6490625 5.8040625 -11.953125 5.703125 C-5.06529424 4.59997269 -5.06529424 4.59997269 0 0 Z " fill="#982013" transform="translate(143,102)"/>
<path d="M0 0 C1.32 0 2.64 0 4 0 C3.88590407 1.45922693 3.75834456 2.91740598 3.625 4.375 C3.55539063 5.18710938 3.48578125 5.99921875 3.4140625 6.8359375 C3 9 3 9 1 11 C0.67 10.34 0.34 9.68 0 9 C-0.62648437 9.3609375 -1.25296875 9.721875 -1.8984375 10.09375 C-2.71570313 10.5578125 -3.53296875 11.021875 -4.375 11.5 C-5.18710938 11.9640625 -5.99921875 12.428125 -6.8359375 12.90625 C-9 14 -9 14 -11 14 C-11.33 12.68 -11.66 11.36 -12 10 C-10 9 -10 9 -6.5 8.625 C-5.345 8.41875 -4.19 8.2125 -3 8 C-1.0549 5.08235 -0.54723683 3.37462715 0 0 Z " fill="#9E2115" transform="translate(164,64)"/>
<path d="M0 0 C0.33 0.99 0.66 1.98 1 3 C0.34 3 -0.32 3 -1 3 C-1 3.66 -1 4.32 -1 5 C-7.6 5 -14.2 5 -21 5 C-17.54941314 2.69960876 -15.05904498 2.5261725 -11 2 C-10.67 1.67 -10.34 1.34 -10 1 C-8.31816052 0.76712992 -6.6287584 0.58735834 -4.9375 0.4375 C-3.55884766 0.31181641 -3.55884766 0.31181641 -2.15234375 0.18359375 C-1.44207031 0.12300781 -0.73179687 0.06242188 0 0 Z " fill="#89100B" transform="translate(167,195)"/>
<path d="M0 0 C1.65 0 3.3 0 5 0 C5.66 1.32 6.32 2.64 7 4 C6.01 4 5.02 4 4 4 C4 6.31 4 8.62 4 11 C1.36 11 -1.28 11 -4 11 C-4.12375 10.21625 -4.2475 9.4325 -4.375 8.625 C-4.79117993 5.85942178 -4.79117993 5.85942178 -7 4 C-4.23723823 4.52268466 -1.6739124 5.10869587 1 6 C0.67 4.02 0.34 2.04 0 0 Z " fill="#9E281D" transform="translate(78,116)"/>
<path d="M0 0 C5.28 0 10.56 0 16 0 C15.01 0.495 15.01 0.495 14 1 C14 2.98 14 4.96 14 7 C13.67 7 13.34 7 13 7 C12.67 5.35 12.34 3.7 12 2 C9.69 1.67 7.38 1.34 5 1 C5.33 1.66 5.66 2.32 6 3 C6.66 3 7.32 3 8 3 C8 4.32 8 5.64 8 7 C8.66 7 9.32 7 10 7 C10 5.68 10 4.36 10 3 C10.66 3 11.32 3 12 3 C12 4.65 12 6.3 12 8 C9.03 8.66 6.06 9.32 3 10 C3.14648438 6.97265625 3.14648438 6.97265625 3.29296875 3.9453125 C3.19628906 3.30335937 3.09960938 2.66140625 3 2 C2.01 1.34 1.02 0.68 0 0 Z " fill="#962B23" transform="translate(118,115)"/>
<path d="M0 0 C5.00936665 0.07259952 7.45846937 1.1821321 11.25 4.375 C10.92 5.035 10.59 5.695 10.25 6.375 C8.93 6.045 7.61 5.715 6.25 5.375 C5.24983813 7.37532373 4.75603992 9.20625748 4.25 11.375 C3.92 9.395 3.59 7.415 3.25 5.375 C1.93 5.045 0.61 4.715 -0.75 4.375 C-0.09 4.375 0.57 4.375 1.25 4.375 C1.25 3.715 1.25 3.055 1.25 2.375 C-1.39 2.375 -4.03 2.375 -6.75 2.375 C-4.28003576 -0.09496424 -3.41102667 0.05168222 0 0 Z " fill="#F9E5E1" transform="translate(102.75,80.625)"/>
<path d="M0 0 C2 1 4 2 6 3 C7.155 2.95875 8.31 2.9175 9.5 2.875 C11.2325 2.936875 11.2325 2.936875 13 3 C13.99 4.485 13.99 4.485 15 6 C14.07767578 6.07347656 14.07767578 6.07347656 13.13671875 6.1484375 C12.32847656 6.22320312 11.52023438 6.29796875 10.6875 6.375 C9.88699219 6.44460937 9.08648437 6.51421875 8.26171875 6.5859375 C5.72775559 6.89564426 5.72775559 6.89564426 3 9 C3 8.01 3 7.02 3 6 C0.03 6 -2.94 6 -6 6 C-6 5.67 -6 5.34 -6 5 C-4.35 4.67 -2.7 4.34 -1 4 C-0.67 2.68 -0.34 1.36 0 0 Z " fill="#A0251F" transform="translate(76,76)"/>
<path d="M0 0 C1.65 0.33 3.3 0.66 5 1 C5.04254356 2.99954746 5.04080783 5.00041636 5 7 C4 8 4 8 1.93359375 8.09765625 C1.10988281 8.08605469 0.28617188 8.07445313 -0.5625 8.0625 C-1.38878906 8.05347656 -2.21507812 8.04445313 -3.06640625 8.03515625 C-3.70449219 8.02355469 -4.34257812 8.01195313 -5 8 C-5.33 6.35 -5.66 4.7 -6 3 C-3.92446352 2.4465236 -2.15634036 2 0 2 C0 1.34 0 0.68 0 0 Z " fill="#FEFCFB" transform="translate(159,100)"/>
<path d="M0 0 C0.33 0 0.66 0 1 0 C0.98839844 0.86882812 0.97679687 1.73765625 0.96484375 2.6328125 C0.95582031 3.78523438 0.94679688 4.93765625 0.9375 6.125 C0.92589844 7.26195313 0.91429687 8.39890625 0.90234375 9.5703125 C0.994673 12.8129156 1.38610094 15.81932612 2 19 C1.34 19 0.68 19 0 19 C0 20.65 0 22.3 0 24 C-0.99 22.68 -1.98 21.36 -3 20 C-3 20.66 -3 21.32 -3 22 C-4.65 22.33 -6.3 22.66 -8 23 C-6.76302083 21.33984375 -5.52604167 19.6796875 -4.2890625 18.01953125 C-1.63339461 13.85898489 -0.72863222 10.07941234 -0.375 5.1875 C-0.26285156 3.72376953 -0.26285156 3.72376953 -0.1484375 2.23046875 C-0.09945312 1.49441406 -0.05046875 0.75835937 0 0 Z " fill="#A22F22" transform="translate(49,83)"/>
<path d="M0 0 C3.87561244 1.47005989 5.18232772 3.32380886 7 7 C8.13184029 14.96366908 7.25948281 21.21144927 3 28 C2.67 27.01 2.34 26.02 2 25 C2.29648437 24.43796875 2.59296875 23.8759375 2.8984375 23.296875 C4.45727326 20.0465366 4.46434039 16.79120553 4.625 13.25 C4.66367187 12.55261719 4.70234375 11.85523437 4.7421875 11.13671875 C4.83598624 9.42489182 4.91906174 7.71248318 5 6 C3.68 5.67 2.36 5.34 1 5 C0.67 3.35 0.34 1.7 0 0 Z " fill="#FBE7E3" transform="translate(42,74)"/>
<path d="M0 0 C1.98 0 3.96 0 6 0 C5.6875 3.375 5.6875 3.375 5 7 C2 9 2 9 -1 9 C-1.33 9.99 -1.66 10.98 -2 12 C-2 9.03 -2 6.06 -2 3 C-1.34 3 -0.68 3 0 3 C0 2.01 0 1.02 0 0 Z " fill="#FCFCFD" transform="translate(57,84)"/>
<path d="M0 0 C2.29160319 -0.02692484 4.58329546 -0.04636124 6.875 -0.0625 C8.15117187 -0.07410156 9.42734375 -0.08570312 10.7421875 -0.09765625 C14 0 14 0 16 1 C16 1.66 16 2.32 16 3 C15.01 3.495 15.01 3.495 14 4 C13.855625 4.66 13.71125 5.32 13.5625 6 C13.376875 6.66 13.19125 7.32 13 8 C9.85069107 9.04976964 7.61185544 9.10131595 4.3125 9.0625 C3.31863281 9.05347656 2.32476562 9.04445313 1.30078125 9.03515625 C0.16189453 9.01775391 0.16189453 9.01775391 -1 9 C-1.125 2.25 -1.125 2.25 0 0 Z M1 1 C0.67 3.31 0.34 5.62 0 8 C3.3 8 6.6 8 10 8 C10.33 5.69 10.66 3.38 11 1 C7.7 1 4.4 1 1 1 Z " fill="#99342A" transform="translate(174,71)"/>
<path d="M0 0 C0.99 0 1.98 0 3 0 C3 2.64 3 5.28 3 8 C0.59454362 9.20272819 -0.94996953 9.10071472 -3.625 9.0625 C-4.85089844 9.04896484 -4.85089844 9.04896484 -6.1015625 9.03515625 C-7.04128906 9.01775391 -7.04128906 9.01775391 -8 9 C-8 9.66 -8 10.32 -8 11 C-8.66 11 -9.32 11 -10 11 C-10 10.34 -10 9.68 -10 9 C-11.65 8.67 -13.3 8.34 -15 8 C-15 6.68 -15 5.36 -15 4 C-14.34 4 -13.68 4 -13 4 C-13 5.32 -13 6.64 -13 8 C-12.34 8 -11.68 8 -11 8 C-10.67 6.68 -10.34 5.36 -10 4 C-10 5.32 -10 6.64 -10 8 C-6.7 8 -3.4 8 0 8 C0 5.36 0 2.72 0 0 Z " fill="#A94439" transform="translate(34,114)"/>
<path d="M0 0 C0.33 0 0.66 0 1 0 C1 2.64 1 5.28 1 8 C1.99 8 2.98 8 4 8 C4 6.02 4 4.04 4 2 C4.66 2 5.32 2 6 2 C5.34 6.62 4.68 11.24 4 16 C3.67 16 3.34 16 3 16 C2.67 13.69 2.34 11.38 2 9 C1.34 9 0.68 9 0 9 C-0.04898438 9.71027344 -0.09796875 10.42054687 -0.1484375 11.15234375 C-0.22320312 12.07144531 -0.29796875 12.99054688 -0.375 13.9375 C-0.47941406 15.31228516 -0.47941406 15.31228516 -0.5859375 16.71484375 C-0.72257812 17.46894531 -0.85921875 18.22304687 -1 19 C-1.66 19.33 -2.32 19.66 -3 20 C-2.45136137 13.2142064 -1.45732062 6.64990964 0 0 Z " fill="#A55046" transform="translate(63,88)"/>
<path d="M0 0 C6.35341349 -0.44585358 9.89425181 0.04044018 15 4 C15.9375 7.25 15.9375 7.25 16 10 C13.36 10 10.72 10 8 10 C7.67 9.34 7.34 8.68 7 8 C4.47266765 7.34444881 4.47266765 7.34444881 2 7 C2 6.67 2 6.34 2 6 C6.21878192 5.80377759 9.17010894 6.19769832 13 8 C13 6.68 13 5.36 13 4 C11.68 4 10.36 4 9 4 C9 3.34 9 2.68 9 2 C6.03 1.67 3.06 1.34 0 1 C0 0.67 0 0.34 0 0 Z " fill="#FEEAE6" transform="translate(130,81)"/>
<path d="M0 0 C0.83724609 -0.01224609 1.67449219 -0.02449219 2.53710938 -0.03710938 C3.73883789 -0.04000977 3.73883789 -0.04000977 4.96484375 -0.04296875 C5.70210693 -0.04707764 6.43937012 -0.05118652 7.19897461 -0.05541992 C9.0625 0.1875 9.0625 0.1875 11.0625 2.1875 C5.01420514 3.08354368 -0.8269576 3.30019443 -6.9375 3.1875 C-7.9275 5.4975 -8.9175 7.8075 -9.9375 10.1875 C-11.48328627 7.09592747 -10.54027633 4.50276981 -9.9375 1.1875 C-7.78017167 -0.96982833 -2.98951247 0.00229081 0 0 Z " fill="#E8C9C1" transform="translate(30.9375,71.8125)"/>
<path d="M0 0 C2 2 2 2 2 4 C3.98 4.99 5.96 5.98 8 7 C7.67 8.65 7.34 10.3 7 12 C4.69 11.67 2.38 11.34 0 11 C0 10.01 0 9.02 0 8 C0.66 8 1.32 8 2 8 C2 7.34 2 6.68 2 6 C0.68 6 -0.64 6 -2 6 C-1.49396008 3.83125748 -1.00016187 2.00032373 0 0 Z " fill="#992A20" transform="translate(114,110)"/>
<path d="M0 0 C0.33 0.99 0.66 1.98 1 3 C1.99 2.67 2.98 2.34 4 2 C4.66 2.66 5.32 3.32 6 4 C5.67 4.99 5.34 5.98 5 7 C3.68 6.67 2.36 6.34 1 6 C1.20625 7.11375 1.4125 8.2275 1.625 9.375 C1.74875 10.57125 1.8725 11.7675 2 13 C1.34 13.66 0.68 14.32 0 15 C0 14.34 0 13.68 0 13 C-0.66 13 -1.32 13 -2 13 C-2 9.04 -2 5.08 -2 1 C-1.34 0.67 -0.68 0.34 0 0 Z " fill="#AE3E31" transform="translate(17,110)"/>
<path d="M0 0 C2.97 0.495 2.97 0.495 6 1 C6 3.31 6 5.62 6 8 C5.01 8.495 5.01 8.495 4 9 C4.33 10.65 4.66 12.3 5 14 C4.34 14 3.68 14 3 14 C3 13.01 3 12.02 3 11 C2.34 11 1.68 11 1 11 C0.67 11.99 0.34 12.98 0 14 C-1.4535556 11.09288879 -0.71133997 9.10402897 0 6 C0.66 5.34 1.32 4.68 2 4 C1.34 2.68 0.68 1.36 0 0 Z " fill="#9E2216" transform="translate(31,81)"/>
<path d="M0 0 C0.99 0.495 0.99 0.495 2 1 C2 2.32 2 3.64 2 5 C2.598125 4.773125 3.19625 4.54625 3.8125 4.3125 C6 4 6 4 7.8125 4.9375 C9.75695083 8.31470407 8.67802496 11.24004341 8 15 C6.68 15 5.36 15 4 15 C4 12.03 4 9.06 4 6 C2.68 6 1.36 6 0 6 C0 4.02 0 2.04 0 0 Z " fill="#972519" transform="translate(164,75)"/>
<path d="M0 0 C2.97 0 5.94 0 9 0 C9 1.98 9 3.96 9 6 C6.03 6 3.06 6 0 6 C0 4.02 0 2.04 0 0 Z " fill="#FDEBE4" transform="translate(57,73)"/>
<path d="M0 0 C0.66 0 1.32 0 2 0 C2 0.66 2 1.32 2 2 C2.66 2.33 3.32 2.66 4 3 C3.67 4.65 3.34 6.3 3 8 C4.32 8.33 5.64 8.66 7 9 C3.06329512 10.31223496 0.87511856 9.24296256 -3 8 C-3.185625 6.824375 -3.185625 6.824375 -3.375 5.625 C-3.79117993 2.85942178 -3.79117993 2.85942178 -6 1 C-3.03 1.495 -3.03 1.495 0 2 C0 1.34 0 0.68 0 0 Z " fill="#A93F35" transform="translate(155,114)"/>
<path d="M0 0 C1.65 0.33 3.3 0.66 5 1 C5 1.66 5 2.32 5 3 C6.32 3 7.64 3 9 3 C9 4.32 9 5.64 9 7 C7.20793453 6.85915204 5.41635083 6.71216299 3.625 6.5625 C2.62726563 6.48128906 1.62953125 6.40007812 0.6015625 6.31640625 C-2 6 -2 6 -4 5 C-4 4.34 -4 3.68 -4 3 C-4.66 2.67 -5.32 2.34 -6 2 C-3.03 2.495 -3.03 2.495 0 3 C0 2.01 0 1.02 0 0 Z " fill="#FCFDFB" transform="translate(134,82)"/>
<path d="M0 0 C0.33 0 0.66 0 1 0 C0.58955515 6.57791873 0.13391403 12.74051886 -2 19 C-4 17 -4 17 -4.1875 13.1875 C-4.11266813 10.02729249 -3.76920251 7.07681004 -3 4 C-2.01 4 -1.02 4 0 4 C0 2.68 0 1.36 0 0 Z " fill="#FCF0ED" transform="translate(29,81)"/>
<path d="M0 0 C0.33 0 0.66 0 1 0 C1.33 2.97 1.66 5.94 2 9 C3.32 9.33 4.64 9.66 6 10 C5.6596875 8.6078125 5.6596875 8.6078125 5.3125 7.1875 C5.209375 6.135625 5.10625 5.08375 5 4 C5.99 3.01 6.98 2.02 8 1 C7.67 4.3 7.34 7.6 7 11 C4.03 11 1.06 11 -2 11 C-1.125 2.25 -1.125 2.25 0 0 Z " fill="#FDEDEB" transform="translate(68,97)"/>
<path d="M0 0 C0.33 0 0.66 0 1 0 C1 2.97 1 5.94 1 9 C1.99 9.33 2.98 9.66 4 10 C4 10.66 4 11.32 4 12 C2.68 12.33 1.36 12.66 0 13 C0 15.31 0 17.62 0 20 C-0.99 20 -1.98 20 -3 20 C-2.33644956 13.25390382 -1.28134207 6.65551466 0 0 Z " fill="#F6DCDB" transform="translate(54,88)"/>
<path d="M0 0 C0.33 0.99 0.66 1.98 1 3 C1.99 3 2.98 3 4 3 C4 3.99 4 4.98 4 6 C4.66 6 5.32 6 6 6 C6.33 5.01 6.66 4.02 7 3 C7 4.98 7 6.96 7 9 C5.35 9.33 3.7 9.66 2 10 C2 9.34 2 8.68 2 8 C1.34 8 0.68 8 0 8 C0 5.36 0 2.72 0 0 Z " fill="#D5877C" transform="translate(38,114)"/>
<path d="M0 0 C3.3 0 6.6 0 10 0 C8.08944756 3.82110489 7.50744291 4.95399164 4 7 C0.75 7.6875 0.75 7.6875 -2 8 C0 6 0 6 3 5 C3 4.01 3 3.02 3 2 C2.01 2 1.02 2 0 2 C0 1.34 0 0.68 0 0 Z " fill="#F6DED8" transform="translate(104,100)"/>
<path d="M0 0 C0.66 0 1.32 0 2 0 C1.43393721 4.69023454 0.81462495 9.34500026 0 14 C-3.63 14 -7.26 14 -11 14 C-10.67 13.01 -10.34 12.02 -10 11 C-10 11.66 -10 12.32 -10 13 C-7.6568787 12.74438677 -5.32156597 12.40729228 -3 12 C-1.55318676 9.10637351 -1.56757624 6.1916991 -1.28125 2.99609375 C-1 1 -1 1 0 0 Z " fill="#FAE5DD" transform="translate(179,94)"/>
<path d="M0 0 C0.33 0 0.66 0 1 0 C0.41993763 7.75451806 -0.62440584 15.34742277 -2 23 C-2.33 23 -2.66 23 -3 23 C-3.08172936 20.4784979 -3.14083373 17.95970083 -3.1875 15.4375 C-3.21263672 14.73302734 -3.23777344 14.02855469 -3.26367188 13.30273438 C-3.33532304 8.11996685 -2.32172598 4.63735818 0 0 Z " fill="#9D3A2F" transform="translate(18,85)"/>
<path d="M0 0 C0.33 0.66 0.66 1.32 1 2 C2.32 2 3.64 2 5 2 C5 3.65 5 5.3 5 7 C4.34 7 3.68 7 3 7 C3 8.32 3 9.64 3 11 C1.68 10.67 0.36 10.34 -1 10 C-1.125 3.375 -1.125 3.375 0 0 Z " fill="#FDFDFD" transform="translate(108,84)"/>
<path d="M0 0 C0.66 0 1.32 0 2 0 C1.125 5.75 1.125 5.75 0 8 C-3.3 7.34 -6.6 6.68 -10 6 C-9.67 5.34 -9.34 4.68 -9 4 C-5.9375 3.375 -5.9375 3.375 -3 3 C-3 2.34 -3 1.68 -3 1 C-2.34 1.33 -1.68 1.66 -1 2 C-0.67 1.34 -0.34 0.68 0 0 Z " fill="#992212" transform="translate(49,102)"/>
<path d="M0 0 C0.33 0.99 0.66 1.98 1 3 C0.01 4.485 0.01 4.485 -1 6 C-2.65 5.67 -4.3 5.34 -6 5 C-5.67 6.32 -5.34 7.64 -5 9 C-6.65 9.33 -8.3 9.66 -10 10 C-9.78515625 7.67578125 -9.78515625 7.67578125 -9 5 C-6.93359375 3.41796875 -6.93359375 3.41796875 -4.4375 2.1875 C-3.61121094 1.76855469 -2.78492188 1.34960938 -1.93359375 0.91796875 C-1.29550781 0.61503906 -0.65742188 0.31210938 0 0 Z " fill="#F8DDD8" transform="translate(164,72)"/>
<path d="M0 0 C0.66 0.99 1.32 1.98 2 3 C2.99 3.33 3.98 3.66 5 4 C4.34 5.32 3.68 6.64 3 8 C2.01 8 1.02 8 0 8 C-0.33 7.34 -0.66 6.68 -1 6 C-1.99 6.495 -1.99 6.495 -3 7 C-4 4 -4 4 -3 1 C-2.01 0.67 -1.02 0.34 0 0 Z " fill="#9A291E" transform="translate(68,118)"/>
<path d="M0 0 C0.391875 0.639375 0.78375 1.27875 1.1875 1.9375 C3.38472296 4.43778819 4.75791433 4.64950425 8 5 C8 5.33 8 5.66 8 6 C5.69 6.66 3.38 7.32 1 8 C1 8.66 1 9.32 1 10 C1.99 10.33 2.98 10.66 4 11 C1.69 10.67 -0.62 10.34 -3 10 C-2.67 8.35 -2.34 6.7 -2 5 C-1.34 5 -0.68 5 0 5 C0 3.35 0 1.7 0 0 Z " fill="#F9E9E5" transform="translate(96,97)"/>
<path d="M0 0 C0.66 0 1.32 0 2 0 C2 2.64 2 5.28 2 8 C0.02 8 -1.96 8 -4 8 C-4.33 8.66 -4.66 9.32 -5 10 C-5 7.69 -5 5.38 -5 3 C-4.01 3.99 -3.02 4.98 -2 6 C-2.33 4.68 -2.66 3.36 -3 2 C-2.34 2 -1.68 2 -1 2 C-0.67 1.34 -0.34 0.68 0 0 Z " fill="#DC968C" transform="translate(86,114)"/>
<path d="M0 0 C3.125 0.375 3.125 0.375 6 1 C5.505 1.4125 5.01 1.825 4.5 2.25 C2.56613908 4.12202338 2.56613908 4.12202338 3 8 C3.66 8.33 4.32 8.66 5 9 C4.01 9.66 3.02 10.32 2 11 C1.34 10.34 0.68 9.68 0 9 C0 8.01 0 7.02 0 6 C-0.66 6 -1.32 6 -2 6 C-2 2 -2 2 0 0 Z " fill="#A1433A" transform="translate(44,114)"/>
<path d="M0 0 C0.33 0 0.66 0 1 0 C1.66 2.31 2.32 4.62 3 7 C3.66 7 4.32 7 5 7 C4.67 7.99 4.34 8.98 4 10 C3.01 10.33 2.02 10.66 1 11 C-0.21869929 13.50447516 -0.21869929 13.50447516 -1 16 C-1.99 15.34 -2.98 14.68 -4 14 C-3.525625 13.175 -3.05125 12.35 -2.5625 11.5 C-0.76430401 7.47204099 -0.3765745 4.36826421 0 0 Z " fill="#FBE7E5" transform="translate(39,84)"/>
<path d="M0 0 C0 0.66 0 1.32 0 2 C2.31 2 4.62 2 7 2 C6.67 2.66 6.34 3.32 6 4 C4.58344207 4.0272415 3.16672955 4.04650467 1.75 4.0625 C0.56664062 4.07990234 0.56664062 4.07990234 -0.640625 4.09765625 C-2.90691002 4.00385306 -4.8288895 3.63241063 -7 3 C-7 2.34 -7 1.68 -7 1 C-4.53721199 -0.231394 -2.7204945 -0.07159196 0 0 Z " fill="#9A2312" transform="translate(138,90)"/>
<path d="M0 0 C0.33 0 0.66 0 1 0 C1 1.98 1 3.96 1 6 C-3.96073422 7.32286246 -8.91111512 7.08893197 -14 7 C-14 6.67 -14 6.34 -14 6 C-13.32453125 5.90203125 -12.6490625 5.8040625 -11.953125 5.703125 C-5.06529424 4.59997269 -5.06529424 4.59997269 0 0 Z " fill="#9A352C" transform="translate(143,102)"/>
<path d="M0 0 C0 1.32 0 2.64 0 4 C-2.64 4 -5.28 4 -8 4 C-7.625 2.0625 -7.625 2.0625 -7 0 C-4.3333581 -1.33332095 -2.83319697 -0.67102033 0 0 Z " fill="#97352C" transform="translate(106,88)"/>
<path d="M0 0 C1.32 0 2.64 0 4 0 C4.33 2.31 4.66 4.62 5 7 C3.35 7 1.7 7 0 7 C0 4.69 0 2.38 0 0 Z " fill="#FCFDFC" transform="translate(53,100)"/>
<path d="M0 0 C0.33 0 0.66 0 1 0 C1 2.31 1 4.62 1 7 C1.66 7 2.32 7 3 7 C3 8.98 3 10.96 3 13 C2.566875 12.525625 2.13375 12.05125 1.6875 11.5625 C-0.02309613 9.76313043 -0.02309613 9.76313043 -3 9 C-2.30058404 5.85262818 -1.23921302 2.97411124 0 0 Z " fill="#A2392F" transform="translate(149,82)"/>
<path d="M0 0 C0.33 0 0.66 0 1 0 C1 2.64 1 5.28 1 8 C-0.65 8 -2.3 8 -4 8 C-4 6.35 -4 4.7 -4 3 C-2.68 2.67 -1.36 2.34 0 2 C0 1.34 0 0.68 0 0 Z " fill="#D58980" transform="translate(162,114)"/>
<path d="M0 0 C0.33 0 0.66 0 1 0 C1.33 3.3 1.66 6.6 2 10 C5.3 10.33 8.6 10.66 12 11 C12 11.33 12 11.66 12 12 C8.37 12.33 4.74 12.66 1 13 C-0.98983228 9.02033543 -1.22400716 8.32324868 -0.625 4.25 C-0.51414063 3.45078125 -0.40328125 2.6515625 -0.2890625 1.828125 C-0.19367188 1.22484375 -0.09828125 0.6215625 0 0 Z " fill="#9D3D37" transform="translate(150,97)"/>
<path d="M0 0 C2.33294775 -0.04241723 4.66702567 -0.04092937 7 0 C8 1 8 1 8.0625 3.5625 C8.041875 4.366875 8.02125 5.17125 8 6 C7.67 4.68 7.34 3.36 7 2 C6.34 2 5.68 2 5 2 C5 3.32 5 4.64 5 6 C4.34 6 3.68 6 3 6 C3 4.68 3 3.36 3 2 C2.34 2 1.68 2 1 2 C0.67 3.32 0.34 4.64 0 6 C0 4.02 0 2.04 0 0 Z " fill="#E39088" transform="translate(132,116)"/>
<path d="M0 0 C2.31 0 4.62 0 7 0 C7.33 1.98 7.66 3.96 8 6 C6.35 6 4.7 6 3 6 C3 4.68 3 3.36 3 2 C2.34 2 1.68 2 1 2 C0.67 3.32 0.34 4.64 0 6 C0 4.02 0 2.04 0 0 Z " fill="#E2948A" transform="translate(18,116)"/>
<path d="M0 0 C2.33294775 -0.04241723 4.66702567 -0.04092937 7 0 C8 1 8 1 8.0625 3.5625 C8.041875 4.366875 8.02125 5.17125 8 6 C7.67 4.68 7.34 3.36 7 2 C6.34 2 5.68 2 5 2 C5 3.32 5 4.64 5 6 C4.34 6 3.68 6 3 6 C3 4.68 3 3.36 3 2 C2.34 2 1.68 2 1 2 C0.67 3.32 0.34 4.64 0 6 C0 4.02 0 2.04 0 0 Z " fill="#E19087" transform="translate(123,116)"/>
<path d="M0 0 C0.66 0 1.32 0 2 0 C2 0.66 2 1.32 2 2 C0.54462432 2.83848804 -0.91440373 3.67063934 -2.375 4.5 C-3.59316406 5.19609375 -3.59316406 5.19609375 -4.8359375 5.90625 C-7 7 -7 7 -9 7 C-9.33 5.68 -9.66 4.36 -10 3 C-8 2 -8 2 -4.4375 1.5 C-1.17612856 1.37544938 -1.17612856 1.37544938 0 0 Z " fill="#973024" transform="translate(162,71)"/>
<path d="M0 0 C0.66 0 1.32 0 2 0 C2 1.32 2 2.64 2 4 C2.99 4 3.98 4 5 4 C5.33 5.98 5.66 7.96 6 10 C3.50638429 8.79618552 1.31856917 7.54571278 -1 6 C-0.67 5.34 -0.34 4.68 0 4 C0 2.68 0 1.36 0 0 Z " fill="#9E281D" transform="translate(53,118)"/>
<path d="M0 0 C0.99 0.33 1.98 0.66 3 1 C3 1.99 3 2.98 3 4 C3.66 4 4.32 4 5 4 C5 4.66 5 5.32 5 6 C3.02 6 1.04 6 -1 6 C-1.625 4.125 -1.625 4.125 -2 2 C-1.34 1.34 -0.68 0.68 0 0 Z " fill="#D18475" transform="translate(91,116)"/>
<path d="M0 0 C2.475 0.495 2.475 0.495 5 1 C5 2.65 5 4.3 5 6 C3.35 6 1.7 6 0 6 C0 4.02 0 2.04 0 0 Z " fill="#CD7768" transform="translate(147,116)"/>
<path d="M0 0 C0 1.32 0 2.64 0 4 C-0.639375 4.28875 -1.27875 4.5775 -1.9375 4.875 C-4.15206079 5.82823451 -4.15206079 5.82823451 -5 8 C-5.66 8 -6.32 8 -7 8 C-6.75 5.125 -6.75 5.125 -6 2 C-3.84139132 0.46808416 -2.63707871 0 0 0 Z " fill="#F8E9E6" transform="translate(126,86)"/>
<path d="M0 0 C0.33 0 0.66 0 1 0 C1.18451025 12.66970387 1.18451025 12.66970387 0 18 C-1.32 18.33 -2.64 18.66 -4 19 C-3.525625 17.906875 -3.05125 16.81375 -2.5625 15.6875 C-0.61291255 10.56523487 -0.28970046 5.43438112 0 0 Z " fill="#A14841" transform="translate(49,83)"/>
<path d="M0 0 C-1.3303125 0.5878125 -1.3303125 0.5878125 -2.6875 1.1875 C-6.12129608 3.06636955 -8.36541769 5.13295455 -11 8 C-11 7.01 -11 6.02 -11 5 C-11.66 4.34 -12.32 3.68 -13 3 C-11.5903653 2.29819469 -10.17192359 1.61406042 -8.75 0.9375 C-7.96109375 0.55464844 -7.1721875 0.17179687 -6.359375 -0.22265625 C-3.74006478 -1.08564091 -2.55144824 -0.93045933 0 0 Z " fill="#973229" transform="translate(130,82)"/>
<path d="M0 0 C0.33 0 0.66 0 1 0 C1 2.97 1 5.94 1 9 C1.66 9 2.32 9 3 9 C3 9.66 3 10.32 3 11 C4.98 11 6.96 11 9 11 C9 11.33 9 11.66 9 12 C7.741875 12.020625 6.48375 12.04125 5.1875 12.0625 C4.47980469 12.07410156 3.77210937 12.08570312 3.04296875 12.09765625 C1 12 1 12 -2 11 C-2 10.34 -2 9.68 -2 9 C-1.34 9 -0.68 9 0 9 C0 6.03 0 3.06 0 0 Z " fill="#922419" transform="translate(37,113)"/>
<path d="M0 0 C0.91007813 0.00902344 1.82015625 0.01804687 2.7578125 0.02734375 C3.45648438 0.03894531 4.15515625 0.05054687 4.875 0.0625 C4.875 0.3925 4.875 0.7225 4.875 1.0625 C3.905625 1.371875 2.93625 1.68125 1.9375 2 C-0.96565792 2.75773342 -0.96565792 2.75773342 -2.125 4.0625 C-3.79117115 4.10313832 -5.45888095 4.105221 -7.125 4.0625 C-7.125 3.0725 -7.125 2.0825 -7.125 1.0625 C-4.60024538 -0.19987731 -2.81299534 -0.03606404 0 0 Z " fill="#921F16" transform="translate(174.125,107.9375)"/>
<path d="M0 0 C0.66 0.33 1.32 0.66 2 1 C0.875 3.4375 0.875 3.4375 -1 6 C-4.1875 6.8125 -4.1875 6.8125 -7 7 C-5.66667905 3.00003714 -3.5042173 2.16217663 0 0 Z " fill="#801D15" transform="translate(188,37)"/>
<path d="M0 0 C1.98 0.495 1.98 0.495 4 1 C3.67 2.65 3.34 4.3 3 6 C1.68 5.67 0.36 5.34 -1 5 C-0.67 3.35 -0.34 1.7 0 0 Z " fill="#CC8276" transform="translate(118,116)"/>
<path d="M0 0 C1.98 0.495 1.98 0.495 4 1 C3.67 2.65 3.34 4.3 3 6 C1.68 5.67 0.36 5.34 -1 5 C-0.67 3.35 -0.34 1.7 0 0 Z " fill="#D18077" transform="translate(142,116)"/>
<path d="M0 0 C3.125 -0.1875 3.125 -0.1875 6 0 C6 0.33 6 0.66 6 1 C4.35 1 2.7 1 1 1 C0.731875 1.61875 0.46375 2.2375 0.1875 2.875 C-1 5 -1 5 -4 7 C-6.1875 6.625 -6.1875 6.625 -8 6 C-7.67 5.01 -7.34 4.02 -7 3 C-6.21625 3.061875 -5.4325 3.12375 -4.625 3.1875 C-3.75875 3.125625 -2.8925 3.06375 -2 3 C-1.34 2.01 -0.68 1.02 0 0 Z " fill="#F3D2CA" transform="translate(136,97)"/>
<path d="M0 0 C0.99 0 1.98 0 3 0 C3 0.66 3 1.32 3 2 C3.99 2 4.98 2 6 2 C6.33 2.99 6.66 3.98 7 5 C6.34 5 5.68 5 5 5 C4.67 5.99 4.34 6.98 4 8 C4 6.68 4 5.36 4 4 C2.68 4.33 1.36 4.66 0 5 C0 3.35 0 1.7 0 0 Z " fill="#FBFEFD" transform="translate(153,98)"/>
<path d="M0 0 C1.32 0.66 2.64 1.32 4 2 C2.55746343 5.36591866 0.66735273 7.51047079 -2 10 C-1.34 6.7 -0.68 3.4 0 0 Z " fill="#97352E" transform="translate(172,90)"/>
<path d="M0 0 C2.33944736 0.28730055 4.6739143 0.61936779 7 1 C7 1.33 7 1.66 7 2 C6.071875 2.20625 5.14375 2.4125 4.1875 2.625 C0.73995905 3.74446192 0.73995905 3.74446192 -0.875 7.125 C-1.24625 8.07375 -1.6175 9.0225 -2 10 C-2.33 9.01 -2.66 8.02 -3 7 C-3.66 6.67 -4.32 6.34 -5 6 C-4.01 6 -3.02 6 -2 6 C-1.855625 5.195625 -1.71125 4.39125 -1.5625 3.5625 C-1 1 -1 1 0 0 Z " fill="#F8E5E3" transform="translate(79,88)"/>
<path d="M0 0 C0.5775 0.763125 1.155 1.52625 1.75 2.3125 C3.71703093 4.66200917 5.48476744 6.29323505 8 8 C4.88407501 9.03864166 3.9737344 9.09036928 1 8 C-0.35439668 5.29120665 -0.06501451 2.99066732 0 0 Z " fill="#9F3B35" transform="translate(88,100)"/>
<path d="M0 0 C0.99 0 1.98 0 3 0 C3.33 1.98 3.66 3.96 4 6 C2.35 5.67 0.7 5.34 -1 5 C-0.67 3.35 -0.34 1.7 0 0 Z " fill="#D2877E" transform="translate(170,116)"/>
<path d="M0 0 C0.99 0.33 1.98 0.66 3 1 C3 2.65 3 4.3 3 6 C1.68 6 0.36 6 -1 6 C-1.625 4.125 -1.625 4.125 -2 2 C-1.34 1.34 -0.68 0.68 0 0 Z " fill="#D1867B" transform="translate(48,116)"/>
<path d="M0 0 C0.66 0 1.32 0 2 0 C1.34 4.62 0.68 9.24 0 14 C-0.33 14 -0.66 14 -1 14 C-1.66 11.36 -2.32 8.72 -3 6 C-2.01 6 -1.02 6 0 6 C0 4.02 0 2.04 0 0 Z " fill="#A1403C" transform="translate(67,90)"/>
<path d="M0 0 C2.05078125 0.03255208 4.1015625 0.06510417 6.15234375 0.09765625 C6.15234375 0.75765625 6.15234375 1.41765625 6.15234375 2.09765625 C4.83234375 2.09765625 3.51234375 2.09765625 2.15234375 2.09765625 C2.15234375 2.75765625 2.15234375 3.41765625 2.15234375 4.09765625 C0.83234375 4.09765625 -0.48765625 4.09765625 -1.84765625 4.09765625 C-2.17765625 3.10765625 -2.50765625 2.11765625 -2.84765625 1.09765625 C-1.84765625 0.09765625 -1.84765625 0.09765625 0 0 Z " fill="#FCFDFC" transform="translate(97.84765625,82.90234375)"/>
<path d="M0 0 C1.65 0 3.3 0 5 0 C5.66 1.32 6.32 2.64 7 4 C6.01 4 5.02 4 4 4 C3.34 5.32 2.68 6.64 2 8 C1.34 5.36 0.68 2.72 0 0 Z " fill="#A4544B" transform="translate(78,116)"/>
<path d="M0 0 C1.32 0.66 2.64 1.32 4 2 C3.67 3.32 3.34 4.64 3 6 C1.68 5.67 0.36 5.34 -1 5 C-0.67 3.35 -0.34 1.7 0 0 Z " fill="#D17F77" transform="translate(76,116)"/>
<path d="M0 0 C0.99 0 1.98 0 3 0 C3.04254356 1.99954746 3.04080783 4.00041636 3 6 C2 7 2 7 -0.06640625 7.09765625 C-0.89011719 7.08605469 -1.71382812 7.07445313 -2.5625 7.0625 C-3.38878906 7.05347656 -4.21507812 7.04445313 -5.06640625 7.03515625 C-5.70449219 7.02355469 -6.34257812 7.01195313 -7 7 C-7 6.67 -7 6.34 -7 6 C-4.36 6 -1.72 6 1 6 C0.67 4.02 0.34 2.04 0 0 Z " fill="#F8E1DC" transform="translate(161,101)"/>
<path d="M0 0 C5.61 0 11.22 0 17 0 C17 0.33 17 0.66 17 1 C16.05125 1.309375 15.1025 1.61875 14.125 1.9375 C11.13919592 2.87394742 11.13919592 2.87394742 9 4 C9 3.01 9 2.02 9 1 C6.03 1 3.06 1 0 1 C0 0.67 0 0.34 0 0 Z " fill="#94372E" transform="translate(70,81)"/>
<path d="M0 0 C1.9375 0.3125 1.9375 0.3125 4 1 C4.33 1.99 4.66 2.98 5 4 C4.34 4.66 3.68 5.32 3 6 C0.875 5.625 0.875 5.625 -1 5 C-0.67 3.35 -0.34 1.7 0 0 Z " fill="#D68B7D" transform="translate(70,116)"/>
<path d="M0 0 C6.46326465 -0.45356243 9.60931587 0.40621058 15 4 C12.50907189 5.24546405 11.58919267 4.7767578 9 4 C9 3.34 9 2.68 9 2 C6.03 1.67 3.06 1.34 0 1 C0 0.67 0 0.34 0 0 Z " fill="#F3CFC8" transform="translate(130,81)"/>
<path d="M0 0 C2 3 2 3 2 6 C0.35 6 -1.3 6 -3 6 C-2.42655063 3.13275314 -2.1385485 2.1385485 0 0 Z " fill="#541210" transform="translate(53,194)"/>
<path d="M0 0 C2.475 0.495 2.475 0.495 5 1 C5 2.65 5 4.3 5 6 C4.34 6 3.68 6 3 6 C3 4.68 3 3.36 3 2 C2.34 2 1.68 2 1 2 C0.67 3.32 0.34 4.64 0 6 C0 4.02 0 2.04 0 0 Z " fill="#E29089" transform="translate(52,116)"/>
<path d="M0 0 C0.33 0.99 0.66 1.98 1 3 C1.66 3 2.32 3 3 3 C3 4.98 3 6.96 3 9 C2.01 9 1.02 9 0 9 C0 6.03 0 3.06 0 0 Z " fill="#9B251A" transform="translate(64,87)"/>
<path d="M0 0 C3.3 0 6.6 0 10 0 C10.33 0.99 10.66 1.98 11 3 C10.01 3.33 9.02 3.66 8 4 C8 3.34 8 2.68 8 2 C5.36 1.67 2.72 1.34 0 1 C0 0.67 0 0.34 0 0 Z " fill="#A11E11" transform="translate(96,109)"/>
<path d="M0 0 C0 0.99 0 1.98 0 3 C-1.65 3 -3.3 3 -5 3 C-5.33 2.01 -5.66 1.02 -6 0 C-3.50907189 -1.24546405 -2.58919267 -0.7767578 0 0 Z " fill="#9A2117" transform="translate(135,97)"/>
<path d="M0 0 C1.98 0 3.96 0 6 0 C6.33 0.66 6.66 1.32 7 2 C4.03 2.66 1.06 3.32 -2 4 C-1.34 2.68 -0.68 1.36 0 0 Z " fill="#9D3E39" transform="translate(131,88)"/>
<path d="M0 0 C1.98 0 3.96 0 6 0 C5.34 1.32 4.68 2.64 4 4 C2.68 3.67 1.36 3.34 0 3 C0 2.01 0 1.02 0 0 Z " fill="#FCFEF7" transform="translate(59,74)"/>
<path d="M0 0 C-0.33 0.99 -0.66 1.98 -1 3 C-1.66 3 -2.32 3 -3 3 C-3.66 3.66 -4.32 4.32 -5 5 C-6.02104551 4.02149805 -7.0206121 3.02019573 -8 2 C-8 1.67 -8 1.34 -8 1 C-2.25 0 -2.25 0 0 0 Z " fill="#FBEFEA" transform="translate(35,99)"/>
<path d="M0 0 C0.625 1.8125 0.625 1.8125 1 4 C0.01 5.485 0.01 5.485 -1 7 C-1.66 7 -2.32 7 -3 7 C-3.33 7.66 -3.66 8.32 -4 9 C-3.46930939 5.17902761 -2.50298434 2.93828597 0 0 Z " fill="#F8E1DB" transform="translate(173,96)"/>
<path d="M0 0 C0.33 0 0.66 0 1 0 C1.66 3.96 2.32 7.92 3 12 C2.34 12 1.68 12 1 12 C-0.26237731 9.47524538 -0.09856404 7.68799534 -0.0625 4.875 C-0.05347656 3.96492188 -0.04445312 3.05484375 -0.03515625 2.1171875 C-0.02355469 1.41851562 -0.01195312 0.71984375 0 0 Z " fill="#FCE2DF" transform="translate(151,95)"/>
<path d="M0 0 C0.33 0.99 0.66 1.98 1 3 C-2.3 2.67 -5.6 2.34 -9 2 C-5.5647952 -0.29013653 -4.014669 -0.17842973 0 0 Z " fill="#942D21" transform="translate(139,79)"/>
<path d="M0 0 C1.32 0 2.64 0 4 0 C4 1.32 4 2.64 4 4 C2.35 4 0.7 4 -1 4 C-0.67 2.68 -0.34 1.36 0 0 Z " fill="#FBFEFC" transform="translate(179,73)"/>
</svg>
