<?xml version="1.0" encoding="UTF-8"?>
<svg version="1.1" xmlns="http://www.w3.org/2000/svg" width="1920" height="1920">
<path d="M0 0 C633.6 0 1267.2 0 1920 0 C1920 633.6 1920 1267.2 1920 1920 C1286.4 1920 652.8 1920 0 1920 C0 1286.4 0 652.8 0 0 Z " fill="#000000" transform="translate(0,0)"/>
<path d="M0 0 C0.78742584 -0.00824295 1.57485168 -0.0164859 2.38613892 -0.02497864 C4.93990167 -0.04419317 7.49305077 -0.04416502 10.046875 -0.0390625 C10.9163678 -0.03951569 11.7858606 -0.03996887 12.68170166 -0.04043579 C30.97845505 -0.01242045 48.33925623 1.51673124 65.796875 7.3359375 C65.796875 21.8559375 65.796875 36.3759375 65.796875 51.3359375 C62.09190837 48.86595975 58.69060512 46.50448302 55.25854492 43.73266602 C39.27691519 30.92326314 23.99127049 28.12754306 3.921875 27.8984375 C2.06767944 27.86484131 2.06767944 27.86484131 0.17602539 27.83056641 C-11.78030195 27.86119679 -19.4593687 30.749574 -28.078125 39.05859375 C-30.84934748 42.02848843 -32.69313256 44.57561652 -34.203125 48.3359375 C-34.57179688 49.13128906 -34.94046875 49.92664063 -35.3203125 50.74609375 C-38.45487332 58.77705474 -38.41890807 66.28475939 -38.3125 74.81640625 C-38.30460449 76.02180054 -38.29670898 77.22719482 -38.28857422 78.46911621 C-38.26807348 81.42488303 -38.2393679 84.3803288 -38.203125 87.3359375 C-37.26351142 87.32894018 -36.32389784 87.32194286 -35.35581112 87.31473351 C-12.4430486 87.14458464 10.4697735 86.98658444 33.38270664 86.84116173 C44.46343738 86.77055678 55.54411617 86.69607261 66.62475586 86.61230469 C76.2879452 86.53926247 85.95115227 86.47365312 95.61445087 86.41679347 C100.72625073 86.38646029 105.8379669 86.35252467 110.94967842 86.30967331 C115.77175754 86.26936774 120.59380083 86.23908309 125.41599274 86.21612358 C127.17546717 86.2060455 128.93492602 86.19246474 130.69434166 86.17490196 C157.23789205 85.91601124 157.23789205 85.91601124 167.6875 90.515625 C170.4357208 91.58437753 173.2404584 92.15506559 176.109375 92.8359375 C188.93104783 96.40442897 200.37170768 104.2480956 210.796875 112.3359375 C211.63734375 112.96757813 212.4778125 113.59921875 213.34375 114.25 C232.65007735 129.24321167 247.44879899 148.74083921 256.796875 171.3359375 C256.82265625 170.05460938 256.8484375 168.77328125 256.875 167.453125 C257.51000537 145.55074921 263.23998788 129.91520863 278.796875 114.3359375 C279.45558594 113.665625 280.11429688 112.9953125 280.79296875 112.3046875 C295.77608719 98.12711306 316.92247827 92.18767213 336.796875 89.3359375 C337.85249634 89.08009888 337.85249634 89.08009888 338.92944336 88.8190918 C343.02415565 88.12914411 347.06867204 88.13347492 351.21484375 88.09765625 C352.13686081 88.08795303 353.05887787 88.07824982 354.00883484 88.06825256 C357.00072564 88.04326642 359.99239016 88.03071509 362.984375 88.0234375 C364.00041809 88.02081909 365.01646118 88.01820068 366.06329346 88.01550293 C381.97374057 88.0110997 397.22565202 88.7807808 412.796875 92.3359375 C413.5919043 92.51737305 414.38693359 92.69880859 415.20605469 92.88574219 C419.45251659 93.88845513 423.63343078 95.02522358 427.796875 96.3359375 C428.82167969 96.49191406 429.84648438 96.64789062 430.90234375 96.80859375 C435.65148924 99.31455311 436.57764039 103.78190269 438.359375 108.6484375 C438.74794678 109.65374512 439.13651855 110.65905273 439.53686523 111.69482422 C440.64358323 114.56807449 441.72269359 117.45040177 442.796875 120.3359375 C443.64923443 122.54496901 444.50300076 124.75345931 445.359375 126.9609375 C445.91818359 128.43626953 445.91818359 128.43626953 446.48828125 129.94140625 C448.20910038 134.40526244 450.00679783 138.83699797 451.796875 143.2734375 C454.15069114 149.11101076 456.41373277 154.95432259 458.484375 160.8984375 C460.22912799 165.88843106 462.23859305 170.64409245 464.4765625 175.4296875 C468.03155615 183.25488062 471.18969135 191.2715681 473.796875 199.4609375 C475.11603606 203.54817423 476.68278064 207.34244061 478.546875 211.2109375 C481.83132614 218.09581229 484.34361891 225.20029917 486.89868164 232.38232422 C488.90426373 237.98483749 491.07926701 243.39841308 493.6484375 248.76953125 C495.53085346 252.97615468 496.99143141 257.32770892 498.48828125 261.68359375 C501.01273141 268.72944717 503.90681076 275.61994753 506.8125 282.515625 C507.61709542 284.43056611 508.42141073 286.34562457 509.22558594 288.26074219 C509.77803398 289.57255994 510.33276261 290.88341936 510.88964844 292.19335938 C511.70385111 294.11058341 512.50895901 296.03141259 513.3125 297.953125 C514.02841309 299.64864502 514.02841309 299.64864502 514.75878906 301.37841797 C515.796875 304.3359375 515.796875 304.3359375 515.796875 308.3359375 C516.456875 308.3359375 517.116875 308.3359375 517.796875 308.3359375 C517.94962891 306.84900391 517.94962891 306.84900391 518.10546875 305.33203125 C518.71472705 301.06722316 520.18904254 297.34755299 521.859375 293.3984375 C522.14103516 292.71458984 522.42269531 292.03074219 522.71289062 291.32617188 C523.4004155 289.65979804 524.09763675 287.99743023 524.796875 286.3359375 C525.456875 286.3359375 526.116875 286.3359375 526.796875 286.3359375 C527.02375 285.1396875 527.250625 283.9434375 527.484375 282.7109375 C530.50991552 269.17005685 536.37895726 255.49857733 542.296875 242.9609375 C544.76285166 237.65750692 546.6551208 232.20861127 548.55981445 226.68652344 C551.12061067 219.29913453 554.13753432 212.14135878 557.26171875 204.9765625 C558.8309557 201.25511509 560.2723502 197.49824393 561.671875 193.7109375 C562.197557 192.30064713 562.72360396 190.89049276 563.25 189.48046875 C563.50974609 188.7838916 563.76949219 188.08731445 564.03710938 187.36962891 C569.20139843 173.54619453 569.20139843 173.54619453 571.796875 167.8984375 C574.82847553 161.22891633 577.10576282 154.24063785 579.4921875 147.31933594 C585.83214873 129.00486002 595.29637247 115.08663095 611.796875 104.3359375 C612.50199219 103.87574219 613.20710938 103.41554688 613.93359375 102.94140625 C646.30282256 83.51986896 688.87586497 85.92555536 724.6328125 92.26171875 C730.81468513 93.85647951 736.78454718 96.18867756 742.796875 98.3359375 C742.796875 112.8559375 742.796875 127.3759375 742.796875 142.3359375 C738.63133656 140.66972212 736.24982003 139.35328263 732.796875 136.7109375 C715.49896437 123.90629302 694.78490198 113.86123264 672.796875 114.0234375 C671.98017334 114.02907715 671.16347168 114.0347168 670.32202148 114.04052734 C653.23303937 114.37376167 638.57762252 117.8360231 625.91796875 130.0703125 C617.57900067 138.97749756 614.64753069 150.63758425 614.359375 162.6484375 C614.83702588 175.51606285 619.42011252 183.23642556 628.671875 192.0859375 C636.28739561 197.56911234 644.59803302 201.91419173 652.921875 206.2109375 C653.92089844 206.72906006 654.91992188 207.24718262 655.94921875 207.78100586 C661.88273322 210.85106642 667.82751049 213.89863382 673.796875 216.8984375 C674.41191895 217.2082959 675.02696289 217.5181543 675.66064453 217.83740234 C679.64657733 219.82318589 683.69464722 221.60523707 687.796875 223.3359375 C706.97411096 231.64348506 724.67509013 241.75334107 739.796875 256.3359375 C740.58191406 257.07199219 741.36695313 257.80804687 742.17578125 258.56640625 C753.6181948 270.12498643 758.98932638 287.06560562 759.171875 303.0859375 C759.10983853 311.74732381 757.78328375 319.92618831 755.796875 328.3359375 C755.50683594 329.68558594 755.50683594 329.68558594 755.2109375 331.0625 C750.42869048 350.12938099 735.25327396 365.08897719 719.234375 375.3984375 C705.25554245 383.37395747 690.49495126 387.28213167 674.796875 390.3359375 C673.62125 390.5834375 672.445625 390.8309375 671.234375 391.0859375 C636.5193978 397.3346334 599.10208412 390.87274358 569.796875 371.3359375 C569.43611145 369.15927124 569.43611145 369.15927124 569.45629883 366.42724609 C569.45663872 364.89588516 569.45663872 364.89588516 569.45698547 363.33358765 C569.47246933 362.22834747 569.48795319 361.1231073 569.50390625 359.984375 C569.50815109 358.8552066 569.51239594 357.72603821 569.51676941 356.56265259 C569.53360368 352.94517477 569.57126525 349.32824781 569.609375 345.7109375 C569.62441566 343.26302886 569.63810514 340.81511152 569.65039062 338.3671875 C569.68352273 332.3565819 569.73376921 326.34629904 569.796875 320.3359375 C571.0760152 321.29084203 572.35454287 322.24656712 573.6328125 323.20263672 C574.3448584 323.73476776 575.0569043 324.2668988 575.79052734 324.81515503 C578.18493844 326.63008397 580.49509882 328.5301713 582.796875 330.4609375 C610.46250015 353.17667965 636.27740894 365.80044134 672.796875 363.3359375 C676.99339013 362.71594984 680.80686792 361.75111242 684.796875 360.3359375 C685.55097656 360.119375 686.30507812 359.9028125 687.08203125 359.6796875 C699.18227823 356.09442914 709.93449138 350.36671302 716.61328125 339.3359375 C722.14156155 328.67901162 725.20632412 317.90839904 721.8515625 305.97265625 C719.58778128 300.25625272 716.9445866 295.83916724 712.796875 291.3359375 C712.796875 290.6759375 712.796875 290.0159375 712.796875 289.3359375 C712.20003906 289.06136719 711.60320313 288.78679687 710.98828125 288.50390625 C708.89050911 287.38584231 707.46165901 286.26086375 705.734375 284.6484375 C701.12398682 280.61434784 696.03428167 277.4902847 690.796875 274.3359375 C690.23484375 273.99739746 689.6728125 273.65885742 689.09375 273.31005859 C682.63083604 269.44410647 676.2277967 265.88380359 669.14453125 263.2578125 C666.66209325 262.28301156 664.34993264 261.12867935 661.984375 259.8984375 C658.3033523 258.01219916 654.61251152 256.46085626 650.734375 255.0234375 C623.1523987 244.61148396 597.4617625 230.56219063 583.796875 203.3359375 C580.44418578 211.31669052 577.10587233 219.26881152 574.296875 227.4609375 C572.30797234 233.17164811 569.91326626 238.56548036 567.31469727 244.0144043 C564.35763343 250.2155863 561.84240242 256.49763805 559.46875 262.94140625 C556.63092121 270.636343 553.61149039 278.18546276 550.2668457 285.67504883 C548.21073197 290.30574466 546.43123512 294.98345333 544.75390625 299.765625 C543.38588318 303.43974412 541.73453042 306.9644367 540.0859375 310.51953125 C537.04829218 317.15632603 534.27808241 323.88711765 531.859375 330.7734375 C530.42333029 334.81051098 528.75753828 338.65185677 526.921875 342.5234375 C524.2908616 348.09694449 522.09469793 353.73945741 519.98144531 359.52075195 C518.18119226 364.40994118 516.14369404 369.13547539 513.93359375 373.85546875 C512.86841315 376.17983192 511.91068843 378.51591082 510.984375 380.8984375 C509.0801594 385.76390266 506.94178444 390.51093688 504.796875 395.2734375 C502.2434826 400.95479356 499.89256587 406.61960809 497.8515625 412.5078125 C496.23311522 416.84764892 494.31995221 421.05186528 492.43774414 425.2824707 C490.10338613 430.55778177 488.018095 435.90205744 485.984375 441.30078125 C484.46972206 445.17211459 482.76666068 448.93753729 481.0078125 452.703125 C479.54348854 455.8868487 478.17729892 459.11494836 476.796875 462.3359375 C463.596875 462.3359375 450.396875 462.3359375 436.796875 462.3359375 C437.69397358 457.85044459 439.01307132 454.58364667 441.11328125 450.62890625 C441.44549179 449.99101669 441.77770233 449.35312714 442.11997986 448.69590759 C442.82839307 447.33728615 443.53961611 445.98012669 444.25341797 444.62432861 C445.36739673 442.50819931 446.47386566 440.38830546 447.578125 438.26708984 C449.01655027 435.50407926 450.4569454 432.74211373 451.89892578 429.98095703 C457.22049983 419.77667131 462.2836093 409.45586845 467.09765625 399.00244141 C468.81366873 395.30139574 470.68879807 391.83342877 472.796875 388.3359375 C473.39412898 386.91252604 473.95622753 385.47391079 474.484375 384.0234375 C476.28860517 379.36019646 478.45626475 374.96617474 480.734375 370.5234375 C484.25621545 363.62255598 487.29457292 356.68175132 489.796875 349.3359375 C490.20099609 348.35367188 490.20099609 348.35367188 490.61328125 347.3515625 C490.90303657 344.17041901 489.29410173 342.1044581 487.796875 339.3359375 C486.84949169 336.90486481 485.93382882 334.47592744 485.046875 332.0234375 C480.79295969 320.48481035 476.13440578 309.13936154 470.96484375 297.98046875 C469.69786231 295.11175159 468.58507865 292.20986619 467.484375 289.2734375 C465.45391175 283.88021965 463.17486331 278.64380522 460.796875 273.3984375 C458.41962849 268.14517165 456.21951511 262.92550134 454.359375 257.4609375 C452.34590829 251.57751952 449.89299346 245.98479143 447.296875 240.3359375 C444.22001512 233.63604071 441.48979481 226.95687409 439.109375 219.97265625 C436.90758487 213.87186277 434.31315928 207.93757997 431.76171875 201.9765625 C430.064357 198.00104079 428.45373644 193.99538731 426.85717773 189.97851562 C424.9073188 185.11890865 422.87896848 180.29187933 420.859375 175.4609375 C420.01692708 173.44270833 419.17447917 171.42447917 418.33203125 169.40625 C417.70590942 167.90964844 417.70590942 167.90964844 417.06713867 166.3828125 C416.20813409 164.3223902 415.35426502 162.25982055 414.50512695 160.1953125 C403.78234588 134.02682706 403.78234588 134.02682706 381.796875 117.3359375 C360.1853941 110.92665027 337.8038093 111.24727363 317.2734375 121.01171875 C306.8360617 127.2312509 300.16385014 136.34231004 296.43408203 147.80102539 C295.34344861 152.13974066 295.32372737 156.38322426 295.359375 160.8359375 C295.33939453 161.72152344 295.31941406 162.60710937 295.29882812 163.51953125 C295.30557119 172.70359159 298.41761402 179.69595106 304.75048828 186.30371094 C312.23664884 193.73807034 321.10172551 198.39599502 330.421875 203.0859375 C331.79858188 203.78695977 333.17504403 204.48846286 334.55126953 205.19042969 C348.45699035 212.25968536 362.47302341 219.11290119 376.7421875 225.41992188 C402.11528796 236.73169385 427.56455855 252.53258808 438.11279297 279.44384766 C444.68797665 297.63002664 442.85601228 318.54189916 435.796875 336.3359375 C424.08103613 360.1841784 404.75322788 375.77280249 379.796875 384.3359375 C342.33484132 395.75131136 298.05449341 395.45383135 263 377.04296875 C261.94296875 376.47964844 260.8859375 375.91632813 259.796875 375.3359375 C259.136875 375.0059375 258.476875 374.6759375 257.796875 374.3359375 C257.796875 357.8359375 257.796875 341.3359375 257.796875 324.3359375 C259.796875 324.3359375 259.796875 324.3359375 262.09375 326.54296875 C262.98578125 327.46464844 263.8778125 328.38632813 264.796875 329.3359375 C273.65683456 337.5217697 283.25443453 343.55315374 293.796875 349.3359375 C294.72185791 349.85679932 294.72185791 349.85679932 295.66552734 350.38818359 C317.38399905 362.55796517 343.29056499 364.96208987 367.3984375 359.5234375 C380.07483427 355.89296587 391.91427032 349.85318658 399.109375 338.4609375 C405.12565523 327.52671704 406.90382974 316.29238388 403.671875 303.9609375 C396.10491036 282.86410061 373.50871609 272.88745327 354.69848633 263.93603516 C347.81912216 260.70133239 340.9152028 257.57354065 333.8984375 254.6484375 C327.78085087 252.0596351 321.78513903 249.20844228 315.796875 246.3359375 C315.13365234 246.01866699 314.47042969 245.70139648 313.78710938 245.37451172 C296.64298103 237.12708469 282.01854228 228.15790512 269.796875 213.3359375 C269.80734863 214.52445313 269.81782227 215.71296875 269.82861328 216.9375 C269.86532162 221.42542403 269.88795676 225.91333536 269.90673828 230.40136719 C269.91668179 232.3291244 269.93024135 234.256867 269.94775391 236.18457031 C270.05312184 248.09734473 269.64894848 259.55542099 267.796875 271.3359375 C267.68166504 272.15320313 267.56645508 272.97046875 267.44775391 273.8125 C262.4436373 308.5479426 240.14287634 343.82079745 212.796875 365.3359375 C197.8014835 376.3090743 181.02248221 385.29487341 162.796875 389.3359375 C161.53230469 389.63242188 160.26773437 389.92890625 158.96484375 390.234375 C125.93133287 397.37934199 93.26068388 389.40797376 65.0078125 371.80859375 C46.24290201 359.30970461 31.55374323 342.40194328 19.796875 323.3359375 C19.10851562 322.23507812 18.42015625 321.13421875 17.7109375 320 C9.37658212 305.60429525 3.89708737 288.6486913 0.796875 272.3359375 C0.65491699 271.60165527 0.51295898 270.86737305 0.36669922 270.11083984 C-3.5555476 248.71800582 -5.2158711 224.23447966 1.796875 203.3359375 C2.10096638 201.69592333 2.37202817 200.04943251 2.609375 198.3984375 C8.33783603 165.6707183 28.97534478 139.15746772 51.796875 116.3359375 C22.426875 116.0059375 -6.943125 115.6759375 -37.203125 115.3359375 C-37.203125 203.1159375 -37.203125 290.8959375 -37.203125 381.3359375 C-50.733125 381.3359375 -64.263125 381.3359375 -78.203125 381.3359375 C-78.203125 293.5559375 -78.203125 205.7759375 -78.203125 115.3359375 C-90.413125 115.3359375 -102.623125 115.3359375 -115.203125 115.3359375 C-115.203125 106.0959375 -115.203125 96.8559375 -115.203125 87.3359375 C-102.993125 87.0059375 -90.783125 86.6759375 -78.203125 86.3359375 C-77.543125 81.3859375 -76.883125 76.4359375 -76.203125 71.3359375 C-75.543125 69.3559375 -74.883125 67.3759375 -74.203125 65.3359375 C-73.97178663 63.88107618 -73.76279341 62.42245605 -73.578125 60.9609375 C-70.07711549 42.59453048 -56.11819902 24.84984214 -41.203125 14.3359375 C-32.52635727 8.70220679 -24.24605121 5.03363842 -14.203125 2.3359375 C-12.88103027 1.82691895 -12.88103027 1.82691895 -11.53222656 1.30761719 C-7.64349419 0.17259556 -4.01428493 0.0130357 0 0 Z " fill="#FBFBFB" transform="translate(791.203125,728.6640625)"/>
<path d="M0 0 C3.2137382 2.39896851 6.31435568 4.92082667 9.4140625 7.46484375 C10.06632813 7.95210937 10.71859375 8.439375 11.390625 8.94140625 C33.42996567 25.96705805 45.57148371 59.04711458 49.4140625 85.46484375 C49.5996875 86.43679688 49.7853125 87.40875 49.9765625 88.41015625 C53.85242199 110.31952867 52.03276426 134.00821169 46.4140625 155.46484375 C45.7540625 155.46484375 45.0940625 155.46484375 44.4140625 155.46484375 C44.30964844 156.62113281 44.20523438 157.77742187 44.09765625 158.96875 C43.53155056 163.43578499 42.22697557 167.2715653 40.4765625 171.40234375 C40.16936279 172.13106689 39.86216309 172.85979004 39.5456543 173.6105957 C33.30566278 187.94305221 25.04004361 200.04636177 14.4140625 211.46484375 C13.84558594 212.08617187 13.27710938 212.7075 12.69140625 213.34765625 C11.4140625 214.46484375 11.4140625 214.46484375 9.4140625 214.46484375 C9.4140625 215.12484375 9.4140625 215.78484375 9.4140625 216.46484375 C-1.80943523 226.02266337 -17.69552181 234.57670982 -32.5859375 235.46484375 C-33.28912109 235.51108887 -33.99230469 235.55733398 -34.71679688 235.60498047 C-57.4106233 236.9106654 -75.49802024 230.13499275 -92.60693359 215.1652832 C-102.41229842 206.25497361 -109.75915485 195.73445321 -116.5859375 184.46484375 C-117.09125 183.63984375 -117.5965625 182.81484375 -118.1171875 181.96484375 C-120.92661996 177.16825175 -122.87729523 172.26376745 -124.68359375 167.01171875 C-125.6037459 164.28923526 -125.6037459 164.28923526 -127.1484375 161.08984375 C-138.11279072 133.4406052 -135.96639062 100.75280211 -130.6484375 72.15234375 C-130.49084961 71.29914551 -130.33326172 70.44594727 -130.17089844 69.56689453 C-129.12834945 64.29251595 -127.65023406 59.42586556 -125.5859375 54.46484375 C-125.32127686 53.82635498 -125.05661621 53.18786621 -124.78393555 52.5300293 C-124.00096392 50.66978768 -123.19992964 48.81718114 -122.3984375 46.96484375 C-122.12580078 46.33320312 -121.85316406 45.7015625 -121.57226562 45.05078125 C-120.9118519 43.52140209 -120.24914583 41.99301312 -119.5859375 40.46484375 C-118.9259375 40.46484375 -118.2659375 40.46484375 -117.5859375 40.46484375 C-117.4828125 39.74554687 -117.3796875 39.02625 -117.2734375 38.28515625 C-114.99426873 28.93538437 -106.78346639 20.53719389 -100.5859375 13.46484375 C-99.91046875 12.69269531 -99.235 11.92054688 -98.5390625 11.125 C-72.65821868 -16.55582732 -31.06420473 -22.44094526 0 0 Z " fill="#010101" transform="translate(965.5859375,858.53515625)"/>
<path d="M0 0 C0.94617188 0.17144531 1.89234375 0.34289062 2.8671875 0.51953125 C20.86725052 4.21980946 39.28928079 17.15938186 50 32 C51.90522753 34.99129926 53.69190228 38.03815737 55.4375 41.125 C56.07606934 42.2533728 56.07606934 42.2533728 56.72753906 43.40454102 C57.12553711 44.13987061 57.52353516 44.8752002 57.93359375 45.6328125 C58.4603772 46.60565186 58.4603772 46.60565186 58.99780273 47.59814453 C61.81467436 54.34902956 62.28766802 60.67031879 62.24050903 67.88354492 C62.24221788 68.85001513 62.24392673 69.81648533 62.24568737 70.81224251 C62.24896893 74.03506118 62.23800051 77.25766941 62.22705078 80.48046875 C62.22648638 82.79689021 62.22680379 85.11331203 62.22793579 87.42973328 C62.22850917 93.70801637 62.21675712 99.9862229 62.20278788 106.26448822 C62.19027816 112.82947908 62.18910982 119.39447172 62.18673706 125.95947266 C62.18156195 136.97511114 62.16873977 147.99072284 62.15087891 159.00634766 C62.13250573 170.34977071 62.11835627 181.69318615 62.10986328 193.03662109 C62.10933783 193.73646327 62.10881239 194.43630544 62.10827102 195.15735495 C62.10566084 198.66844657 62.10313345 202.17953825 62.10064721 205.69062996 C62.07993199 234.79377203 62.04416908 263.89688435 62 293 C48.47 293 34.94 293 21 293 C20.98541748 286.60109375 20.97083496 280.2021875 20.95581055 273.609375 C20.90543193 252.44706456 20.83897984 231.28482702 20.76428509 210.12258911 C20.71939713 197.29429956 20.67996638 184.46603733 20.65356445 171.63769531 C20.63052762 160.45123429 20.59706632 149.26486027 20.55129844 138.07846832 C20.52744281 132.16016874 20.50866393 126.2419549 20.50238609 120.3236084 C20.49630049 114.74218266 20.4761761 109.1609761 20.44572449 103.57963181 C20.43699966 101.54164533 20.43321002 99.50363014 20.43499184 97.46562576 C20.46559322 73.28894928 20.46559322 73.28894928 10 52 C9.57589844 51.40832031 9.15179687 50.81664062 8.71484375 50.20703125 C5.49527175 45.96156173 1.33888273 42.9972029 -3 40 C-3.91007813 39.33613281 -4.82015625 38.67226563 -5.7578125 37.98828125 C-9.41189203 35.74740597 -12.85256325 34.51440665 -16.9375 33.3125 C-17.61490234 33.10044922 -18.29230469 32.88839844 -18.99023438 32.66992188 C-36.67551249 27.29481817 -55.61530761 29.17745252 -72.01171875 37.53515625 C-87.37662796 46.17176975 -100.42369805 57.50184514 -105.57775921 74.95664573 C-106.30786111 78.48983549 -106.15397688 82.08719466 -106.15821838 85.68121338 C-106.16315636 86.56667839 -106.16809434 87.4521434 -106.17318195 88.36444068 C-106.18856298 91.33703407 -106.19691924 94.30960586 -106.20532227 97.28222656 C-106.21490031 99.41087027 -106.22491035 101.53951206 -106.23532104 103.66815186 C-106.26238413 109.4528423 -106.28338612 115.23754091 -106.30332303 121.02225971 C-106.3251739 127.06545314 -106.35256699 133.10862135 -106.37937927 139.15179443 C-106.42931831 150.59808806 -106.47425266 162.04439568 -106.51740164 173.4907167 C-106.56676365 186.52080796 -106.62168563 199.55087393 -106.67708123 212.58094072 C-106.79091988 239.38727138 -106.89702082 266.19362527 -107 293 C-120.53 293 -134.06 293 -148 293 C-148 196.97 -148 100.94 -148 2 C-134.47 2 -120.94 2 -107 2 C-106.67 12.89 -106.34 23.78 -106 35 C-103.69 32.36 -101.38 29.72 -99 27 C-73.75363505 1.55515734 -34.72215358 -7.76549589 0 0 Z " fill="#FBFBFB" transform="translate(608,817)"/>
<path d="M0 0 C15.18 0 30.36 0 46 0 C46 125.4 46 250.8 46 380 C30.82 380 15.64 380 0 380 C0 254.6 0 129.2 0 0 Z " fill="#FBFBFB" transform="translate(370,730)"/>
<path d="M0 0 C0.66 0.33 1.32 0.66 2 1 C-2.18389906 6.12527635 -6.54904814 11.17619795 -12 15 C-12.99 15 -13.98 15 -15 15 C-13.25420935 13.0585604 -11.50362507 11.12184216 -9.75 9.1875 C-9.25886719 8.64029297 -8.76773438 8.09308594 -8.26171875 7.52929688 C-5.68270045 4.69237675 -3.19370806 2.16715904 0 0 Z " fill="#2D2D2D" transform="translate(524,861)"/>
<path d="M0 0 C0.33 0 0.66 0 1 0 C1 4.29 1 8.58 1 13 C0.34 12.67 -0.32 12.34 -1 12 C-1.73075648 9.6859378 -2.40138258 7.35171131 -3 5 C-2.34 5 -1.68 5 -1 5 C-0.67 3.35 -0.34 1.7 0 0 Z " fill="#4A4A4A" transform="translate(1048,888)"/>
<path d="M0 0 C0.66 0.33 1.32 0.66 2 1 C0.35 2.65 -1.3 4.3 -3 6 C-2.67 6.66 -2.34 7.32 -2 8 C-2.763125 8.45375 -3.52625 8.9075 -4.3125 9.375 C-6.23632814 10.53824492 -8.12941224 11.7529415 -10 13 C-8.65515286 8.95838045 -6.9494838 6.61321846 -3.875 3.6875 C-3.15054688 2.99011719 -2.42609375 2.29273438 -1.6796875 1.57421875 C-1.12539063 1.05472656 -0.57109375 0.53523437 0 0 Z " fill="#2A2A2A" transform="translate(768,762)"/>
<path d="M0 0 C0.66 0.33 1.32 0.66 2 1 C-1.63 4.63 -5.26 8.26 -9 12 C-9.66 11.67 -10.32 11.34 -11 11 C-7.81316569 6.66590534 -4.13621084 3.3810038 0 0 Z " fill="#DDDDDD" transform="translate(747,745)"/>
<path d="M0 0 C0.66 0.33 1.32 0.66 2 1 C-0.97 4.3 -3.94 7.6 -7 11 C-7 7.22089522 -6.00296038 6.53893899 -3.5 3.8125 C-2.8503125 3.09707031 -2.200625 2.38164063 -1.53125 1.64453125 C-1.0259375 1.10183594 -0.520625 0.55914063 0 0 Z " fill="#2D2D2D" transform="translate(1101,854)"/>
<path d="M0 0 C0 3 0 3 -1.75 5.04296875 C-2.4925 5.75066406 -3.235 6.45835938 -4 7.1875 C-4.7425 7.90292969 -5.485 8.61835937 -6.25 9.35546875 C-7.11625 10.16951172 -7.11625 10.16951172 -8 11 C-8.66 10.34 -9.32 9.68 -10 9 C-6.7 6.03 -3.4 3.06 0 0 Z " fill="#262626" transform="translate(1529,1088)"/>
<path d="M0 0 C0 3 0 3 -2.25 5.625 C-4.72881204 7.76579221 -5.83568489 8.64840943 -9 9 C-6 6 -3 3 0 0 Z " fill="#D9D9D9" transform="translate(1187,1072)"/>
<path d="M0 0 C0.66 0.33 1.32 0.66 2 1 C0.625 3 0.625 3 -1 5 C-1.66 5 -2.32 5 -3 5 C-3.33 5.66 -3.66 6.32 -4 7 C-6.0625 7.625 -6.0625 7.625 -8 8 C-5.33333333 5.33333333 -2.66666667 2.66666667 0 0 Z " fill="#D8D8D8" transform="translate(1397,837)"/>
<path d="M0 0 C0.99 0.33 1.98 0.66 3 1 C1.50260417 2.23697917 0.00520833 3.47395833 -1.4921875 4.7109375 C-2.71051161 5.75250992 -3.86660097 6.86660097 -5 8 C-5.66 7.34 -6.32 6.68 -7 6 C-5.90716423 4.96704564 -4.80029421 3.94892165 -3.6875 2.9375 C-3.07261719 2.36902344 -2.45773437 1.80054688 -1.82421875 1.21484375 C-0.92123047 0.61349609 -0.92123047 0.61349609 0 0 Z " fill="#232323" transform="translate(1014,1084)"/>
</svg>
